STARTFONT 2.1
FONT -HP-Sung-Medium-R-Normal--18-180-75-75-C-160-CNS11643.1992-4
SIZE 18 75 75
FONTBOUNDINGBOX 16 18 0 -2

STARTPROPERTIES 23
FONTNAME_REGISTRY ""
FOUNDRY "HP"
FAMILY_NAME "Sung"
WEIGHT_NAME "Medium"
SLANT "R"
SETWIDTH_NAME "Normal"
ADD_STYLE_NAME ""
PIXEL_SIZE 18
POINT_SIZE 180
RESOLUTION_X 75
RESOLUTION_Y 75
SPACING "C"
AVERAGE_WIDTH 160
CHARSET_REGISTRY "CNS11643.1992"
CHARSET_ENCODING "4"
COPYRIGHT "Copyright (c) 1994 Hewlett-Packard Company."
_HP_ASXVERSION "@(#) ASX 3.00 $Revision: 13.9 $ sungX18n4"
WEIGHT 10
X_HEIGHT 7
QUAD_WIDTH 16
DEFAULT_CHAR 28253
FONT_DESCENT 2
FONT_ASCENT 16
ENDPROPERTIES

CHARS 7299

STARTCHAR cns4_2121
ENCODING 8481
SWIDTH 854 0
DWIDTH 16 0
BBX 16 18 0 -2
BITMAP
0000
0004
003E
1FE0
1000
1000
1000
1000
1000
1000
1000
1000
2000
2000
2000
4000
4000
0000
ENDCHAR

STARTCHAR cns4_2122
ENCODING 8482
SWIDTH 854 0
DWIDTH 16 0
BBX 16 18 0 -2
BITMAP
0000
0000
0000
0300
0500
0900
3100
0100
0080
0080
0080
0040
0060
0020
0018
000E
0000
0000
ENDCHAR

STARTCHAR cns4_2123
ENCODING 8483
SWIDTH 854 0
DWIDTH 16 0
BBX 16 18 0 -2
BITMAP
0000
0000
0100
7F80
0100
0100
0180
0080
0080
0080
0040
0040
0020
0030
0018
000E
0000
0000
ENDCHAR

STARTCHAR cns4_2124
ENCODING 8484
SWIDTH 854 0
DWIDTH 16 0
BBX 16 18 0 -2
BITMAP
0000
0000
1000
1000
1000
1000
1000
1000
1000
1000
1000
1000
1000
1004
1004
1FFC
0000
0000
ENDCHAR

STARTCHAR cns4_2125
ENCODING 8485
SWIDTH 854 0
DWIDTH 16 0
BBX 16 18 0 -2
BITMAP
0000
0100
0180
0100
0200
0200
0200
0400
0C00
0800
0400
0400
0200
0200
0100
0180
0080
0000
ENDCHAR

STARTCHAR cns4_2126
ENCODING 8486
SWIDTH 854 0
DWIDTH 16 0
BBX 16 18 0 -2
BITMAP
0000
0000
0004
7FFE
0400
0C00
0800
1FF8
1008
1010
0010
0010
0010
0020
0020
07C0
0180
0000
ENDCHAR

STARTCHAR cns4_2127
ENCODING 8487
SWIDTH 854 0
DWIDTH 16 0
BBX 16 18 0 -2
BITMAP
0000
0000
0018
0610
0410
0410
0410
0410
0430
07F0
1A10
0010
0010
0010
0010
0010
0010
0000
ENDCHAR

STARTCHAR cns4_2128
ENCODING 8488
SWIDTH 854 0
DWIDTH 16 0
BBX 16 18 0 -2
BITMAP
0000
0000
7FF0
0010
0020
0020
0020
003E
0022
0042
0002
0002
0004
0004
0004
00F8
0010
0000
ENDCHAR

STARTCHAR cns4_2129
ENCODING 8489
SWIDTH 854 0
DWIDTH 16 0
BBX 16 18 0 -2
BITMAP
0000
0000
07F0
0410
0410
0410
0410
0410
0410
0810
0810
0810
0810
1010
1010
201F
0000
0000
ENDCHAR

STARTCHAR cns4_212A
ENCODING 8490
SWIDTH 854 0
DWIDTH 16 0
BBX 16 18 0 -2
BITMAP
0000
0040
0440
0440
0440
0440
0440
0440
0440
0440
0440
0440
0440
0040
0040
0640
0180
0000
ENDCHAR

STARTCHAR cns4_212B
ENCODING 8491
SWIDTH 854 0
DWIDTH 16 0
BBX 16 18 0 -2
BITMAP
0000
0000
1FF0
1010
1010
1010
1010
1010
1020
1020
10E0
1000
1000
1004
1004
100C
0FF8
0000
ENDCHAR

STARTCHAR cns4_212C
ENCODING 8492
SWIDTH 854 0
DWIDTH 16 0
BBX 16 18 0 -2
BITMAP
0000
0000
0208
030C
0418
0410
0820
0820
1040
2080
1040
0820
0C30
0418
0208
0208
0000
0000
ENDCHAR

STARTCHAR cns4_212D
ENCODING 8493
SWIDTH 854 0
DWIDTH 16 0
BBX 16 18 0 -2
BITMAP
0000
0000
3FFE
2002
2002
2002
2002
2FF2
2002
2002
2002
2002
2002
2002
2002
203E
200C
0000
ENDCHAR

STARTCHAR cns4_212E
ENCODING 8494
SWIDTH 854 0
DWIDTH 16 0
BBX 16 18 0 -2
BITMAP
0000
0000
2001
2001
2001
2001
2001
2FFD
2001
2001
2001
2001
2001
2001
3FFF
2001
0000
0000
ENDCHAR

STARTCHAR cns4_212F
ENCODING 8495
SWIDTH 854 0
DWIDTH 16 0
BBX 16 18 0 -2
BITMAP
0000
0800
0800
1000
1FFE
1002
2002
2002
4FF2
0002
0002
0002
0004
0004
0004
00C8
0030
0000
ENDCHAR

STARTCHAR cns4_2130
ENCODING 8496
SWIDTH 854 0
DWIDTH 16 0
BBX 16 18 0 -2
BITMAP
0000
0000
7FF0
0410
0410
0410
0410
0410
7FF0
0410
0411
0411
0411
041F
0400
0400
0400
0000
ENDCHAR

STARTCHAR cns4_2131
ENCODING 8497
SWIDTH 854 0
DWIDTH 16 0
BBX 16 18 0 -2
BITMAP
0000
0000
0FF0
0810
0810
0910
0910
0990
0890
0810
0810
08F0
0820
0800
0800
0800
0800
0000
ENDCHAR

STARTCHAR cns4_2132
ENCODING 8498
SWIDTH 854 0
DWIDTH 16 0
BBX 16 18 0 -2
BITMAP
0000
0000
1FFC
000C
0018
00A0
00C0
0080
00FF
0080
0080
0080
0080
0080
0080
0F80
0100
0000
ENDCHAR

STARTCHAR cns4_2133
ENCODING 8499
SWIDTH 854 0
DWIDTH 16 0
BBX 16 18 0 -2
BITMAP
0000
0000
3FFC
000C
0038
00E0
0080
0080
0080
0080
0780
7880
0080
0080
0080
0080
0780
0000
ENDCHAR

STARTCHAR cns4_2134
ENCODING 8500
SWIDTH 854 0
DWIDTH 16 0
BBX 16 18 0 -2
BITMAP
0000
0180
0100
0100
0102
7FFF
0100
01C0
0180
0180
0280
0280
0481
0481
0881
1082
607F
0000
ENDCHAR

STARTCHAR cns4_2135
ENCODING 8501
SWIDTH 854 0
DWIDTH 16 0
BBX 16 18 0 -2
BITMAP
0000
0100
0100
2100
2104
2104
2104
2104
2104
2104
3FFC
2104
0100
0200
0200
0C00
3000
0000
ENDCHAR

STARTCHAR cns4_2136
ENCODING 8502
SWIDTH 854 0
DWIDTH 16 0
BBX 16 18 0 -2
BITMAP
0000
0080
0080
0080
00C0
04A0
04B0
0480
0880
0080
0080
0080
0080
0080
0080
0080
0080
0000
ENDCHAR

STARTCHAR cns4_2137
ENCODING 8503
SWIDTH 854 0
DWIDTH 16 0
BBX 16 18 0 -2
BITMAP
0000
0080
0080
0080
7FFE
0080
0080
0086
0098
00E0
0780
3C80
1080
0080
0080
0480
0300
0000
ENDCHAR

STARTCHAR cns4_2138
ENCODING 8504
SWIDTH 854 0
DWIDTH 16 0
BBX 16 18 0 -2
BITMAP
0000
0020
0220
0140
0080
0340
0C40
1040
00A0
0120
0220
0C20
1020
0040
0040
06C0
0180
0000
ENDCHAR

STARTCHAR cns4_2139
ENCODING 8505
SWIDTH 854 0
DWIDTH 16 0
BBX 16 18 0 -2
BITMAP
0000
0000
3FFC
0104
0104
2104
1904
0704
0304
02C4
0268
0428
0408
0878
0000
7FFE
0000
0000
ENDCHAR

STARTCHAR cns4_213A
ENCODING 8506
SWIDTH 854 0
DWIDTH 16 0
BBX 16 18 0 -2
BITMAP
0000
00C0
0080
009E
00F0
7F80
0086
00B8
03E0
7C80
008E
00F8
3FC0
0080
0080
0080
0080
0000
ENDCHAR

STARTCHAR cns4_213B
ENCODING 8507
SWIDTH 854 0
DWIDTH 16 0
BBX 16 18 0 -2
BITMAP
0000
0000
0000
3FFC
0000
0000
0000
7FFF
0000
0000
3FFC
0000
0000
0000
7FFF
0000
0000
0000
ENDCHAR

STARTCHAR cns4_213C
ENCODING 8508
SWIDTH 854 0
DWIDTH 16 0
BBX 16 18 0 -2
BITMAP
0000
0180
0180
0240
0420
0990
110C
6103
0100
7FFE
0100
0100
0100
0100
0100
0100
0100
0000
ENDCHAR

STARTCHAR cns4_213D
ENCODING 8509
SWIDTH 854 0
DWIDTH 16 0
BBX 16 18 0 -2
BITMAP
0000
0080
0080
0088
3FFC
0080
1080
2084
3FFE
4080
01C0
0180
0280
0282
0482
18FE
6000
0000
ENDCHAR

STARTCHAR cns4_213E
ENCODING 8510
SWIDTH 854 0
DWIDTH 16 0
BBX 16 18 0 -2
BITMAP
0000
0004
7FFE
4004
4004
5FF4
4004
4004
4004
5FF4
4004
4004
4004
4004
4004
403C
4000
0000
ENDCHAR

STARTCHAR cns4_213F
ENCODING 8511
SWIDTH 854 0
DWIDTH 16 0
BBX 16 18 0 -2
BITMAP
0000
0000
0000
0180
0380
02C0
0430
180C
3186
4380
06C0
0C60
1030
601C
000F
0000
0000
0000
ENDCHAR

STARTCHAR cns4_2140
ENCODING 8512
SWIDTH 854 0
DWIDTH 16 0
BBX 16 18 0 -2
BITMAP
0000
0003
7F82
089A
0892
0892
0892
0892
1092
1092
1092
1092
2092
2082
2102
4102
070E
0000
ENDCHAR

STARTCHAR cns4_2141
ENCODING 8513
SWIDTH 854 0
DWIDTH 16 0
BBX 16 18 0 -2
BITMAP
0000
0000
7E7E
1212
1212
1212
1212
1212
1222
2222
2222
2222
2242
2244
2444
4484
5C9C
0000
ENDCHAR

STARTCHAR cns4_2142
ENCODING 8514
SWIDTH 854 0
DWIDTH 16 0
BBX 16 18 0 -2
BITMAP
0000
0800
0800
0FF8
0802
0802
0806
07FE
0100
0100
0100
7FFE
0100
0100
0100
0100
0100
0000
ENDCHAR

STARTCHAR cns4_2143
ENCODING 8515
SWIDTH 854 0
DWIDTH 16 0
BBX 16 18 0 -2
BITMAP
0000
0000
3F7E
2142
2142
2142
2142
2142
2142
2142
274E
2040
2040
2142
2142
2142
1F7E
0000
ENDCHAR

STARTCHAR cns4_2144
ENCODING 8516
SWIDTH 854 0
DWIDTH 16 0
BBX 16 18 0 -2
BITMAP
0000
0400
07E0
0820
1040
2080
1FFE
1000
1000
1000
1000
1000
1000
2000
2000
4000
0000
0000
ENDCHAR

STARTCHAR cns4_2145
ENCODING 8517
SWIDTH 854 0
DWIDTH 16 0
BBX 16 18 0 -2
BITMAP
0000
0000
0810
0810
0810
0810
0810
1020
1020
1020
1020
2040
2248
2144
2144
3FFC
0082
0000
ENDCHAR

STARTCHAR cns4_2146
ENCODING 8518
SWIDTH 854 0
DWIDTH 16 0
BBX 16 18 0 -2
BITMAP
0000
0080
0080
7C80
4480
4480
4480
4480
4480
4480
4480
7C80
4480
4081
0081
0081
00FF
0000
ENDCHAR

STARTCHAR cns4_2147
ENCODING 8519
SWIDTH 854 0
DWIDTH 16 0
BBX 16 18 0 -2
BITMAP
0000
0000
7FFF
0000
0000
0000
1FF8
1008
1008
1008
1008
1008
1008
1008
1FF8
1008
1008
0000
ENDCHAR

STARTCHAR cns4_2148
ENCODING 8520
SWIDTH 854 0
DWIDTH 16 0
BBX 16 18 0 -2
BITMAP
0000
0000
001C
01E0
7F00
0100
0100
0100
0100
3FFC
0100
0100
0100
0100
0100
7FFF
0000
0000
ENDCHAR

STARTCHAR cns4_2149
ENCODING 8521
SWIDTH 854 0
DWIDTH 16 0
BBX 16 18 0 -2
BITMAP
0000
0800
0800
1000
1F80
0080
0080
0080
7FFE
0180
0180
0140
0240
0220
0418
180F
3002
0000
ENDCHAR

STARTCHAR cns4_214A
ENCODING 8522
SWIDTH 854 0
DWIDTH 16 0
BBX 16 18 0 -2
BITMAP
0000
0420
0410
0808
080C
1006
27E2
4420
0420
0420
0420
0420
0821
0821
1021
203F
4000
0000
ENDCHAR

STARTCHAR cns4_214B
ENCODING 8523
SWIDTH 854 0
DWIDTH 16 0
BBX 16 18 0 -2
BITMAP
0000
0420
0410
0808
100C
2006
6442
0440
0440
0440
0440
0840
0840
1041
1041
207F
4000
0000
ENDCHAR

STARTCHAR cns4_214C
ENCODING 8524
SWIDTH 854 0
DWIDTH 16 0
BBX 16 18 0 -2
BITMAP
0000
001C
00F0
3F80
0100
0100
3FFC
2104
2104
2104
2104
2104
2104
211C
2100
0100
0100
0000
ENDCHAR

STARTCHAR cns4_214D
ENCODING 8525
SWIDTH 854 0
DWIDTH 16 0
BBX 16 18 0 -2
BITMAP
0000
0000
3FFE
0420
0420
0420
0420
0420
0420
7FFF
0420
0820
0820
1020
1020
2020
4020
0000
ENDCHAR

STARTCHAR cns4_214E
ENCODING 8526
SWIDTH 854 0
DWIDTH 16 0
BBX 16 18 0 -2
BITMAP
0000
0000
7FFE
0180
0380
0340
0540
0520
0920
1110
1108
210C
4106
0100
0100
0100
0100
0000
ENDCHAR

STARTCHAR cns4_214F
ENCODING 8527
SWIDTH 854 0
DWIDTH 16 0
BBX 16 18 0 -2
BITMAP
0000
2000
13FC
1004
0008
0410
4820
2820
1040
1080
1080
2100
6100
2202
2202
21FE
0000
0000
ENDCHAR

STARTCHAR cns4_2150
ENCODING 8528
SWIDTH 854 0
DWIDTH 16 0
BBX 16 18 0 -2
BITMAP
0000
0000
0000
0000
0000
0000
0000
0000
0000
0080
2448
2444
2666
6222
4020
0000
0000
0000
ENDCHAR

STARTCHAR cns4_2151
ENCODING 8529
SWIDTH 854 0
DWIDTH 16 0
BBX 16 18 0 -2
BITMAP
0000
0000
001C
10F0
1F88
110C
3084
20C6
60C6
4006
0000
0000
0000
0000
0000
0000
0000
0000
ENDCHAR

STARTCHAR cns4_2152
ENCODING 8530
SWIDTH 854 0
DWIDTH 16 0
BBX 16 18 0 -2
BITMAP
0000
0000
7FFC
4034
4024
4824
4444
4344
4184
40C4
4164
4224
4434
4814
5004
4004
401C
0000
ENDCHAR

STARTCHAR cns4_2153
ENCODING 8531
SWIDTH 854 0
DWIDTH 16 0
BBX 16 18 0 -2
BITMAP
0000
0000
0000
0000
0808
0808
7F7F
0808
0808
0000
0000
0000
0000
0000
0000
0000
0000
0000
ENDCHAR

STARTCHAR cns4_2154
ENCODING 8532
SWIDTH 854 0
DWIDTH 16 0
BBX 16 18 0 -2
BITMAP
0000
4000
3000
1000
0000
7800
0800
1000
2000
7800
0800
1000
1000
3000
2000
5800
07FF
0000
ENDCHAR

STARTCHAR cns4_2155
ENCODING 8533
SWIDTH 854 0
DWIDTH 16 0
BBX 16 18 0 -2
BITMAP
0000
0888
0888
0888
0888
0888
7FFF
0888
0888
0888
0888
0888
0888
0000
0000
7FFF
0000
0000
ENDCHAR

STARTCHAR cns4_2156
ENCODING 8534
SWIDTH 854 0
DWIDTH 16 0
BBX 16 18 0 -2
BITMAP
0000
180C
0808
0410
1C28
6224
0140
0080
0080
0080
0080
0080
0080
0080
0080
0080
0080
0000
ENDCHAR

STARTCHAR cns4_2157
ENCODING 8535
SWIDTH 854 0
DWIDTH 16 0
BBX 16 18 0 -2
BITMAP
0000
1800
1000
3FFE
2000
2080
5080
1080
13FC
7C84
1084
1084
1084
109C
1002
1002
0FFE
0000
ENDCHAR

STARTCHAR cns4_2158
ENCODING 8536
SWIDTH 854 0
DWIDTH 16 0
BBX 16 18 0 -2
BITMAP
0000
1020
1020
37FF
2400
2400
6400
2400
2400
2400
2400
2400
2400
2800
2800
2800
3000
0000
ENDCHAR

STARTCHAR cns4_2159
ENCODING 8537
SWIDTH 854 0
DWIDTH 16 0
BBX 16 18 0 -2
BITMAP
0000
0400
0C00
0BFE
0A02
1202
1202
3202
5202
1202
1202
1202
1202
1202
13FE
1202
1200
0000
ENDCHAR

STARTCHAR cns4_215A
ENCODING 8538
SWIDTH 854 0
DWIDTH 16 0
BBX 16 18 0 -2
BITMAP
0000
0480
0C80
0900
09FE
1102
1202
3202
5082
5042
1022
1012
1002
1004
1004
1004
1038
0000
ENDCHAR

STARTCHAR cns4_215B
ENCODING 8539
SWIDTH 854 0
DWIDTH 16 0
BBX 16 18 0 -2
BITMAP
0000
0400
0838
09C0
0E80
1080
1080
3080
5FFE
5080
1080
1080
1080
1080
1082
1082
10FE
0000
ENDCHAR

STARTCHAR cns4_215C
ENCODING 8540
SWIDTH 854 0
DWIDTH 16 0
BBX 16 18 0 -2
BITMAP
0000
0100
0100
0100
01FC
0100
0100
0100
7FFF
0440
0440
0440
0840
0841
1041
607F
0000
0000
ENDCHAR

STARTCHAR cns4_215D
ENCODING 8541
SWIDTH 854 0
DWIDTH 16 0
BBX 16 18 0 -2
BITMAP
0000
0000
7FFF
0000
1FFC
1004
1004
1004
17F4
1004
1004
7FFF
1004
1004
1004
1004
101C
0000
ENDCHAR

STARTCHAR cns4_215E
ENCODING 8542
SWIDTH 854 0
DWIDTH 16 0
BBX 16 18 0 -2
BITMAP
0000
0100
0100
0200
7FFE
0240
0420
0810
1018
6004
0383
0040
0000
0018
00E0
1F00
0000
0000
ENDCHAR

STARTCHAR cns4_215F
ENCODING 8543
SWIDTH 854 0
DWIDTH 16 0
BBX 16 18 0 -2
BITMAP
0000
0000
3FFC
2004
2104
2104
2104
2914
2914
2914
2914
2914
2914
2914
4FF2
4812
0001
0000
ENDCHAR

STARTCHAR cns4_2160
ENCODING 8544
SWIDTH 854 0
DWIDTH 16 0
BBX 16 18 0 -2
BITMAP
0000
4002
4082
4082
4082
4082
4FFA
4082
4082
4082
4082
5FFE
4002
4002
7FFE
4002
0000
0000
ENDCHAR

STARTCHAR cns4_2161
ENCODING 8545
SWIDTH 854 0
DWIDTH 16 0
BBX 16 18 0 -2
BITMAP
0000
0002
0002
7F92
0812
0812
0812
0812
0812
0812
0812
0812
0992
1E02
7002
0002
000E
0000
ENDCHAR

STARTCHAR cns4_2162
ENCODING 8546
SWIDTH 854 0
DWIDTH 16 0
BBX 16 18 0 -2
BITMAP
0000
0000
7F84
1404
1424
1424
1424
1424
1424
1424
2424
2404
2404
441D
4401
07FF
0000
0000
ENDCHAR

STARTCHAR cns4_2163
ENCODING 8547
SWIDTH 854 0
DWIDTH 16 0
BBX 16 18 0 -2
BITMAP
0000
1010
1010
2010
3F90
207E
4012
1E12
0212
0412
0822
1022
2022
20A2
40A2
41CE
3E40
0000
ENDCHAR

STARTCHAR cns4_2164
ENCODING 8548
SWIDTH 854 0
DWIDTH 16 0
BBX 16 18 0 -2
BITMAP
0000
0320
1C20
6820
0820
08FE
0822
7FA2
0822
0822
0842
0842
0842
0884
0884
0904
0A1C
0000
ENDCHAR

STARTCHAR cns4_2165
ENCODING 8549
SWIDTH 854 0
DWIDTH 16 0
BBX 16 18 0 -2
BITMAP
0000
0000
7FFE
4100
4100
43E0
4420
4440
4840
5080
4140
4120
4210
4C0C
5006
7FFF
4000
0000
ENDCHAR

STARTCHAR cns4_2166
ENCODING 8550
SWIDTH 854 0
DWIDTH 16 0
BBX 16 18 0 -2
BITMAP
0000
0000
3FFE
2000
2FFC
2080
2080
2080
3FFE
2080
2080
2080
2080
4080
4080
4080
0080
0000
ENDCHAR

STARTCHAR cns4_2167
ENCODING 8551
SWIDTH 854 0
DWIDTH 16 0
BBX 16 18 0 -2
BITMAP
0000
0000
1FFE
1000
1030
11C0
1640
1040
1040
2FFE
2040
2040
2041
4041
4041
407F
0000
0000
ENDCHAR

STARTCHAR cns4_2168
ENCODING 8552
SWIDTH 854 0
DWIDTH 16 0
BBX 16 18 0 -2
BITMAP
0000
0100
2104
2104
2104
3FFC
2104
0100
1FF0
0410
0420
0220
0240
0180
0140
0630
180E
0000
ENDCHAR

STARTCHAR cns4_2169
ENCODING 8553
SWIDTH 854 0
DWIDTH 16 0
BBX 16 18 0 -2
BITMAP
0000
0100
0100
3FF8
0108
0108
7FFF
0100
0100
7FF8
0810
0420
0640
0380
02C0
0C70
700E
0000
ENDCHAR

STARTCHAR cns4_216A
ENCODING 8554
SWIDTH 854 0
DWIDTH 16 0
BBX 16 18 0 -2
BITMAP
0000
0000
0110
7910
4910
4910
4910
4910
4910
4910
7910
4910
4210
0212
0412
041E
0800
0000
ENDCHAR

STARTCHAR cns4_216B
ENCODING 8555
SWIDTH 854 0
DWIDTH 16 0
BBX 16 18 0 -2
BITMAP
0000
0000
0440
0820
0810
1018
200C
4007
1FF8
1008
1008
1008
1008
1008
1FF8
1008
0000
0000
ENDCHAR

STARTCHAR cns4_216C
ENCODING 8556
SWIDTH 854 0
DWIDTH 16 0
BBX 16 18 0 -2
BITMAP
0000
0000
1FFC
1004
1004
1004
1FFC
1004
0000
7FFE
0102
0102
0102
0202
0404
1804
6018
0000
ENDCHAR

STARTCHAR cns4_216D
ENCODING 8557
SWIDTH 854 0
DWIDTH 16 0
BBX 16 18 0 -2
BITMAP
0000
0000
7FFE
4002
4102
4102
4202
4202
4202
4402
4422
4812
5FFA
400A
7FFE
4002
0000
0000
ENDCHAR

STARTCHAR cns4_216E
ENCODING 8558
SWIDTH 854 0
DWIDTH 16 0
BBX 16 18 0 -2
BITMAP
0000
0000
7FFE
4002
4F82
4082
4082
4082
4182
4142
4142
4222
4412
580E
7FFE
4002
0000
0000
ENDCHAR

STARTCHAR cns4_216F
ENCODING 8559
SWIDTH 854 0
DWIDTH 16 0
BBX 16 18 0 -2
BITMAP
0000
0000
7FFE
4002
4002
4002
7FC2
4042
4042
4042
7FC2
4002
4002
4002
7FFE
4002
4000
0000
ENDCHAR

STARTCHAR cns4_2170
ENCODING 8560
SWIDTH 854 0
DWIDTH 16 0
BBX 16 18 0 -2
BITMAP
0000
0100
0100
0100
3FFC
0100
0100
0100
7FFF
0440
0440
0440
0840
0840
1041
2061
403F
0000
ENDCHAR

STARTCHAR cns4_2171
ENCODING 8561
SWIDTH 854 0
DWIDTH 16 0
BBX 16 18 0 -2
BITMAP
0000
0000
3FFF
2000
2080
2080
2080
2080
3FFE
2080
2080
2080
2080
4080
4080
5FFF
0000
0000
ENDCHAR

STARTCHAR cns4_2172
ENCODING 8562
SWIDTH 854 0
DWIDTH 16 0
BBX 16 18 0 -2
BITMAP
0000
0100
0100
0200
7FFE
0240
0420
0810
0808
3006
4003
1FF8
0000
0000
0000
7FFF
0000
0000
ENDCHAR

STARTCHAR cns4_2173
ENCODING 8563
SWIDTH 854 0
DWIDTH 16 0
BBX 16 18 0 -2
BITMAP
0000
0400
0C00
0800
1FFF
1040
2040
2040
4848
0848
0844
1046
1042
2042
0040
0040
01C0
0000
ENDCHAR

STARTCHAR cns4_2174
ENCODING 8564
SWIDTH 854 0
DWIDTH 16 0
BBX 16 18 0 -2
BITMAP
0000
0000
1FFC
1004
1004
1FFC
1000
1000
1000
17F8
1000
1000
2000
2000
5FFF
4000
0000
0000
ENDCHAR

STARTCHAR cns4_2175
ENCODING 8565
SWIDTH 854 0
DWIDTH 16 0
BBX 16 18 0 -2
BITMAP
0000
0808
0808
0410
0010
1FFE
1002
1002
1FFE
1000
1000
1000
1000
1000
2000
2000
4000
0000
ENDCHAR

STARTCHAR cns4_2176
ENCODING 8566
SWIDTH 854 0
DWIDTH 16 0
BBX 16 18 0 -2
BITMAP
0000
0080
1084
1084
1FFC
1004
1FFE
1000
1000
1000
1000
1000
1000
1000
2000
2000
4000
0000
ENDCHAR

STARTCHAR cns4_2177
ENCODING 8567
SWIDTH 854 0
DWIDTH 16 0
BBX 16 18 0 -2
BITMAP
0000
1000
11F8
1108
7D08
5508
5508
5508
5508
5508
5508
5508
5509
5E09
120A
140A
1004
0000
ENDCHAR

STARTCHAR cns4_2178
ENCODING 8568
SWIDTH 854 0
DWIDTH 16 0
BBX 16 18 0 -2
BITMAP
0000
0830
0420
0440
0040
3FFC
0100
0100
0100
0100
0100
7FFE
0100
0100
0100
0100
0100
0000
ENDCHAR

STARTCHAR cns4_2179
ENCODING 8569
SWIDTH 854 0
DWIDTH 16 0
BBX 16 18 0 -2
BITMAP
0000
1800
13FC
2204
4604
0E04
0A04
1204
3204
5208
1238
1200
1200
1200
1202
1302
11FE
0000
ENDCHAR

STARTCHAR cns4_217A
ENCODING 8570
SWIDTH 854 0
DWIDTH 16 0
BBX 16 18 0 -2
BITMAP
0000
1000
1102
1102
1102
7F02
1102
1102
1102
1502
1902
7102
1102
1102
11FE
1102
7102
0000
ENDCHAR

STARTCHAR cns4_217B
ENCODING 8571
SWIDTH 854 0
DWIDTH 16 0
BBX 16 18 0 -2
BITMAP
0000
0802
0842
0842
0842
7F42
0842
0842
0842
0B42
1C42
685E
09E2
0802
0802
0802
3802
0000
ENDCHAR

STARTCHAR cns4_217C
ENCODING 8572
SWIDTH 854 0
DWIDTH 16 0
BBX 16 18 0 -2
BITMAP
0000
0000
3FFC
2004
2004
3FFC
2104
2104
2104
3FFC
2104
0100
0100
0100
0100
0100
0100
0000
ENDCHAR

STARTCHAR cns4_217D
ENCODING 8573
SWIDTH 854 0
DWIDTH 16 0
BBX 16 18 0 -2
BITMAP
0000
0100
0100
2104
2104
2104
3FFC
2104
0100
0380
0380
0540
0920
1118
6106
0100
0100
0000
ENDCHAR

STARTCHAR cns4_217E
ENCODING 8574
SWIDTH 854 0
DWIDTH 16 0
BBX 16 18 0 -2
BITMAP
0000
0018
00E0
0080
0080
0080
3FFE
0180
02C0
02A0
0490
0888
1086
6081
0080
0080
0080
0000
ENDCHAR

STARTCHAR cns4_2221
ENCODING 8737
SWIDTH 854 0
DWIDTH 16 0
BBX 16 18 0 -2
BITMAP
0000
0000
0000
7FFE
4422
4422
4422
4422
4422
4422
4422
4422
4422
7FFE
4002
0000
0000
0000
ENDCHAR

STARTCHAR cns4_2222
ENCODING 8738
SWIDTH 854 0
DWIDTH 16 0
BBX 16 18 0 -2
BITMAP
0000
0000
7DF0
4510
4510
4910
4910
5110
5110
4910
4910
4910
7210
4210
4212
4412
480E
0000
ENDCHAR

STARTCHAR cns4_2223
ENCODING 8739
SWIDTH 854 0
DWIDTH 16 0
BBX 16 18 0 -2
BITMAP
0000
0080
7C80
4480
4880
57F0
5090
5090
5090
4890
4910
4910
7910
4212
4212
4412
400C
0000
ENDCHAR

STARTCHAR cns4_2224
ENCODING 8740
SWIDTH 854 0
DWIDTH 16 0
BBX 16 18 0 -2
BITMAP
0000
0000
7FFF
0080
0080
3FFE
2082
2182
2142
2232
221A
240A
2002
2002
3FFE
2002
2002
0000
ENDCHAR

STARTCHAR cns4_2225
ENCODING 8741
SWIDTH 854 0
DWIDTH 16 0
BBX 16 18 0 -2
BITMAP
0000
0030
07C0
0400
07F0
0410
0410
27F0
2410
2410
27F0
2410
2400
3FFE
0802
0802
1004
0000
ENDCHAR

STARTCHAR cns4_2226
ENCODING 8742
SWIDTH 854 0
DWIDTH 16 0
BBX 16 18 0 -2
BITMAP
0000
000C
00F0
1F00
100E
13F0
1220
1222
1224
1238
1220
1210
2210
2208
22C8
4704
0002
0000
ENDCHAR

STARTCHAR cns4_2227
ENCODING 8743
SWIDTH 854 0
DWIDTH 16 0
BBX 16 18 0 -2
BITMAP
0000
0010
0060
0380
1C80
0080
0C86
10C8
20B0
40A0
0490
0888
3086
4083
0080
0080
0080
0000
ENDCHAR

STARTCHAR cns4_2228
ENCODING 8744
SWIDTH 854 0
DWIDTH 16 0
BBX 16 18 0 -2
BITMAP
0000
0000
7E00
0200
05FC
0524
0924
0924
11FC
1124
2124
2124
21FC
4104
4001
4001
3FFF
0000
ENDCHAR

STARTCHAR cns4_2229
ENCODING 8745
SWIDTH 854 0
DWIDTH 16 0
BBX 16 18 0 -2
BITMAP
0000
0840
0840
0C41
17FF
1442
3444
30E0
50A0
10A0
1120
1120
1120
1221
1221
1421
183F
0000
ENDCHAR

STARTCHAR cns4_222A
ENCODING 8746
SWIDTH 854 0
DWIDTH 16 0
BBX 16 18 0 -2
BITMAP
0000
0000
0BFF
0A00
0A00
127E
1242
3242
5242
1242
1244
125C
1241
1441
1441
1441
187F
0000
ENDCHAR

STARTCHAR cns4_222B
ENCODING 8747
SWIDTH 854 0
DWIDTH 16 0
BBX 16 18 0 -2
BITMAP
0000
0800
0978
0908
1204
1402
33FF
3080
5100
1200
13FC
1004
1004
1004
1004
1018
10E0
0000
ENDCHAR

STARTCHAR cns4_222C
ENCODING 8748
SWIDTH 854 0
DWIDTH 16 0
BBX 16 18 0 -2
BITMAP
0000
0080
0080
7FFF
0080
1080
1FFC
1084
1084
1084
109C
1080
0180
0180
0140
0630
180C
0000
ENDCHAR

STARTCHAR cns4_222D
ENCODING 8749
SWIDTH 854 0
DWIDTH 16 0
BBX 16 18 0 -2
BITMAP
0000
0400
0800
0BFE
1080
1080
30FC
3104
5104
1108
1108
13F8
1208
1008
1008
1FFF
1000
0000
ENDCHAR

STARTCHAR cns4_222E
ENCODING 8750
SWIDTH 854 0
DWIDTH 16 0
BBX 16 18 0 -2
BITMAP
0000
0800
13FF
1200
3206
3204
5288
5248
1230
1210
1228
124C
1284
1300
1200
13FF
1200
0000
ENDCHAR

STARTCHAR cns4_222F
ENCODING 8751
SWIDTH 854 0
DWIDTH 16 0
BBX 16 18 0 -2
BITMAP
0000
0400
0800
0BFE
1202
1202
3202
3242
5222
1232
1212
1202
1202
1202
13FE
1202
1202
0000
ENDCHAR

STARTCHAR cns4_2230
ENCODING 8752
SWIDTH 854 0
DWIDTH 16 0
BBX 16 18 0 -2
BITMAP
0000
0820
0820
0820
103E
1020
3020
3020
53FC
1104
1088
1088
1050
1020
1050
118C
1603
0000
ENDCHAR

STARTCHAR cns4_2231
ENCODING 8753
SWIDTH 854 0
DWIDTH 16 0
BBX 16 18 0 -2
BITMAP
0000
0A20
1230
1220
2420
2420
6C20
2C20
3430
2450
2450
2448
2488
2484
2486
2503
2600
0000
ENDCHAR

STARTCHAR cns4_2232
ENCODING 8754
SWIDTH 854 0
DWIDTH 16 0
BBX 16 18 0 -2
BITMAP
0000
0440
0440
0440
7C7C
4444
4444
4444
4444
7C7C
4444
0840
0840
1041
1041
2041
407F
0000
ENDCHAR

STARTCHAR cns4_2233
ENCODING 8755
SWIDTH 854 0
DWIDTH 16 0
BBX 16 18 0 -2
BITMAP
0000
0000
0FFC
0800
0800
0FF8
0800
0800
7FFF
0000
0420
0420
0420
0821
0821
1021
203F
0000
ENDCHAR

STARTCHAR cns4_2234
ENCODING 8756
SWIDTH 854 0
DWIDTH 16 0
BBX 16 18 0 -2
BITMAP
0000
0000
04F0
0410
080C
3003
5FFC
0080
0080
0080
3FFE
0180
0140
0240
0220
0C18
3006
0000
ENDCHAR

STARTCHAR cns4_2235
ENCODING 8757
SWIDTH 854 0
DWIDTH 16 0
BBX 16 18 0 -2
BITMAP
0000
0000
08E0
0810
110C
2103
4100
3FFC
2104
2104
3FFC
2104
0100
0100
0100
0100
0100
0000
ENDCHAR

STARTCHAR cns4_2236
ENCODING 8758
SWIDTH 854 0
DWIDTH 16 0
BBX 16 18 0 -2
BITMAP
0000
0000
0FF0
0810
09F0
0910
0910
0910
7FFE
4002
4002
4002
4002
4002
4002
4002
400E
0000
ENDCHAR

STARTCHAR cns4_2237
ENCODING 8759
SWIDTH 854 0
DWIDTH 16 0
BBX 16 18 0 -2
BITMAP
0000
2000
3FFF
4002
4004
08E0
0820
1010
1010
2008
4406
0400
0820
0810
1008
3FFC
0004
0000
ENDCHAR

STARTCHAR cns4_2238
ENCODING 8760
SWIDTH 854 0
DWIDTH 16 0
BBX 16 18 0 -2
BITMAP
0000
0000
0040
4020
2010
1100
0900
0100
1104
1302
3302
2501
6505
2904
2104
31FC
3000
0000
ENDCHAR

STARTCHAR cns4_2239
ENCODING 8761
SWIDTH 854 0
DWIDTH 16 0
BBX 16 18 0 -2
BITMAP
0000
0402
0402
0412
7FD2
0412
0412
0412
7F92
1112
1112
0A12
0E12
0402
0602
1902
608E
0000
ENDCHAR

STARTCHAR cns4_223A
ENCODING 8762
SWIDTH 854 0
DWIDTH 16 0
BBX 16 18 0 -2
BITMAP
0000
0402
0412
0412
7FD2
0412
3F92
2492
2492
2492
2492
2492
2492
2482
2582
0402
040E
0000
ENDCHAR

STARTCHAR cns4_223B
ENCODING 8763
SWIDTH 854 0
DWIDTH 16 0
BBX 16 18 0 -2
BITMAP
0000
1702
1112
1112
2112
2112
4092
0092
7F52
1112
1112
1112
1112
2102
2102
4202
0E0E
0000
ENDCHAR

STARTCHAR cns4_223C
ENCODING 8764
SWIDTH 854 0
DWIDTH 16 0
BBX 16 18 0 -2
BITMAP
0000
1102
1102
1112
1112
7FD2
1112
1112
1112
1112
7FF2
1112
2112
2102
2102
4102
011E
0000
ENDCHAR

STARTCHAR cns4_223D
ENCODING 8765
SWIDTH 854 0
DWIDTH 16 0
BBX 16 18 0 -2
BITMAP
0000
0002
0192
3212
0C12
1312
6192
0192
0112
2212
1212
0C12
0412
0A02
1302
218E
40C0
0000
ENDCHAR

STARTCHAR cns4_223E
ENCODING 8766
SWIDTH 854 0
DWIDTH 16 0
BBX 16 18 0 -2
BITMAP
0000
0802
0802
0822
7FA2
0822
0822
7FA2
0822
0822
7FA2
1022
1022
1022
2002
2002
400E
0000
ENDCHAR

STARTCHAR cns4_223F
ENCODING 8767
SWIDTH 854 0
DWIDTH 16 0
BBX 16 18 0 -2
BITMAP
0000
0820
0820
0820
7F20
00FE
3C22
2422
2422
2442
2442
2442
2442
2484
4484
453C
0780
0000
ENDCHAR

STARTCHAR cns4_2240
ENCODING 8768
SWIDTH 854 0
DWIDTH 16 0
BBX 16 18 0 -2
BITMAP
0000
2010
2010
2010
7F90
407E
5F12
0012
3E12
0212
0422
0822
1022
2022
4122
414E
3F40
0000
ENDCHAR

STARTCHAR cns4_2241
ENCODING 8769
SWIDTH 854 0
DWIDTH 16 0
BBX 16 18 0 -2
BITMAP
0000
0610
1810
6810
0810
08FF
7F11
0811
0811
7F11
0821
0821
0822
0842
0842
0882
391C
0000
ENDCHAR

STARTCHAR cns4_2242
ENCODING 8770
SWIDTH 854 0
DWIDTH 16 0
BBX 16 18 0 -2
BITMAP
0000
0610
3810
2010
2010
207E
3F12
2412
2412
2412
2422
2422
2422
4442
4484
4484
0518
0000
ENDCHAR

STARTCHAR cns4_2243
ENCODING 8771
SWIDTH 854 0
DWIDTH 16 0
BBX 16 18 0 -2
BITMAP
0000
0000
3FFF
2000
2270
2610
2408
280C
2906
3102
2220
2210
2408
27FC
2004
3FFF
2000
0000
ENDCHAR

STARTCHAR cns4_2244
ENCODING 8772
SWIDTH 854 0
DWIDTH 16 0
BBX 16 18 0 -2
BITMAP
0000
0080
0080
0080
7FFF
0080
0888
0888
7FFF
0888
0888
0888
0888
0080
0080
0080
0080
0000
ENDCHAR

STARTCHAR cns4_2245
ENCODING 8773
SWIDTH 854 0
DWIDTH 16 0
BBX 16 18 0 -2
BITMAP
0000
0000
0E1C
78F0
0810
0810
0810
0810
7EFE
0810
0810
0810
0810
1010
1010
1010
2010
0000
ENDCHAR

STARTCHAR cns4_2246
ENCODING 8774
SWIDTH 854 0
DWIDTH 16 0
BBX 16 18 0 -2
BITMAP
0000
2400
243E
2422
2422
2422
2422
3FA2
2422
2422
2422
2422
24A2
24A2
34AE
47A0
0020
0000
ENDCHAR

STARTCHAR cns4_2247
ENCODING 8775
SWIDTH 854 0
DWIDTH 16 0
BBX 16 18 0 -2
BITMAP
0000
0000
3FFF
20C0
2140
2120
2210
2408
2A26
3221
2220
2220
2220
4420
4420
4820
1020
0000
ENDCHAR

STARTCHAR cns4_2248
ENCODING 8776
SWIDTH 854 0
DWIDTH 16 0
BBX 16 18 0 -2
BITMAP
0000
0100
0200
0200
0410
0408
0804
1FFA
0002
1010
1010
1010
2020
2424
4242
7F7F
0101
0000
ENDCHAR

STARTCHAR cns4_2249
ENCODING 8777
SWIDTH 854 0
DWIDTH 16 0
BBX 16 18 0 -2
BITMAP
0000
0000
1818
0660
03C0
0660
1818
7FFE
0400
0980
0900
1200
2210
4408
0804
3FFE
0002
0000
ENDCHAR

STARTCHAR cns4_224A
ENCODING 8778
SWIDTH 854 0
DWIDTH 16 0
BBX 16 18 0 -2
BITMAP
0000
0810
0810
1010
1420
2424
2242
7E7E
0101
07E0
0420
0420
0821
0821
1021
203F
4000
0000
ENDCHAR

STARTCHAR cns4_224B
ENCODING 8779
SWIDTH 854 0
DWIDTH 16 0
BBX 16 18 0 -2
BITMAP
0000
003C
7FE0
1108
1108
1110
0020
3FF8
0808
0810
0420
0240
0180
0380
0460
181C
6003
0000
ENDCHAR

STARTCHAR cns4_224C
ENCODING 8780
SWIDTH 854 0
DWIDTH 16 0
BBX 16 18 0 -2
BITMAP
0000
0080
0080
7FFF
1000
1000
1000
1000
1000
1FFE
0000
1FF8
1008
1008
1008
1FF8
1008
0000
ENDCHAR

STARTCHAR cns4_224D
ENCODING 8781
SWIDTH 854 0
DWIDTH 16 0
BBX 16 18 0 -2
BITMAP
0000
0000
7FF8
0008
0008
3FF8
2008
2002
2002
3FFE
0000
3FF8
2008
2008
2008
3FF8
2008
0000
ENDCHAR

STARTCHAR cns4_224E
ENCODING 8782
SWIDTH 854 0
DWIDTH 16 0
BBX 16 18 0 -2
BITMAP
0000
0000
7FFF
0100
0180
0160
0110
0100
0100
0100
1FF8
1008
1008
1008
1008
1FF8
1008
0000
ENDCHAR

STARTCHAR cns4_224F
ENCODING 8783
SWIDTH 854 0
DWIDTH 16 0
BBX 16 18 0 -2
BITMAP
0000
0100
0100
0100
01FC
0100
0100
0100
7FFF
0000
1FF8
1008
1008
1008
1008
1FF8
1008
0000
ENDCHAR

STARTCHAR cns4_2250
ENCODING 8784
SWIDTH 854 0
DWIDTH 16 0
BBX 16 18 0 -2
BITMAP
0000
0000
01FC
7800
4800
4800
4FFF
4880
4880
49FC
4904
7A04
4804
4004
0008
0008
0070
0000
ENDCHAR

STARTCHAR cns4_2251
ENCODING 8785
SWIDTH 854 0
DWIDTH 16 0
BBX 16 18 0 -2
BITMAP
0000
0004
101C
1070
13C0
1040
7E40
1040
105C
13E0
1040
1040
1E40
6041
0041
0041
003F
0000
ENDCHAR

STARTCHAR cns4_2252
ENCODING 8786
SWIDTH 854 0
DWIDTH 16 0
BBX 16 18 0 -2
BITMAP
0000
0000
1FF8
0008
0FF8
0008
7FFF
0200
0200
07FC
0C04
1808
2610
4160
0180
0600
3800
0000
ENDCHAR

STARTCHAR cns4_2253
ENCODING 8787
SWIDTH 854 0
DWIDTH 16 0
BBX 16 18 0 -2
BITMAP
0000
0100
0100
7FFF
0220
0410
0808
3086
4083
0080
0890
1088
1084
2086
4082
0080
0380
0000
ENDCHAR

STARTCHAR cns4_2254
ENCODING 8788
SWIDTH 854 0
DWIDTH 16 0
BBX 16 18 0 -2
BITMAP
0000
0100
0120
0A20
0C40
0280
0108
0204
3FFC
0100
7FFE
0180
0340
0240
0420
1818
6006
0000
ENDCHAR

STARTCHAR cns4_2255
ENCODING 8789
SWIDTH 854 0
DWIDTH 16 0
BBX 16 18 0 -2
BITMAP
0000
1010
1010
23FF
2200
7E00
2A00
2A00
4A00
5200
5200
5200
6200
3200
4A00
4400
0400
0000
ENDCHAR

STARTCHAR cns4_2256
ENCODING 8790
SWIDTH 854 0
DWIDTH 16 0
BBX 16 18 0 -2
BITMAP
0000
1000
11FE
2020
7C20
2420
2420
4420
47FF
4820
4820
5020
3820
1420
2220
4220
00E0
0000
ENDCHAR

STARTCHAR cns4_2257
ENCODING 8791
SWIDTH 854 0
DWIDTH 16 0
BBX 16 18 0 -2
BITMAP
0000
1000
1020
1020
2020
7C40
2448
2498
4490
4910
4A20
6820
1040
1844
2482
43FD
0001
0000
ENDCHAR

STARTCHAR cns4_2258
ENCODING 8792
SWIDTH 854 0
DWIDTH 16 0
BBX 16 18 0 -2
BITMAP
0000
1010
1010
2020
3F20
22FF
2224
4244
4444
04C4
04A8
0818
0C66
1381
2101
40C0
003F
0000
ENDCHAR

STARTCHAR cns4_2259
ENCODING 8793
SWIDTH 854 0
DWIDTH 16 0
BBX 16 18 0 -2
BITMAP
0000
1000
13FF
1048
7E48
2448
2448
2448
4448
4848
4848
7888
1888
1488
2508
4108
0208
0000
ENDCHAR

STARTCHAR cns4_225A
ENCODING 8794
SWIDTH 854 0
DWIDTH 16 0
BBX 16 18 0 -2
BITMAP
0000
0100
0100
7FFF
4001
5FFD
0800
0800
1FFC
1004
2008
2008
4008
0008
0008
0010
0070
0000
ENDCHAR

STARTCHAR cns4_225B
ENCODING 8795
SWIDTH 854 0
DWIDTH 16 0
BBX 16 18 0 -2
BITMAP
0000
0080
2080
3FFF
4001
4202
0200
0400
07F0
0410
0810
0810
1FE0
1020
0020
7FFF
0000
0000
ENDCHAR

STARTCHAR cns4_225C
ENCODING 8796
SWIDTH 854 0
DWIDTH 16 0
BBX 16 18 0 -2
BITMAP
0000
0080
0080
0080
00FC
0080
0080
7FFF
0080
0080
0890
1888
2084
4086
0082
0080
0380
0000
ENDCHAR

STARTCHAR cns4_225D
ENCODING 8797
SWIDTH 854 0
DWIDTH 16 0
BBX 16 18 0 -2
BITMAP
0000
1000
10FE
1010
7F10
1410
15FF
1410
2410
2410
2410
2410
4410
4410
4471
0401
07FF
0000
ENDCHAR

STARTCHAR cns4_225E
ENCODING 8798
SWIDTH 854 0
DWIDTH 16 0
BBX 16 18 0 -2
BITMAP
0000
0000
3FFC
2004
2004
3FFC
2004
2000
2FFC
2804
2804
2804
2804
2804
4FFC
4804
4804
0000
ENDCHAR

STARTCHAR cns4_225F
ENCODING 8799
SWIDTH 854 0
DWIDTH 16 0
BBX 16 18 0 -2
BITMAP
0000
100C
0810
0820
7FFF
0080
2084
2084
2084
2104
3FFC
2104
2104
0200
0200
0400
0800
0000
ENDCHAR

STARTCHAR cns4_2260
ENCODING 8800
SWIDTH 854 0
DWIDTH 16 0
BBX 16 18 0 -2
BITMAP
0000
0000
11FE
1010
5410
5410
5410
57FF
5410
5410
5410
5410
7C10
4410
0010
0010
0010
0000
ENDCHAR

STARTCHAR cns4_2261
ENCODING 8801
SWIDTH 854 0
DWIDTH 16 0
BBX 16 18 0 -2
BITMAP
0000
0100
2108
2108
3FF8
2008
0FE0
0820
0820
0820
0A20
0920
0920
1021
1021
2021
403F
0000
ENDCHAR

STARTCHAR cns4_2262
ENCODING 8802
SWIDTH 854 0
DWIDTH 16 0
BBX 16 18 0 -2
BITMAP
0000
0884
0888
1110
2218
1104
0880
1FF8
1008
1008
1FF8
1008
1008
1008
1008
1008
1038
0000
ENDCHAR

STARTCHAR cns4_2263
ENCODING 8803
SWIDTH 854 0
DWIDTH 16 0
BBX 16 18 0 -2
BITMAP
0000
0000
01FC
7E44
1044
1044
11C4
1064
1054
1044
1044
1644
1882
6082
0102
0101
0000
0000
ENDCHAR

STARTCHAR cns4_2264
ENCODING 8804
SWIDTH 854 0
DWIDTH 16 0
BBX 16 18 0 -2
BITMAP
0000
1000
11FE
1010
7C10
5410
5410
57FF
5410
5410
5410
5410
5410
5C10
1010
1010
1010
0000
ENDCHAR

STARTCHAR cns4_2265
ENCODING 8805
SWIDTH 854 0
DWIDTH 16 0
BBX 16 18 0 -2
BITMAP
0000
1000
11FE
1022
7C22
5422
54A2
5462
5422
5442
5442
5442
5C82
5084
1104
1218
0000
0000
ENDCHAR

STARTCHAR cns4_2266
ENCODING 8806
SWIDTH 854 0
DWIDTH 16 0
BBX 16 18 0 -2
BITMAP
0000
0080
7FFE
1000
1000
1000
1FFE
0080
0080
1FFC
1084
1084
1084
1084
10BC
0080
0080
0000
ENDCHAR

STARTCHAR cns4_2267
ENCODING 8807
SWIDTH 854 0
DWIDTH 16 0
BBX 16 18 0 -2
BITMAP
0000
0000
0810
0810
1020
1220
1224
2444
2448
4888
78F0
0810
1020
1424
2242
7F7E
0101
0000
ENDCHAR

STARTCHAR cns4_2268
ENCODING 8808
SWIDTH 854 0
DWIDTH 16 0
BBX 16 18 0 -2
BITMAP
0000
0040
0040
1FFF
1000
1000
1FFE
1080
1080
10A0
1098
1080
2080
2080
2080
2080
4080
0000
ENDCHAR

STARTCHAR cns4_2269
ENCODING 8809
SWIDTH 854 0
DWIDTH 16 0
BBX 16 18 0 -2
BITMAP
0000
0040
0040
1FFF
1000
1000
17FC
1404
1404
1404
1404
2404
2404
2404
27FC
4404
4000
0000
ENDCHAR

STARTCHAR cns4_226A
ENCODING 8810
SWIDTH 854 0
DWIDTH 16 0
BBX 16 18 0 -2
BITMAP
0000
7800
0BFE
0820
0820
7820
4820
43FF
4020
7820
4820
0820
0820
0820
0820
0820
7020
0000
ENDCHAR

STARTCHAR cns4_226B
ENCODING 8811
SWIDTH 854 0
DWIDTH 16 0
BBX 16 18 0 -2
BITMAP
0000
7800
0BFE
0820
0820
7820
4820
43FF
4020
7820
0820
0820
0820
0820
0820
1020
70E0
0000
ENDCHAR

STARTCHAR cns4_226C
ENCODING 8812
SWIDTH 854 0
DWIDTH 16 0
BBX 16 18 0 -2
BITMAP
0000
7E7E
0202
0202
0202
7E7E
4242
4040
4040
7E7E
4242
0202
0202
0202
0404
0404
3838
0000
ENDCHAR

STARTCHAR cns4_226D
ENCODING 8813
SWIDTH 854 0
DWIDTH 16 0
BBX 16 18 0 -2
BITMAP
0000
1020
2020
2220
4A20
122E
12F2
2F22
6222
2222
2224
2224
2228
2221
2201
2201
23FE
0000
ENDCHAR

STARTCHAR cns4_226E
ENCODING 8814
SWIDTH 854 0
DWIDTH 16 0
BBX 16 18 0 -2
BITMAP
0000
1040
2040
2040
4440
0C40
1840
17FE
3040
5040
1040
1040
1040
1040
1040
1FFF
1000
0000
ENDCHAR

STARTCHAR cns4_226F
ENCODING 8815
SWIDTH 854 0
DWIDTH 16 0
BBX 16 18 0 -2
BITMAP
0000
0000
7FFC
0104
0104
0204
0204
0408
0808
1870
6100
04C4
2444
2402
440A
4408
03F8
0000
ENDCHAR

STARTCHAR cns4_2270
ENCODING 8816
SWIDTH 854 0
DWIDTH 16 0
BBX 16 18 0 -2
BITMAP
0000
1040
1040
1080
10FE
5902
5502
5402
50C2
1022
1022
1002
1002
1002
1002
1002
101C
0000
ENDCHAR

STARTCHAR cns4_2271
ENCODING 8817
SWIDTH 854 0
DWIDTH 16 0
BBX 16 18 0 -2
BITMAP
0000
0000
1FF8
0000
0000
0000
0000
7FFE
0000
0000
0904
28C2
4842
4801
0809
0808
07F8
0000
ENDCHAR

STARTCHAR cns4_2272
ENCODING 8818
SWIDTH 854 0
DWIDTH 16 0
BBX 16 18 0 -2
BITMAP
0000
0420
0428
7FA4
0424
0420
7FFF
0010
0012
0014
0014
0018
0008
0018
0025
00C5
0303
0000
ENDCHAR

STARTCHAR cns4_2273
ENCODING 8819
SWIDTH 854 0
DWIDTH 16 0
BBX 16 18 0 -2
BITMAP
0000
1000
10FE
1082
1082
7E82
1082
1082
10FE
1682
1882
7082
1082
1082
1082
1082
708E
0000
ENDCHAR

STARTCHAR cns4_2274
ENCODING 8820
SWIDTH 854 0
DWIDTH 16 0
BBX 16 18 0 -2
BITMAP
0000
1010
1010
1010
7DFE
1112
1112
1112
1512
1912
7112
1112
1112
1116
1010
7010
0010
0000
ENDCHAR

STARTCHAR cns4_2275
ENCODING 8821
SWIDTH 854 0
DWIDTH 16 0
BBX 16 18 0 -2
BITMAP
0000
10FE
1002
1002
1002
7EFE
1082
1080
1080
16FE
1882
7002
1002
1002
1004
1004
7038
0000
ENDCHAR

STARTCHAR cns4_2276
ENCODING 8822
SWIDTH 854 0
DWIDTH 16 0
BBX 16 18 0 -2
BITMAP
0000
1008
1008
1008
1008
7DFF
1008
1008
1008
1688
1848
7048
1008
1008
1008
1008
7038
0000
ENDCHAR

STARTCHAR cns4_2277
ENCODING 8823
SWIDTH 854 0
DWIDTH 16 0
BBX 16 18 0 -2
BITMAP
0000
4020
4020
4020
43FF
4020
4020
7C20
43FC
4084
4088
4048
4050
4C20
7050
418C
0603
0000
ENDCHAR

STARTCHAR cns4_2278
ENCODING 8824
SWIDTH 854 0
DWIDTH 16 0
BBX 16 18 0 -2
BITMAP
0000
0000
1FF8
1008
1008
1FF8
1008
1008
1FF8
1000
1000
1030
1FF8
1002
1002
1002
0FFC
0000
ENDCHAR

STARTCHAR cns4_2279
ENCODING 8825
SWIDTH 854 0
DWIDTH 16 0
BBX 16 18 0 -2
BITMAP
0000
0020
0020
7820
4820
4BFE
4822
7822
4822
4842
4842
4842
7882
4882
4104
0204
0C18
0000
ENDCHAR

STARTCHAR cns4_227A
ENCODING 8826
SWIDTH 854 0
DWIDTH 16 0
BBX 16 18 0 -2
BITMAP
0000
0802
0822
0822
0822
7F22
0822
0822
1C22
1A22
2922
2822
4822
0802
0802
0802
080E
0000
ENDCHAR

STARTCHAR cns4_227B
ENCODING 8827
SWIDTH 854 0
DWIDTH 16 0
BBX 16 18 0 -2
BITMAP
0000
1FF0
1010
1010
1010
1070
1002
1002
0FFC
0080
7FFF
01C0
02A0
0490
088C
3083
4080
0000
ENDCHAR

STARTCHAR cns4_227C
ENCODING 8828
SWIDTH 854 0
DWIDTH 16 0
BBX 16 18 0 -2
BITMAP
0000
0000
7DFF
2040
2040
3C40
2480
44FE
4482
4902
3802
0804
1004
1004
2004
4008
0018
0000
ENDCHAR

STARTCHAR cns4_227D
ENCODING 8829
SWIDTH 854 0
DWIDTH 16 0
BBX 16 18 0 -2
BITMAP
0000
0040
7E40
2040
2040
3C40
4440
4440
4460
48A0
38A0
0890
1110
1108
220C
4406
0803
0000
ENDCHAR

STARTCHAR cns4_227E
ENCODING 8830
SWIDTH 854 0
DWIDTH 16 0
BBX 16 18 0 -2
BITMAP
0000
0038
3FC0
0200
7FF8
0200
7FF8
0202
03FE
0440
0440
0440
0440
0840
0842
1042
607E
0000
ENDCHAR

STARTCHAR cns4_2321
ENCODING 8993
SWIDTH 854 0
DWIDTH 16 0
BBX 16 18 0 -2
BITMAP
0000
23F8
3E40
2040
3FFC
2040
2020
21A2
7E92
008E
0080
7FFF
0080
0080
0080
0080
0080
0000
ENDCHAR

STARTCHAR cns4_2322
ENCODING 8994
SWIDTH 854 0
DWIDTH 16 0
BBX 16 18 0 -2
BITMAP
0000
4000
27FE
0042
0042
0042
4142
20C2
0042
0042
1082
1084
2084
2104
2104
4238
4400
0000
ENDCHAR

STARTCHAR cns4_2323
ENCODING 8995
SWIDTH 854 0
DWIDTH 16 0
BBX 16 18 0 -2
BITMAP
0000
0008
2008
1810
0020
00C0
4B08
6808
1010
1060
1184
2204
6008
2010
2060
2180
2600
0000
ENDCHAR

STARTCHAR cns4_2324
ENCODING 8996
SWIDTH 854 0
DWIDTH 16 0
BBX 16 18 0 -2
BITMAP
0000
0000
3FE0
0420
047C
0404
0804
0804
313C
4100
1198
1160
2240
0620
0818
1807
6000
0000
ENDCHAR

STARTCHAR cns4_2325
ENCODING 8997
SWIDTH 854 0
DWIDTH 16 0
BBX 16 18 0 -2
BITMAP
0000
0100
0380
0280
0440
0820
1010
610C
0103
0108
1118
11A0
2280
0240
0C30
300C
4003
0000
ENDCHAR

STARTCHAR cns4_2326
ENCODING 8998
SWIDTH 854 0
DWIDTH 16 0
BBX 16 18 0 -2
BITMAP
0000
0802
2842
2842
2842
7E42
4842
0842
0842
0E42
1842
685E
09E2
0802
0802
0802
0802
0000
ENDCHAR

STARTCHAR cns4_2327
ENCODING 8999
SWIDTH 854 0
DWIDTH 16 0
BBX 16 18 0 -2
BITMAP
0000
4480
2880
3100
31FE
5202
1202
1402
1882
3842
6822
0802
0802
0802
0804
0804
381C
0000
ENDCHAR

STARTCHAR cns4_2328
ENCODING 9000
SWIDTH 854 0
DWIDTH 16 0
BBX 16 18 0 -2
BITMAP
0000
080C
4830
30C0
6340
1040
1040
1040
1FFF
2840
4840
0840
0840
0841
0841
307F
0000
0000
ENDCHAR

STARTCHAR cns4_2329
ENCODING 9001
SWIDTH 854 0
DWIDTH 16 0
BBX 16 18 0 -2
BITMAP
0000
0002
7E82
1082
1082
1082
1082
7C82
1082
1082
1082
168E
18F2
6002
0002
0002
0002
0000
ENDCHAR

STARTCHAR cns4_232A
ENCODING 9002
SWIDTH 854 0
DWIDTH 16 0
BBX 16 18 0 -2
BITMAP
0000
0000
7E78
1008
1088
1088
1088
1088
3C88
1104
1104
1104
1704
1A02
6202
0402
0001
0000
ENDCHAR

STARTCHAR cns4_232B
ENCODING 9003
SWIDTH 854 0
DWIDTH 16 0
BBX 16 18 0 -2
BITMAP
0000
0180
0200
0C00
7FFC
4104
4104
4104
4104
7FFC
4104
4104
4104
4104
7FFC
4004
4004
0000
ENDCHAR

STARTCHAR cns4_232C
ENCODING 9004
SWIDTH 854 0
DWIDTH 16 0
BBX 16 18 0 -2
BITMAP
0000
0010
0810
0410
0220
7FFE
0080
0080
0080
0080
1FFC
0080
0080
0080
0080
7FFF
0000
0000
ENDCHAR

STARTCHAR cns4_232D
ENCODING 9005
SWIDTH 854 0
DWIDTH 16 0
BBX 16 18 0 -2
BITMAP
0000
0440
0840
0820
1010
200C
4003
1FF0
1010
1310
10D0
1010
11D0
1610
1010
1010
1070
0000
ENDCHAR

STARTCHAR cns4_232E
ENCODING 9006
SWIDTH 854 0
DWIDTH 16 0
BBX 16 18 0 -2
BITMAP
0000
1010
7FFE
1010
1000
0010
1010
1010
1010
1010
1010
1FF0
1010
0010
0010
0010
0010
0000
ENDCHAR

STARTCHAR cns4_232F
ENCODING 9007
SWIDTH 854 0
DWIDTH 16 0
BBX 16 18 0 -2
BITMAP
0000
0810
0810
7FFF
0810
0810
07E0
0420
0420
0420
0420
0420
0820
0820
1022
2022
401E
0000
ENDCHAR

STARTCHAR cns4_2330
ENCODING 9008
SWIDTH 854 0
DWIDTH 16 0
BBX 16 18 0 -2
BITMAP
0000
4000
33FC
1084
0088
7890
089E
1082
2082
7902
0902
1202
1202
1C0E
2000
5800
07FF
0000
ENDCHAR

STARTCHAR cns4_2331
ENCODING 9009
SWIDTH 854 0
DWIDTH 16 0
BBX 16 18 0 -2
BITMAP
0000
0800
087E
0842
7F44
0848
0850
0850
0B48
1C44
6842
0842
0842
0842
085C
0840
3840
0000
ENDCHAR

STARTCHAR cns4_2332
ENCODING 9010
SWIDTH 854 0
DWIDTH 16 0
BBX 16 18 0 -2
BITMAP
0000
0300
0C3E
3822
0822
0824
0828
0828
7FA4
0822
0822
0821
0821
0821
082E
0820
0820
0000
ENDCHAR

STARTCHAR cns4_2333
ENCODING 9011
SWIDTH 854 0
DWIDTH 16 0
BBX 16 18 0 -2
BITMAP
0000
0800
107C
1044
2044
2448
4848
2850
1048
1244
2244
7C42
0442
0842
085C
1040
6040
0000
ENDCHAR

STARTCHAR cns4_2334
ENCODING 9012
SWIDTH 854 0
DWIDTH 16 0
BBX 16 18 0 -2
BITMAP
0000
7C00
45FE
4820
4820
5020
5020
4BFF
4820
4420
4420
4820
7020
4020
4020
4020
4020
0000
ENDCHAR

STARTCHAR cns4_2335
ENCODING 9013
SWIDTH 854 0
DWIDTH 16 0
BBX 16 18 0 -2
BITMAP
0000
0000
7FFF
0240
0240
3E7E
2242
2242
2242
3E7E
2242
0240
0240
0440
0440
0840
3040
0000
ENDCHAR

STARTCHAR cns4_2336
ENCODING 9014
SWIDTH 854 0
DWIDTH 16 0
BBX 16 18 0 -2
BITMAP
0000
0420
0420
0420
7FE0
0420
0420
0420
3FA0
0020
3FA0
20A0
20A0
20A1
3FA1
20BF
0000
0000
ENDCHAR

STARTCHAR cns4_2337
ENCODING 9015
SWIDTH 854 0
DWIDTH 16 0
BBX 16 18 0 -2
BITMAP
0000
0100
0100
7FFE
0200
0410
0808
1FFC
0004
0910
0910
0910
0910
1111
1111
2111
411F
0000
ENDCHAR

STARTCHAR cns4_2338
ENCODING 9016
SWIDTH 854 0
DWIDTH 16 0
BBX 16 18 0 -2
BITMAP
0000
0840
0840
0840
1FFE
1040
3040
3040
57FC
1040
10C0
1160
1250
1C4C
1043
1040
1040
0000
ENDCHAR

STARTCHAR cns4_2339
ENCODING 9017
SWIDTH 854 0
DWIDTH 16 0
BBX 16 18 0 -2
BITMAP
0000
1200
1200
127E
2222
24A2
2FA2
64A2
24A2
24A2
2914
2914
2918
2608
2218
2524
3843
0000
ENDCHAR

STARTCHAR cns4_233A
ENCODING 9018
SWIDTH 854 0
DWIDTH 16 0
BBX 16 18 0 -2
BITMAP
0000
0180
0280
0440
0830
3008
7FFE
1108
1FF8
1108
1FF8
1108
0100
0100
0100
0100
0100
0000
ENDCHAR

STARTCHAR cns4_233B
ENCODING 9019
SWIDTH 854 0
DWIDTH 16 0
BBX 16 18 0 -2
BITMAP
0000
000C
20F0
3F00
2100
21FC
2100
2100
3FFE
2000
2220
2220
4220
4422
4422
083E
1000
0000
ENDCHAR

STARTCHAR cns4_233C
ENCODING 9020
SWIDTH 854 0
DWIDTH 16 0
BBX 16 18 0 -2
BITMAP
0000
0000
43FE
2222
2222
0BFE
1222
1222
1222
23FE
2222
6020
2020
2020
2020
0020
0020
0000
ENDCHAR

STARTCHAR cns4_233D
ENCODING 9021
SWIDTH 854 0
DWIDTH 16 0
BBX 16 18 0 -2
BITMAP
0000
03FC
4204
2204
23FC
0A24
0A20
1220
13FF
2220
2220
6210
2210
2209
22C9
2305
0C03
0000
ENDCHAR

STARTCHAR cns4_233E
ENCODING 9022
SWIDTH 854 0
DWIDTH 16 0
BBX 16 18 0 -2
BITMAP
0000
0202
0202
0202
1FE2
1222
1252
1212
1FD2
1052
1092
1C92
1702
1182
2242
2422
580E
0000
ENDCHAR

STARTCHAR cns4_233F
ENCODING 9023
SWIDTH 854 0
DWIDTH 16 0
BBX 16 18 0 -2
BITMAP
0000
0802
0812
0812
0812
0F92
0812
0812
0812
7F92
4092
4092
4092
4082
4082
7F82
408E
0000
ENDCHAR

STARTCHAR cns4_2340
ENCODING 9024
SWIDTH 854 0
DWIDTH 16 0
BBX 16 18 0 -2
BITMAP
0000
0002
0C12
1612
1312
2192
5F52
0012
0012
7F92
0192
0312
0612
3402
1802
0E02
060E
0000
ENDCHAR

STARTCHAR cns4_2341
ENCODING 9025
SWIDTH 854 0
DWIDTH 16 0
BBX 16 18 0 -2
BITMAP
0000
2002
2002
2012
7F92
4092
4092
3C92
2492
2492
2492
3C92
2512
2102
0102
0202
0C0E
0000
ENDCHAR

STARTCHAR cns4_2342
ENCODING 9026
SWIDTH 854 0
DWIDTH 16 0
BBX 16 18 0 -2
BITMAP
0000
01C2
3E92
2492
2492
2492
2492
2492
2492
2492
2492
2492
2492
4442
4542
5F22
008E
0000
ENDCHAR

STARTCHAR cns4_2343
ENCODING 9027
SWIDTH 854 0
DWIDTH 16 0
BBX 16 18 0 -2
BITMAP
0000
0402
0402
0412
3FD2
0412
0412
0412
7FF2
0E12
0D12
1512
1492
2482
4442
0402
040E
0000
ENDCHAR

STARTCHAR cns4_2344
ENCODING 9028
SWIDTH 854 0
DWIDTH 16 0
BBX 16 18 0 -2
BITMAP
0000
1410
1410
7F10
1510
157E
7F12
5512
5412
5412
7F22
5522
1522
1542
2744
2484
4418
0000
ENDCHAR

STARTCHAR cns4_2345
ENCODING 9029
SWIDTH 854 0
DWIDTH 16 0
BBX 16 18 0 -2
BITMAP
0000
1020
1020
1020
11FF
7E40
1240
1240
1240
12FE
2290
2290
2310
2210
4410
45FF
1800
0000
ENDCHAR

STARTCHAR cns4_2346
ENCODING 9030
SWIDTH 854 0
DWIDTH 16 0
BBX 16 18 0 -2
BITMAP
0000
0020
7F20
1020
1020
21FF
2021
3E21
5221
5221
1241
1241
1241
1E81
1282
110C
0200
0000
ENDCHAR

STARTCHAR cns4_2347
ENCODING 9031
SWIDTH 854 0
DWIDTH 16 0
BBX 16 18 0 -2
BITMAP
0000
0020
1020
1020
1020
7CFE
4422
4422
4422
7C22
4442
4442
4444
7C84
4484
0138
0200
0000
ENDCHAR

STARTCHAR cns4_2348
ENCODING 9032
SWIDTH 854 0
DWIDTH 16 0
BBX 16 18 0 -2
BITMAP
0000
0008
3F88
2008
2008
3FBF
2009
2409
2409
3F89
2489
2491
2491
2891
48A1
50A1
23C6
0000
ENDCHAR

STARTCHAR cns4_2349
ENCODING 9033
SWIDTH 854 0
DWIDTH 16 0
BBX 16 18 0 -2
BITMAP
0000
0010
7E10
0210
2210
24FF
1C11
1A11
2911
4811
7F11
0821
0822
0842
0F42
7084
0318
0000
ENDCHAR

STARTCHAR cns4_234A
ENCODING 9034
SWIDTH 854 0
DWIDTH 16 0
BBX 16 18 0 -2
BITMAP
0000
0000
7FFE
4000
4FF8
4808
4808
4808
4FF8
4808
4240
4220
4C18
5006
7FFE
4000
0000
0000
ENDCHAR

STARTCHAR cns4_234B
ENCODING 9035
SWIDTH 854 0
DWIDTH 16 0
BBX 16 18 0 -2
BITMAP
0000
0000
7FFE
4240
4630
4C0C
5000
4000
4FF8
4808
4808
4808
4FF8
4808
4000
7FFF
4000
0000
ENDCHAR

STARTCHAR cns4_234C
ENCODING 9036
SWIDTH 854 0
DWIDTH 16 0
BBX 16 18 0 -2
BITMAP
0000
0020
7F20
1120
1120
2120
2120
4230
422C
0C26
7F20
4120
4120
4120
7F20
4120
4020
0000
ENDCHAR

STARTCHAR cns4_234D
ENCODING 9037
SWIDTH 854 0
DWIDTH 16 0
BBX 16 18 0 -2
BITMAP
0000
0100
01F8
0100
0100
3FFC
2004
2434
2424
2244
2184
2184
2344
2624
3814
3FFC
2004
0000
ENDCHAR

STARTCHAR cns4_234E
ENCODING 9038
SWIDTH 854 0
DWIDTH 16 0
BBX 16 18 0 -2
BITMAP
0000
1800
065F
0251
0891
0891
0911
0911
2A11
2A91
4C51
4831
1831
2897
4890
0F90
0010
0000
ENDCHAR

STARTCHAR cns4_234F
ENCODING 9039
SWIDTH 854 0
DWIDTH 16 0
BBX 16 18 0 -2
BITMAP
0000
0080
7FFF
0080
1FF8
1088
1088
1FF8
0080
3FF8
0408
0410
0220
0340
01C0
0638
3807
0000
ENDCHAR

STARTCHAR cns4_2350
ENCODING 9040
SWIDTH 854 0
DWIDTH 16 0
BBX 16 18 0 -2
BITMAP
0000
3FFC
2004
27C4
2444
27C4
2424
27E4
2004
2FF0
0410
0420
0220
01C0
0160
0E1C
7003
0000
ENDCHAR

STARTCHAR cns4_2351
ENCODING 9041
SWIDTH 854 0
DWIDTH 16 0
BBX 16 18 0 -2
BITMAP
0000
0040
0040
7840
4BFE
4A42
4A42
4850
4850
4890
4890
7890
4910
4110
0212
0412
081E
0000
ENDCHAR

STARTCHAR cns4_2352
ENCODING 9042
SWIDTH 854 0
DWIDTH 16 0
BBX 16 18 0 -2
BITMAP
0000
0000
03FF
0020
7820
49FE
4922
4922
4922
4922
4922
7922
4922
4122
012E
0120
0020
0000
ENDCHAR

STARTCHAR cns4_2353
ENCODING 9043
SWIDTH 854 0
DWIDTH 16 0
BBX 16 18 0 -2
BITMAP
0000
0008
0030
00C0
7B40
4844
4878
4FC0
4840
4846
49F8
7E40
4842
4042
0042
007E
0000
0000
ENDCHAR

STARTCHAR cns4_2354
ENCODING 9044
SWIDTH 854 0
DWIDTH 16 0
BBX 16 18 0 -2
BITMAP
0000
000E
0070
7BA0
4820
4820
4820
4BFF
4820
4830
4850
7848
4848
4084
0084
0102
0201
0000
ENDCHAR

STARTCHAR cns4_2355
ENCODING 9045
SWIDTH 854 0
DWIDTH 16 0
BBX 16 18 0 -2
BITMAP
0000
0040
0040
0080
79FE
4902
4A02
4A42
4842
4882
48A2
7912
4BF2
4012
0004
0004
0038
0000
ENDCHAR

STARTCHAR cns4_2356
ENCODING 9046
SWIDTH 854 0
DWIDTH 16 0
BBX 16 18 0 -2
BITMAP
0000
0000
00B8
7908
4904
4A04
4FFA
4880
4900
49F8
7A08
4A08
4008
0008
0008
0008
0038
0000
ENDCHAR

STARTCHAR cns4_2357
ENCODING 9047
SWIDTH 854 0
DWIDTH 16 0
BBX 16 18 0 -2
BITMAP
0000
000E
03F0
7A00
4BFF
4A02
4A02
4BFE
4A02
4A00
7A00
4A00
4400
0400
0400
0800
1000
0000
ENDCHAR

STARTCHAR cns4_2358
ENCODING 9048
SWIDTH 854 0
DWIDTH 16 0
BBX 16 18 0 -2
BITMAP
0000
0006
01F8
7900
4900
4900
49FC
4944
4944
4944
7948
4A28
4230
0230
0448
0586
0A00
0000
ENDCHAR

STARTCHAR cns4_2359
ENCODING 9049
SWIDTH 854 0
DWIDTH 16 0
BBX 16 18 0 -2
BITMAP
0000
0000
018C
7906
4A02
4A05
4D04
4908
4888
4890
4850
7820
4850
4050
0088
0104
0602
0000
ENDCHAR

STARTCHAR cns4_235A
ENCODING 9050
SWIDTH 854 0
DWIDTH 16 0
BBX 16 18 0 -2
BITMAP
0000
001C
13E0
1C80
1080
1FFE
1040
1020
1711
780D
0FF3
0810
0810
0810
0810
0FF0
0810
0000
ENDCHAR

STARTCHAR cns4_235B
ENCODING 9051
SWIDTH 854 0
DWIDTH 16 0
BBX 16 18 0 -2
BITMAP
0000
1FF8
1008
1008
1008
1008
1FF8
1008
0000
7FFE
0080
0080
3FFC
0080
0080
7FFF
0000
0000
ENDCHAR

STARTCHAR cns4_235C
ENCODING 9052
SWIDTH 854 0
DWIDTH 16 0
BBX 16 18 0 -2
BITMAP
0000
0000
01FE
7848
4848
4848
4848
4BFF
4848
4848
4848
7848
4888
4088
0108
0108
0208
0000
ENDCHAR

STARTCHAR cns4_235D
ENCODING 9053
SWIDTH 854 0
DWIDTH 16 0
BBX 16 18 0 -2
BITMAP
0000
0280
0480
0880
1880
68FE
0880
0881
08FF
0000
0FF8
0808
0808
0808
0808
0FF8
0808
0000
ENDCHAR

STARTCHAR cns4_235E
ENCODING 9054
SWIDTH 854 0
DWIDTH 16 0
BBX 16 18 0 -2
BITMAP
0000
1088
1088
1088
1088
13FF
7E88
1088
1088
1088
17FF
1088
1D08
6108
0208
0408
0808
0000
ENDCHAR

STARTCHAR cns4_235F
ENCODING 9055
SWIDTH 854 0
DWIDTH 16 0
BBX 16 18 0 -2
BITMAP
0000
1020
1020
1020
1020
11FE
7D22
1122
1132
1152
114A
1146
1D82
6102
0102
0102
010E
0000
ENDCHAR

STARTCHAR cns4_2360
ENCODING 9056
SWIDTH 854 0
DWIDTH 16 0
BBX 16 18 0 -2
BITMAP
0000
0000
3FF8
1080
1080
3FFC
2100
0240
0241
0441
187F
6080
0080
3FFC
0080
7FFE
0000
0000
ENDCHAR

STARTCHAR cns4_2361
ENCODING 9057
SWIDTH 854 0
DWIDTH 16 0
BBX 16 18 0 -2
BITMAP
0000
0000
7FFE
0000
1108
1108
2210
4630
2108
1084
0100
0100
7FFE
0100
0100
7FFF
0000
0000
ENDCHAR

STARTCHAR cns4_2362
ENCODING 9058
SWIDTH 854 0
DWIDTH 16 0
BBX 16 18 0 -2
BITMAP
0000
0100
0100
7FFF
0220
0410
0808
3006
7FF9
2108
2108
2108
3FF8
2008
2000
2002
1FFE
0000
ENDCHAR

STARTCHAR cns4_2363
ENCODING 9059
SWIDTH 854 0
DWIDTH 16 0
BBX 16 18 0 -2
BITMAP
0000
0100
0100
7FFF
0220
0420
0910
311C
7FF3
1110
1110
1110
1FF0
1110
0102
0102
01FE
0000
ENDCHAR

STARTCHAR cns4_2364
ENCODING 9060
SWIDTH 854 0
DWIDTH 16 0
BBX 16 18 0 -2
BITMAP
0000
0100
0100
7FFF
0240
0520
0998
3246
4421
0838
3426
4420
0420
0820
0820
1020
2020
0000
ENDCHAR

STARTCHAR cns4_2365
ENCODING 9061
SWIDTH 854 0
DWIDTH 16 0
BBX 16 18 0 -2
BITMAP
0000
0080
0080
0080
7FFF
0080
3090
0888
1494
22A2
0080
0140
0120
0210
0408
1806
6003
0000
ENDCHAR

STARTCHAR cns4_2366
ENCODING 9062
SWIDTH 854 0
DWIDTH 16 0
BBX 16 18 0 -2
BITMAP
0000
0100
0100
7FFF
0240
0420
1818
3FF7
4200
07E0
0420
0820
0FE0
1040
0040
7FFE
0000
0000
ENDCHAR

STARTCHAR cns4_2367
ENCODING 9063
SWIDTH 854 0
DWIDTH 16 0
BBX 16 18 0 -2
BITMAP
0000
2020
2020
2020
7C20
25FE
2420
4420
4820
4BFF
4830
3050
1848
2488
2284
4106
0203
0000
ENDCHAR

STARTCHAR cns4_2368
ENCODING 9064
SWIDTH 854 0
DWIDTH 16 0
BBX 16 18 0 -2
BITMAP
0000
0010
7E10
1220
13FF
1224
1224
1244
7FC4
1244
1284
22C8
22B8
220C
2212
7FA2
00C1
0000
ENDCHAR

STARTCHAR cns4_2369
ENCODING 9065
SWIDTH 854 0
DWIDTH 16 0
BBX 16 18 0 -2
BITMAP
0000
1000
10FE
2092
7C92
2492
2492
2492
44FE
4882
4880
7880
1880
1481
2481
4081
00FF
0000
ENDCHAR

STARTCHAR cns4_236A
ENCODING 9066
SWIDTH 854 0
DWIDTH 16 0
BBX 16 18 0 -2
BITMAP
0000
1010
1010
1010
1010
7EFF
1291
1291
2291
2491
24FF
3491
5810
0C10
1210
2110
0010
0000
ENDCHAR

STARTCHAR cns4_236B
ENCODING 9067
SWIDTH 854 0
DWIDTH 16 0
BBX 16 18 0 -2
BITMAP
0000
1000
107C
1044
1044
7E44
1284
2487
2500
25FE
4442
6824
1824
1418
1218
2066
4181
0000
ENDCHAR

STARTCHAR cns4_236C
ENCODING 9068
SWIDTH 854 0
DWIDTH 16 0
BBX 16 18 0 -2
BITMAP
0000
0018
1C60
0380
0E60
721C
7FFF
0400
0800
1FE0
2020
0040
7FFF
0080
0080
0080
0380
0000
ENDCHAR

STARTCHAR cns4_236D
ENCODING 9069
SWIDTH 854 0
DWIDTH 16 0
BBX 16 18 0 -2
BITMAP
0000
0000
7EFE
0202
0424
1818
1010
10FF
1611
3812
5014
1010
1010
1010
1010
1010
7070
0000
ENDCHAR

STARTCHAR cns4_236E
ENCODING 9070
SWIDTH 854 0
DWIDTH 16 0
BBX 16 18 0 -2
BITMAP
0000
0100
0100
7FFF
4001
0000
3FFE
0080
0080
08FC
0884
1084
1FFC
2004
0008
0008
0030
0000
ENDCHAR

STARTCHAR cns4_236F
ENCODING 9071
SWIDTH 854 0
DWIDTH 16 0
BBX 16 18 0 -2
BITMAP
0000
0100
4100
7FFF
4002
0104
0130
0110
7FFF
0180
0240
0240
0420
0420
0810
300C
4003
0000
ENDCHAR

STARTCHAR cns4_2370
ENCODING 9072
SWIDTH 854 0
DWIDTH 16 0
BBX 16 18 0 -2
BITMAP
0000
0080
2080
3FFF
4001
4182
0244
0460
0838
1427
6420
0420
0420
0820
0820
1020
2020
0000
ENDCHAR

STARTCHAR cns4_2371
ENCODING 9073
SWIDTH 854 0
DWIDTH 16 0
BBX 16 18 0 -2
BITMAP
0000
0000
3F08
0008
0008
0008
7FFF
1408
1448
1448
1448
1408
2408
2408
4439
4401
07FF
0000
ENDCHAR

STARTCHAR cns4_2372
ENCODING 9074
SWIDTH 854 0
DWIDTH 16 0
BBX 16 18 0 -2
BITMAP
0000
0080
0080
0890
0888
1088
1084
2382
4100
0100
2108
1910
0AA0
0240
0420
1818
6006
0000
ENDCHAR

STARTCHAR cns4_2373
ENCODING 9075
SWIDTH 854 0
DWIDTH 16 0
BBX 16 18 0 -2
BITMAP
0000
1000
1010
1010
7F10
24FF
2410
2438
2454
2454
2492
2491
4510
4411
4411
07FF
0000
0000
ENDCHAR

STARTCHAR cns4_2374
ENCODING 9076
SWIDTH 854 0
DWIDTH 16 0
BBX 16 18 0 -2
BITMAP
0000
1000
1010
1010
7F10
2413
25D4
2458
2458
2454
2494
2492
2511
4610
4431
4401
07FF
0000
ENDCHAR

STARTCHAR cns4_2375
ENCODING 9077
SWIDTH 854 0
DWIDTH 16 0
BBX 16 18 0 -2
BITMAP
0000
0100
2104
2104
2104
3FFC
2204
0C00
3100
7FFE
0000
0000
0820
0818
100C
3004
6002
0000
ENDCHAR

STARTCHAR cns4_2376
ENCODING 9078
SWIDTH 854 0
DWIDTH 16 0
BBX 16 18 0 -2
BITMAP
0000
0100
2104
2104
2104
3FFC
2204
0C00
7FFE
0080
0080
3FFC
0080
0080
0080
7FFF
0000
0000
ENDCHAR

STARTCHAR cns4_2377
ENCODING 9079
SWIDTH 854 0
DWIDTH 16 0
BBX 16 18 0 -2
BITMAP
0000
0100
2104
2104
3FFC
2204
0C60
3010
0410
0808
1FFE
2213
0210
0410
0410
0820
30E0
0000
ENDCHAR

STARTCHAR cns4_2378
ENCODING 9080
SWIDTH 854 0
DWIDTH 16 0
BBX 16 18 0 -2
BITMAP
0000
0080
1080
1100
11FE
5720
5620
5620
5420
57FF
5420
5420
5420
7C20
4420
0020
0020
0000
ENDCHAR

STARTCHAR cns4_2379
ENCODING 9081
SWIDTH 854 0
DWIDTH 16 0
BBX 16 18 0 -2
BITMAP
0000
0100
2104
2104
2104
3FFC
2004
0000
1FF8
1008
1008
1FF8
1008
1008
1008
1FF8
1008
0000
ENDCHAR

STARTCHAR cns4_237A
ENCODING 9082
SWIDTH 854 0
DWIDTH 16 0
BBX 16 18 0 -2
BITMAP
0000
1084
1084
1FFC
1004
0000
067E
3842
2042
2042
2042
2642
3842
604E
4040
0040
0040
0000
ENDCHAR

STARTCHAR cns4_237B
ENCODING 9083
SWIDTH 854 0
DWIDTH 16 0
BBX 16 18 0 -2
BITMAP
0000
0080
2084
2084
2084
3FFC
2104
0100
3FF8
0008
0010
0020
00C0
1300
2C00
4C00
43FE
0000
ENDCHAR

STARTCHAR cns4_237C
ENCODING 9084
SWIDTH 854 0
DWIDTH 16 0
BBX 16 18 0 -2
BITMAP
0000
0020
1020
1020
1020
54A2
54A2
5534
5538
5430
5450
5448
5448
7C84
4486
0103
0200
0000
ENDCHAR

STARTCHAR cns4_237D
ENCODING 9085
SWIDTH 854 0
DWIDTH 16 0
BBX 16 18 0 -2
BITMAP
0000
1084
1084
1084
1FFC
1034
01C0
1E00
1000
1FFE
1040
1040
1040
1040
2040
2040
4040
0000
ENDCHAR

STARTCHAR cns4_237E
ENCODING 9086
SWIDTH 854 0
DWIDTH 16 0
BBX 16 18 0 -2
BITMAP
0000
0000
1FF8
1008
1FF8
1008
1008
1FF8
1008
0000
0884
1108
2210
4620
2110
1088
0844
0000
ENDCHAR

STARTCHAR cns4_2421
ENCODING 9249
SWIDTH 854 0
DWIDTH 16 0
BBX 16 18 0 -2
BITMAP
0000
1010
1010
1010
7C90
5494
5493
5491
5513
5516
5574
540C
5408
5C10
1020
10C0
1300
0000
ENDCHAR

STARTCHAR cns4_2422
ENCODING 9250
SWIDTH 854 0
DWIDTH 16 0
BBX 16 18 0 -2
BITMAP
0000
1000
13FC
1084
7C84
5488
5488
54FC
54C4
54C4
552C
5528
5518
5E18
1224
14C3
1700
0000
ENDCHAR

STARTCHAR cns4_2423
ENCODING 9251
SWIDTH 854 0
DWIDTH 16 0
BBX 16 18 0 -2
BITMAP
0000
001C
1FE0
1000
1FFC
1004
1004
1FFC
1040
1FFE
1842
1842
2842
2842
284E
4040
0040
0000
ENDCHAR

STARTCHAR cns4_2424
ENCODING 9252
SWIDTH 854 0
DWIDTH 16 0
BBX 16 18 0 -2
BITMAP
0000
1020
1020
1020
7C20
55FE
5420
5420
5420
57FF
5430
5450
5448
5C88
1084
1106
1203
0000
ENDCHAR

STARTCHAR cns4_2425
ENCODING 9253
SWIDTH 854 0
DWIDTH 16 0
BBX 16 18 0 -2
BITMAP
0000
0100
310C
0908
0910
0520
7FFC
4104
4544
4934
511C
710C
4104
4104
4104
4104
413C
0000
ENDCHAR

STARTCHAR cns4_2426
ENCODING 9254
SWIDTH 854 0
DWIDTH 16 0
BBX 16 18 0 -2
BITMAP
0000
0000
3FFC
0080
0080
7FFF
0080
3FFC
2084
3FFC
2084
3FFC
2084
0080
0080
0080
0080
0000
ENDCHAR

STARTCHAR cns4_2427
ENCODING 9255
SWIDTH 854 0
DWIDTH 16 0
BBX 16 18 0 -2
BITMAP
0000
0810
1010
1010
1090
2094
2492
4511
2910
0912
1294
1464
2208
4E10
7220
00C0
0700
0000
ENDCHAR

STARTCHAR cns4_2428
ENCODING 9256
SWIDTH 854 0
DWIDTH 16 0
BBX 16 18 0 -2
BITMAP
0000
0080
0080
3FFE
20C0
20C0
2120
2218
2C06
3210
2210
2210
2210
2410
4410
4810
1010
0000
ENDCHAR

STARTCHAR cns4_2429
ENCODING 9257
SWIDTH 854 0
DWIDTH 16 0
BBX 16 18 0 -2
BITMAP
0000
0010
7C10
0410
0810
1090
2090
3C9F
4490
0890
0890
4890
37FF
1000
3800
4E00
01FF
0000
ENDCHAR

STARTCHAR cns4_242A
ENCODING 9258
SWIDTH 854 0
DWIDTH 16 0
BBX 16 18 0 -2
BITMAP
0000
0080
0100
03FC
0604
1918
6460
01C0
0F00
7420
0420
7FFF
0420
0420
0820
0820
3020
0000
ENDCHAR

STARTCHAR cns4_242B
ENCODING 9259
SWIDTH 854 0
DWIDTH 16 0
BBX 16 18 0 -2
BITMAP
0000
0420
4428
4424
4424
4422
7C3E
45E0
0420
0420
7C10
2410
2410
240A
240A
4406
4402
0000
ENDCHAR

STARTCHAR cns4_242C
ENCODING 9260
SWIDTH 854 0
DWIDTH 16 0
BBX 16 18 0 -2
BITMAP
0000
1800
2000
27FE
4040
0840
0840
1040
33FC
3040
5040
1040
1040
1040
1FFF
1000
1000
0000
ENDCHAR

STARTCHAR cns4_242D
ENCODING 9261
SWIDTH 854 0
DWIDTH 16 0
BBX 16 18 0 -2
BITMAP
0000
1020
1020
1020
13FE
1C20
5020
5020
1020
17FF
1030
1050
1050
1088
108C
1106
1603
0000
ENDCHAR

STARTCHAR cns4_242E
ENCODING 9262
SWIDTH 854 0
DWIDTH 16 0
BBX 16 18 0 -2
BITMAP
0000
1020
1020
1020
1FFF
5820
5420
13FE
1222
1222
1222
1222
1222
1222
122E
1220
1020
0000
ENDCHAR

STARTCHAR cns4_242F
ENCODING 9263
SWIDTH 854 0
DWIDTH 16 0
BBX 16 18 0 -2
BITMAP
0000
1000
13FE
1010
5910
5910
5610
13FF
1230
1050
1050
1090
1110
1210
1C10
1010
1070
0000
ENDCHAR

STARTCHAR cns4_2430
ENCODING 9264
SWIDTH 854 0
DWIDTH 16 0
BBX 16 18 0 -2
BITMAP
0000
1000
11FF
1100
1100
5500
55FE
5142
1144
1144
1128
1128
1210
1238
124C
1483
1000
0000
ENDCHAR

STARTCHAR cns4_2431
ENCODING 9265
SWIDTH 854 0
DWIDTH 16 0
BBX 16 18 0 -2
BITMAP
0000
0200
0200
7FFE
0420
0820
1FC0
01B0
0608
7804
0C80
2840
2842
4801
0809
0808
07F8
0000
ENDCHAR

STARTCHAR cns4_2432
ENCODING 9266
SWIDTH 854 0
DWIDTH 16 0
BBX 16 18 0 -2
BITMAP
0000
1004
1308
10D0
1030
58C8
5304
5400
1088
1188
1250
1050
1020
1050
1090
130C
1C03
0000
ENDCHAR

STARTCHAR cns4_2433
ENCODING 9267
SWIDTH 854 0
DWIDTH 16 0
BBX 16 18 0 -2
BITMAP
0000
1006
1038
13E0
1C20
5020
5020
57FF
1020
1060
1050
1050
1088
1088
1104
1202
1000
0000
ENDCHAR

STARTCHAR cns4_2434
ENCODING 9268
SWIDTH 854 0
DWIDTH 16 0
BBX 16 18 0 -2
BITMAP
0000
001C
1FE0
1000
1FFC
1004
1004
1FFC
1000
1FFC
1804
2FFC
2800
2800
4801
4801
07FF
0000
ENDCHAR

STARTCHAR cns4_2435
ENCODING 9269
SWIDTH 854 0
DWIDTH 16 0
BBX 16 18 0 -2
BITMAP
0000
1010
1016
1018
11F0
7E10
1010
13FE
1010
1C10
7010
13FF
1010
1010
1010
1010
7010
0000
ENDCHAR

STARTCHAR cns4_2436
ENCODING 9270
SWIDTH 854 0
DWIDTH 16 0
BBX 16 18 0 -2
BITMAP
0000
1010
1010
1010
11FF
7E10
1010
11FF
1111
1D11
3111
5111
1111
1111
1113
1010
7010
0000
ENDCHAR

STARTCHAR cns4_2437
ENCODING 9271
SWIDTH 854 0
DWIDTH 16 0
BBX 16 18 0 -2
BITMAP
0000
1000
117E
1112
1112
7D12
17D2
1112
1122
1922
7122
1122
11C2
1044
1084
713C
0200
0000
ENDCHAR

STARTCHAR cns4_2438
ENCODING 9272
SWIDTH 854 0
DWIDTH 16 0
BBX 16 18 0 -2
BITMAP
0000
1020
1020
1020
103E
7C20
1020
1020
13FC
1C84
3048
5048
1030
1030
1048
1186
7601
0000
ENDCHAR

STARTCHAR cns4_2439
ENCODING 9273
SWIDTH 854 0
DWIDTH 16 0
BBX 16 18 0 -2
BITMAP
0000
1020
1020
1020
1020
7DFE
1122
1122
1132
1532
394A
5146
1182
1102
1102
1102
710E
0000
ENDCHAR

STARTCHAR cns4_243A
ENCODING 9274
SWIDTH 854 0
DWIDTH 16 0
BBX 16 18 0 -2
BITMAP
0000
1100
1100
11FC
1100
7AF8
1200
1000
13F8
3808
5008
1008
1008
1008
1005
1005
7003
0000
ENDCHAR

STARTCHAR cns4_243B
ENCODING 9275
SWIDTH 854 0
DWIDTH 16 0
BBX 16 18 0 -2
BITMAP
0000
1090
1090
1090
1110
7D10
131E
1510
1110
1D10
7110
1110
1111
1111
1111
111F
7100
0000
ENDCHAR

STARTCHAR cns4_243C
ENCODING 9276
SWIDTH 854 0
DWIDTH 16 0
BBX 16 18 0 -2
BITMAP
0000
1000
11FC
1020
7C20
1020
1020
13FE
1420
1850
7050
1050
1050
1090
1091
1111
721F
0000
ENDCHAR

STARTCHAR cns4_243D
ENCODING 9277
SWIDTH 854 0
DWIDTH 16 0
BBX 16 18 0 -2
BITMAP
0000
0100
7FFE
0100
3FF8
0818
0660
03C0
0EE0
709F
0080
1FF8
1088
1088
1088
10B8
0080
0000
ENDCHAR

STARTCHAR cns4_243E
ENCODING 9278
SWIDTH 854 0
DWIDTH 16 0
BBX 16 18 0 -2
BITMAP
0000
0000
3F20
0820
0820
083E
0842
7FC2
0864
08A4
0824
0818
0810
0838
0828
0846
0883
0000
ENDCHAR

STARTCHAR cns4_243F
ENCODING 9279
SWIDTH 854 0
DWIDTH 16 0
BBX 16 18 0 -2
BITMAP
0000
0040
7C40
4440
447F
4484
4484
7CC4
4544
4148
4028
4028
4410
4438
444C
7C86
0301
0000
ENDCHAR

STARTCHAR cns4_2440
ENCODING 9280
SWIDTH 854 0
DWIDTH 16 0
BBX 16 18 0 -2
BITMAP
0000
1020
1020
2020
3F20
407F
0044
7C44
04A4
08A4
0828
1028
2010
2010
4128
4146
3E81
0000
ENDCHAR

STARTCHAR cns4_2441
ENCODING 9281
SWIDTH 854 0
DWIDTH 16 0
BBX 16 18 0 -2
BITMAP
0000
1008
1008
1048
3E28
2218
2208
3208
4C88
4448
044B
081C
08E8
1308
2008
4008
0008
0000
ENDCHAR

STARTCHAR cns4_2442
ENCODING 9282
SWIDTH 854 0
DWIDTH 16 0
BBX 16 18 0 -2
BITMAP
0000
1010
1010
1028
7F28
2044
2044
3E92
2210
2210
2210
2210
2210
4410
4410
4410
1810
0000
ENDCHAR

STARTCHAR cns4_2443
ENCODING 9283
SWIDTH 854 0
DWIDTH 16 0
BBX 16 18 0 -2
BITMAP
0000
1FF8
1008
1FF8
1008
1008
1FF8
1008
0420
0420
0420
7FFF
0420
0820
0820
1020
6020
0000
ENDCHAR

STARTCHAR cns4_2444
ENCODING 9284
SWIDTH 854 0
DWIDTH 16 0
BBX 16 18 0 -2
BITMAP
0000
0000
1FF8
1008
1FF8
1008
1008
1FF8
1088
0080
7FFE
1000
1000
1000
1000
1000
0FFE
0000
ENDCHAR

STARTCHAR cns4_2445
ENCODING 9285
SWIDTH 854 0
DWIDTH 16 0
BBX 16 18 0 -2
BITMAP
0000
1020
1020
1020
1020
7DFE
1022
1822
3522
34A2
5062
5062
1052
108A
1082
1101
1201
0000
ENDCHAR

STARTCHAR cns4_2446
ENCODING 9286
SWIDTH 854 0
DWIDTH 16 0
BBX 16 18 0 -2
BITMAP
0000
0080
0080
0080
3FFE
1088
0888
0C90
7FFF
01C0
03C0
06A0
0C90
1888
2086
4083
0080
0000
ENDCHAR

STARTCHAR cns4_2447
ENCODING 9287
SWIDTH 854 0
DWIDTH 16 0
BBX 16 18 0 -2
BITMAP
0000
1000
13FC
1004
1004
7D04
1104
31FC
3904
3500
5100
5100
1100
1101
1101
1101
10FE
0000
ENDCHAR

STARTCHAR cns4_2448
ENCODING 9288
SWIDTH 854 0
DWIDTH 16 0
BBX 16 18 0 -2
BITMAP
0000
1010
1010
1020
1020
7E44
1184
1088
3848
3450
5010
5020
1044
1042
109E
13E1
1000
0000
ENDCHAR

STARTCHAR cns4_2449
ENCODING 9289
SWIDTH 854 0
DWIDTH 16 0
BBX 16 18 0 -2
BITMAP
0000
000C
3030
0E40
0380
0E70
718C
0118
7FFE
0380
0540
0920
3118
610C
0103
0100
0100
0000
ENDCHAR

STARTCHAR cns4_244A
ENCODING 9290
SWIDTH 854 0
DWIDTH 16 0
BBX 16 18 0 -2
BITMAP
0000
0040
0040
7C80
04FE
0482
0524
0528
7E20
4620
4050
4050
4250
4288
4284
3D03
0600
0000
ENDCHAR

STARTCHAR cns4_244B
ENCODING 9291
SWIDTH 854 0
DWIDTH 16 0
BBX 16 18 0 -2
BITMAP
0000
0020
1F20
1140
117E
1182
1F84
1110
1010
1010
1010
1030
1038
2048
2044
2086
4303
0000
ENDCHAR

STARTCHAR cns4_244C
ENCODING 9292
SWIDTH 854 0
DWIDTH 16 0
BBX 16 18 0 -2
BITMAP
0000
0020
7E20
2020
2020
2420
3FFF
2420
4420
4830
2850
1848
1048
1084
2106
4103
0601
0000
ENDCHAR

STARTCHAR cns4_244D
ENCODING 9293
SWIDTH 854 0
DWIDTH 16 0
BBX 16 18 0 -2
BITMAP
0000
0800
08FE
0842
2F42
2844
3E44
4224
4224
6628
1418
0810
0818
1028
1044
2086
4303
0000
ENDCHAR

STARTCHAR cns4_244E
ENCODING 9294
SWIDTH 854 0
DWIDTH 16 0
BBX 16 18 0 -2
BITMAP
0000
0C00
3000
51FC
1104
1104
1704
3904
5104
1104
1704
1904
31FC
5104
1105
1001
0FFF
0000
ENDCHAR

STARTCHAR cns4_244F
ENCODING 9295
SWIDTH 854 0
DWIDTH 16 0
BBX 16 18 0 -2
BITMAP
0000
4000
23FF
1200
0220
0A20
4A20
3220
1230
1250
2250
2248
6248
2484
2484
2502
2A01
0000
ENDCHAR

STARTCHAR cns4_2450
ENCODING 9296
SWIDTH 854 0
DWIDTH 16 0
BBX 16 18 0 -2
BITMAP
0000
0000
2040
1040
0840
0840
5040
307E
1040
1440
2440
2440
6640
2A40
29C0
307F
2000
0000
ENDCHAR

STARTCHAR cns4_2451
ENCODING 9297
SWIDTH 854 0
DWIDTH 16 0
BBX 16 18 0 -2
BITMAP
0000
4000
37FF
1020
0860
0840
50E0
30D0
1148
1246
2441
2840
6040
2040
2040
2040
2040
0000
ENDCHAR

STARTCHAR cns4_2452
ENCODING 9298
SWIDTH 854 0
DWIDTH 16 0
BBX 16 18 0 -2
BITMAP
0000
0000
3FFE
0080
0080
0080
7FFF
0080
0080
0084
088C
10F0
3160
2220
0418
0C0E
7003
0000
ENDCHAR

STARTCHAR cns4_2453
ENCODING 9299
SWIDTH 854 0
DWIDTH 16 0
BBX 16 18 0 -2
BITMAP
0000
0100
0100
7FFF
0220
0420
0818
3086
408A
108C
0890
0920
0180
0260
0410
180C
6002
0000
ENDCHAR

STARTCHAR cns4_2454
ENCODING 9300
SWIDTH 854 0
DWIDTH 16 0
BBX 16 18 0 -2
BITMAP
0000
1020
1020
1020
1020
7C22
10A6
10A4
1128
1D30
7050
1050
1088
1084
1104
1202
3401
0000
ENDCHAR

STARTCHAR cns4_2455
ENCODING 9301
SWIDTH 854 0
DWIDTH 16 0
BBX 16 18 0 -2
BITMAP
0000
0802
2892
2892
2892
7E92
4892
4892
0E92
1892
6892
0892
0892
0912
0912
0902
0A02
0000
ENDCHAR

STARTCHAR cns4_2456
ENCODING 9302
SWIDTH 854 0
DWIDTH 16 0
BBX 16 18 0 -2
BITMAP
0000
0040
4C40
3040
33F8
6048
1048
1048
1048
37FE
5060
10A0
10A0
1110
1118
120C
6C03
0000
ENDCHAR

STARTCHAR cns4_2457
ENCODING 9303
SWIDTH 854 0
DWIDTH 16 0
BBX 16 18 0 -2
BITMAP
0000
0110
4D10
3110
2110
5110
11FE
0910
1910
2910
4910
0910
0911
0971
0991
0E1F
3000
0000
ENDCHAR

STARTCHAR cns4_2458
ENCODING 9304
SWIDTH 854 0
DWIDTH 16 0
BBX 16 18 0 -2
BITMAP
0000
0400
2800
11FE
3102
5102
0902
0902
19FE
1902
2902
4902
0902
0902
09FE
0902
3000
0000
ENDCHAR

STARTCHAR cns4_2459
ENCODING 9305
SWIDTH 854 0
DWIDTH 16 0
BBX 16 18 0 -2
BITMAP
0000
0000
481E
29F0
3110
6110
1110
111F
11F0
3110
5110
1108
1108
1139
11C5
1603
7001
0000
ENDCHAR

STARTCHAR cns4_245A
ENCODING 9306
SWIDTH 854 0
DWIDTH 16 0
BBX 16 18 0 -2
BITMAP
0000
0040
5840
3040
2240
53FE
1442
1444
18C0
30C0
50C0
1140
1140
1241
1441
1841
703F
0000
ENDCHAR

STARTCHAR cns4_245B
ENCODING 9307
SWIDTH 854 0
DWIDTH 16 0
BBX 16 18 0 -2
BITMAP
0000
0800
49FC
3124
2124
5124
1124
1124
19FC
2904
4900
0900
0900
0902
1102
1102
60FC
0000
ENDCHAR

STARTCHAR cns4_245C
ENCODING 9308
SWIDTH 854 0
DWIDTH 16 0
BBX 16 18 0 -2
BITMAP
0000
0000
01FC
7E44
1044
1044
1044
1044
7C44
11F4
1044
1244
1C44
7045
0045
0045
0043
0000
ENDCHAR

STARTCHAR cns4_245D
ENCODING 9309
SWIDTH 854 0
DWIDTH 16 0
BBX 16 18 0 -2
BITMAP
0000
0020
0020
7E20
1020
1020
1020
13FE
1020
7C20
1020
1020
1220
1C20
6020
07FF
0000
0000
ENDCHAR

STARTCHAR cns4_245E
ENCODING 9310
SWIDTH 854 0
DWIDTH 16 0
BBX 16 18 0 -2
BITMAP
0000
0000
7EFF
1040
1040
1040
107C
1044
1044
1064
1054
1044
1084
108C
10F5
1385
3006
0000
ENDCHAR

STARTCHAR cns4_245F
ENCODING 9311
SWIDTH 854 0
DWIDTH 16 0
BBX 16 18 0 -2
BITMAP
0000
0022
0022
7E22
5244
5244
5244
7E44
5288
5288
5288
5244
7E44
4244
0022
0022
0022
0000
ENDCHAR

STARTCHAR cns4_2460
ENCODING 9312
SWIDTH 854 0
DWIDTH 16 0
BBX 16 18 0 -2
BITMAP
0000
0040
0040
1FFF
1000
57FC
3104
3108
1108
1090
3090
5060
2060
2090
2308
4606
1803
0000
ENDCHAR

STARTCHAR cns4_2461
ENCODING 9313
SWIDTH 854 0
DWIDTH 16 0
BBX 16 18 0 -2
BITMAP
0000
0040
0040
1FFF
1008
1008
5208
3208
1208
3208
5208
13F8
2208
2008
2008
4008
4008
0000
ENDCHAR

STARTCHAR cns4_2462
ENCODING 9314
SWIDTH 854 0
DWIDTH 16 0
BBX 16 18 0 -2
BITMAP
0000
0080
0080
1FFF
1000
5000
3FFE
3100
1200
13FC
3404
5004
1004
2008
2008
2008
4070
0000
ENDCHAR

STARTCHAR cns4_2463
ENCODING 9315
SWIDTH 854 0
DWIDTH 16 0
BBX 16 18 0 -2
BITMAP
0000
0000
7F10
2150
1244
1428
0830
1FE8
2816
4811
0810
0810
08E0
0802
0802
0804
0FFC
0000
ENDCHAR

STARTCHAR cns4_2464
ENCODING 9316
SWIDTH 854 0
DWIDTH 16 0
BBX 16 18 0 -2
BITMAP
0000
0004
7C44
4444
4444
4444
7C44
4444
4444
4444
7C44
445C
45E4
4404
7C04
4404
4004
0000
ENDCHAR

STARTCHAR cns4_2465
ENCODING 9317
SWIDTH 854 0
DWIDTH 16 0
BBX 16 18 0 -2
BITMAP
0000
0800
0800
1FFE
1002
1002
2FC2
4842
0FC2
0842
0FC2
0842
0FC2
0844
0004
0004
0038
0000
ENDCHAR

STARTCHAR cns4_2466
ENCODING 9318
SWIDTH 854 0
DWIDTH 16 0
BBX 16 18 0 -2
BITMAP
0000
0000
1FF0
1010
1FF0
1010
1FF0
1010
1FF0
1010
2000
2020
3FF0
2004
2004
2004
1FF8
0000
ENDCHAR

STARTCHAR cns4_2467
ENCODING 9319
SWIDTH 854 0
DWIDTH 16 0
BBX 16 18 0 -2
BITMAP
0000
0000
7FFE
1102
1102
2102
2102
3D04
6504
6504
2538
2500
2501
3D01
2501
24FF
0000
0000
ENDCHAR

STARTCHAR cns4_2468
ENCODING 9320
SWIDTH 854 0
DWIDTH 16 0
BBX 16 18 0 -2
BITMAP
0000
001C
1FE0
0080
7FFF
0180
06F0
188C
6082
0100
0100
0100
0180
02C0
0460
181C
6003
0000
ENDCHAR

STARTCHAR cns4_2469
ENCODING 9321
SWIDTH 854 0
DWIDTH 16 0
BBX 16 18 0 -2
BITMAP
0000
0100
0100
7FFE
4442
1840
607F
0000
7FFF
0080
0080
0080
0080
0080
0080
0080
0380
0000
ENDCHAR

STARTCHAR cns4_246A
ENCODING 9322
SWIDTH 854 0
DWIDTH 16 0
BBX 16 18 0 -2
BITMAP
0000
0000
3FFC
2244
2244
3FFC
2004
7FFF
0080
0080
0080
0080
0080
0080
0080
0080
0380
0000
ENDCHAR

STARTCHAR cns4_246B
ENCODING 9323
SWIDTH 854 0
DWIDTH 16 0
BBX 16 18 0 -2
BITMAP
0000
0000
3FFC
2104
2104
2384
2C64
2084
0080
7FFF
1000
1000
1000
1000
1000
1000
0FFE
0000
ENDCHAR

STARTCHAR cns4_246C
ENCODING 9324
SWIDTH 854 0
DWIDTH 16 0
BBX 16 18 0 -2
BITMAP
0000
0420
0420
7C3F
0420
0520
0100
0100
3FF8
0100
0100
7FFF
0100
0100
0100
0100
0100
0000
ENDCHAR

STARTCHAR cns4_246D
ENCODING 9325
SWIDTH 854 0
DWIDTH 16 0
BBX 16 18 0 -2
BITMAP
0000
0000
7F00
2400
24FE
2402
3C02
2404
2408
2410
3C20
2440
2440
2480
3C82
6482
047E
0000
ENDCHAR

STARTCHAR cns4_246E
ENCODING 9326
SWIDTH 854 0
DWIDTH 16 0
BBX 16 18 0 -2
BITMAP
0000
0000
3DFE
2420
2420
3420
2C20
27FF
2420
2C20
3420
2420
2420
2420
2420
4420
5CE0
0000
ENDCHAR

STARTCHAR cns4_246F
ENCODING 9327
SWIDTH 854 0
DWIDTH 16 0
BBX 16 18 0 -2
BITMAP
0000
0000
3CF8
2488
2488
2488
34C8
24A8
24A8
3C98
2488
2488
2509
2509
2509
460F
5C00
0000
ENDCHAR

STARTCHAR cns4_2470
ENCODING 9328
SWIDTH 854 0
DWIDTH 16 0
BBX 16 18 0 -2
BITMAP
0000
0002
3C02
2482
24A2
3554
2D54
2444
2444
2C28
3428
2410
2410
2428
4448
4484
1B03
0000
ENDCHAR

STARTCHAR cns4_2471
ENCODING 9329
SWIDTH 854 0
DWIDTH 16 0
BBX 16 18 0 -2
BITMAP
0000
0000
7FFE
4100
4100
4100
5FF8
5008
5008
5008
5FF8
5108
4100
4100
4100
7FFE
4000
0000
ENDCHAR

STARTCHAR cns4_2472
ENCODING 9330
SWIDTH 854 0
DWIDTH 16 0
BBX 16 18 0 -2
BITMAP
0000
0000
7FFE
0100
0100
1FF8
1008
1008
1FF8
1008
1008
1FF8
1008
1008
1FF8
1008
0000
0000
ENDCHAR

STARTCHAR cns4_2473
ENCODING 9331
SWIDTH 854 0
DWIDTH 16 0
BBX 16 18 0 -2
BITMAP
0000
0800
1040
7E40
4240
4240
4240
7E40
4240
4240
4240
7E40
4240
4241
4241
7E61
423F
0000
ENDCHAR

STARTCHAR cns4_2474
ENCODING 9332
SWIDTH 854 0
DWIDTH 16 0
BBX 16 18 0 -2
BITMAP
0000
0100
0600
18FC
2004
2004
2004
2004
3E7C
2004
2004
2004
2004
3E7C
2004
2004
0000
0000
ENDCHAR

STARTCHAR cns4_2475
ENCODING 9333
SWIDTH 854 0
DWIDTH 16 0
BBX 16 18 0 -2
BITMAP
0000
0810
0810
7FFE
0810
0000
3FFC
0080
0080
0080
7FFF
0080
0080
0080
0080
0080
0080
0000
ENDCHAR

STARTCHAR cns4_2476
ENCODING 9334
SWIDTH 854 0
DWIDTH 16 0
BBX 16 18 0 -2
BITMAP
0000
0810
0810
7FFE
0810
0000
7FF8
0208
0208
0208
3FC8
0408
0409
0805
0805
1005
2003
0000
ENDCHAR

STARTCHAR cns4_2477
ENCODING 9335
SWIDTH 854 0
DWIDTH 16 0
BBX 16 18 0 -2
BITMAP
0000
0810
0810
7FFE
0890
0890
0080
7FFE
0080
00B0
00C0
0180
0280
0C80
7080
0080
0780
0000
ENDCHAR

STARTCHAR cns4_2478
ENCODING 9336
SWIDTH 854 0
DWIDTH 16 0
BBX 16 18 0 -2
BITMAP
0000
0810
0810
7FFE
0810
0810
7FFE
0440
0440
0440
0440
0440
0841
0841
1041
607F
0000
0000
ENDCHAR

STARTCHAR cns4_2479
ENCODING 9337
SWIDTH 854 0
DWIDTH 16 0
BBX 16 18 0 -2
BITMAP
0000
0810
0810
7FFE
0810
0910
0100
0100
7FFE
0100
0380
0240
0440
0420
0810
100C
6003
0000
ENDCHAR

STARTCHAR cns4_247A
ENCODING 9338
SWIDTH 854 0
DWIDTH 16 0
BBX 16 18 0 -2
BITMAP
0000
1010
1010
7FFE
1010
1010
0000
3FFC
2004
2004
2004
2004
2004
2004
3FFC
2004
2004
0000
ENDCHAR

STARTCHAR cns4_247B
ENCODING 9339
SWIDTH 854 0
DWIDTH 16 0
BBX 16 18 0 -2
BITMAP
0000
0810
0810
7FFE
0810
0890
0080
1FFC
1084
1084
1084
1084
1084
1084
109C
0080
0080
0000
ENDCHAR

STARTCHAR cns4_247C
ENCODING 9340
SWIDTH 854 0
DWIDTH 16 0
BBX 16 18 0 -2
BITMAP
0000
0810
0810
7FFE
0810
0810
0010
00E0
3F00
0200
0200
02FC
7F00
0201
0201
0201
03FF
0000
ENDCHAR

STARTCHAR cns4_247D
ENCODING 9341
SWIDTH 854 0
DWIDTH 16 0
BBX 16 18 0 -2
BITMAP
0000
0810
0810
7FFF
0810
0810
1FFC
1000
2FE0
4020
00C0
0100
0200
0402
0802
0802
07FE
0000
ENDCHAR

STARTCHAR cns4_247E
ENCODING 9342
SWIDTH 854 0
DWIDTH 16 0
BBX 16 18 0 -2
BITMAP
0000
0020
6020
1020
03FF
7A00
0A00
1200
1200
2200
7A00
0A00
1200
13FF
2000
5800
07FF
0000
ENDCHAR

STARTCHAR cns4_2521
ENCODING 9505
SWIDTH 854 0
DWIDTH 16 0
BBX 16 18 0 -2
BITMAP
0000
0000
43FE
2020
0020
7020
1020
17FF
2020
2020
7820
0820
1020
1020
2020
7000
0FFF
0000
ENDCHAR

STARTCHAR cns4_2522
ENCODING 9506
SWIDTH 854 0
DWIDTH 16 0
BBX 16 18 0 -2
BITMAP
0000
0000
4000
23FF
0048
7848
0848
1048
1048
2088
7888
0888
1108
1108
2208
5800
07FF
0000
ENDCHAR

STARTCHAR cns4_2523
ENCODING 9507
SWIDTH 854 0
DWIDTH 16 0
BBX 16 18 0 -2
BITMAP
0000
0000
41FE
2000
2000
03FF
7880
0880
11FE
2102
7802
0804
1004
1008
2078
5800
07FF
0000
ENDCHAR

STARTCHAR cns4_2524
ENCODING 9508
SWIDTH 854 0
DWIDTH 16 0
BBX 16 18 0 -2
BITMAP
0000
0000
23FC
1204
0204
7204
1204
13FC
2204
2200
7A00
0A02
1202
1202
21FC
5800
07FF
0000
ENDCHAR

STARTCHAR cns4_2525
ENCODING 9509
SWIDTH 854 0
DWIDTH 16 0
BBX 16 18 0 -2
BITMAP
0000
0000
3F1F
0911
0912
0912
0914
0914
7FD2
1112
1111
1111
1111
1111
7FD6
0010
0010
0000
ENDCHAR

STARTCHAR cns4_2526
ENCODING 9510
SWIDTH 854 0
DWIDTH 16 0
BBX 16 18 0 -2
BITMAP
0000
083F
0821
0822
7FA2
0824
0828
7F28
2124
2222
1221
1421
0821
0C2E
1620
2320
41A0
0000
ENDCHAR

STARTCHAR cns4_2527
ENCODING 9511
SWIDTH 854 0
DWIDTH 16 0
BBX 16 18 0 -2
BITMAP
0000
0800
083F
7FA1
0822
0822
7F24
4928
4928
4924
4924
4922
4922
4B22
482E
0820
0820
0000
ENDCHAR

STARTCHAR cns4_2528
ENCODING 9512
SWIDTH 854 0
DWIDTH 16 0
BBX 16 18 0 -2
BITMAP
0000
0800
083E
0822
0822
2A24
2A24
4928
4828
0824
0924
3A22
0222
0422
082E
3020
4020
0000
ENDCHAR

STARTCHAR cns4_2529
ENCODING 9513
SWIDTH 854 0
DWIDTH 16 0
BBX 16 18 0 -2
BITMAP
0000
0000
7FBE
0822
0822
1124
1124
6228
3224
1424
0822
0922
10A2
27A2
786C
0020
0020
0000
ENDCHAR

STARTCHAR cns4_252A
ENCODING 9514
SWIDTH 854 0
DWIDTH 16 0
BBX 16 18 0 -2
BITMAP
0000
0180
063E
7C22
0422
0424
0424
0428
7FE8
0424
0424
0422
0422
04E2
072E
3820
0020
0000
ENDCHAR

STARTCHAR cns4_252B
ENCODING 9515
SWIDTH 854 0
DWIDTH 16 0
BBX 16 18 0 -2
BITMAP
0000
0FF8
0800
0800
0FF8
0800
0800
0FF8
0800
0800
7FFF
0400
0808
0808
1004
3FFC
0004
0000
ENDCHAR

STARTCHAR cns4_252C
ENCODING 9516
SWIDTH 854 0
DWIDTH 16 0
BBX 16 18 0 -2
BITMAP
0000
0080
7C80
4480
49FF
4900
52FC
5400
49FC
4804
4408
4410
4420
5840
4081
4101
41FF
0000
ENDCHAR

STARTCHAR cns4_252D
ENCODING 9517
SWIDTH 854 0
DWIDTH 16 0
BBX 16 18 0 -2
BITMAP
0000
0000
7CF8
4488
4888
4889
5109
510F
4A00
4BFC
4484
4444
4448
5830
4030
40DC
4303
0000
ENDCHAR

STARTCHAR cns4_252E
ENCODING 9518
SWIDTH 854 0
DWIDTH 16 0
BBX 16 18 0 -2
BITMAP
0000
0020
7C20
4420
4820
4823
53A4
50A8
48A8
48A8
44A8
4524
4524
7922
4221
4020
4060
0000
ENDCHAR

STARTCHAR cns4_252F
ENCODING 9519
SWIDTH 854 0
DWIDTH 16 0
BBX 16 18 0 -2
BITMAP
0000
2222
2222
2222
2222
3E3E
2202
2002
3FFE
2002
2002
3E7E
2242
2242
4242
4242
4242
0000
ENDCHAR

STARTCHAR cns4_2530
ENCODING 9520
SWIDTH 854 0
DWIDTH 16 0
BBX 16 18 0 -2
BITMAP
0000
0820
0820
7FA0
0120
2220
1420
7FA0
0820
0820
0820
7FA0
0820
0821
0821
0821
083F
0000
ENDCHAR

STARTCHAR cns4_2531
ENCODING 9521
SWIDTH 854 0
DWIDTH 16 0
BBX 16 18 0 -2
BITMAP
0000
100C
10F0
7E80
10FF
1E88
7108
1108
7208
1FE8
0028
00C0
0300
0C02
1002
2002
3FFE
0000
ENDCHAR

STARTCHAR cns4_2532
ENCODING 9522
SWIDTH 854 0
DWIDTH 16 0
BBX 16 18 0 -2
BITMAP
0000
0000
7FFE
0000
0410
0820
1242
2284
4448
2428
0810
1424
2242
7EFE
0202
7FFF
0000
0000
ENDCHAR

STARTCHAR cns4_2533
ENCODING 9523
SWIDTH 854 0
DWIDTH 16 0
BBX 16 18 0 -2
BITMAP
0000
0000
0100
7FFF
0100
1FFC
1104
1104
139C
1340
0530
190C
6003
0FF0
0000
0000
7FFF
0000
ENDCHAR

STARTCHAR cns4_2534
ENCODING 9524
SWIDTH 854 0
DWIDTH 16 0
BBX 16 18 0 -2
BITMAP
0000
0000
0100
0100
7FFF
0000
3FFC
2004
27E4
2424
2424
2424
27E4
2424
2004
3FFC
2004
0000
ENDCHAR

STARTCHAR cns4_2535
ENCODING 9525
SWIDTH 854 0
DWIDTH 16 0
BBX 16 18 0 -2
BITMAP
0000
0000
0808
0808
1010
1828
2424
4244
4080
0808
0808
1010
1030
2828
244C
4286
0301
0000
ENDCHAR

STARTCHAR cns4_2536
ENCODING 9526
SWIDTH 854 0
DWIDTH 16 0
BBX 16 18 0 -2
BITMAP
0000
0818
0814
0812
17FF
1010
3010
3010
53F0
1090
1090
1088
1098
10E5
1705
1003
1001
0000
ENDCHAR

STARTCHAR cns4_2537
ENCODING 9527
SWIDTH 854 0
DWIDTH 16 0
BBX 16 18 0 -2
BITMAP
0000
0810
0814
0812
1FFF
1010
3010
3112
5112
1154
118C
1708
1118
1114
1225
1245
1483
0000
ENDCHAR

STARTCHAR cns4_2538
ENCODING 9528
SWIDTH 854 0
DWIDTH 16 0
BBX 16 18 0 -2
BITMAP
0000
0840
0840
0840
107E
1040
3040
57FF
5040
1040
1244
1244
1242
1442
1442
1040
10C0
0000
ENDCHAR

STARTCHAR cns4_2539
ENCODING 9529
SWIDTH 854 0
DWIDTH 16 0
BBX 16 18 0 -2
BITMAP
0000
0890
0890
0890
1090
17FE
3492
3492
5492
17FE
1492
1492
1492
1492
1492
17FE
1402
0000
ENDCHAR

STARTCHAR cns4_253A
ENCODING 9530
SWIDTH 854 0
DWIDTH 16 0
BBX 16 18 0 -2
BITMAP
0000
0088
1488
1490
2490
249F
6492
24A2
24A2
24D4
2494
258C
2688
288C
2094
20A2
20C1
0000
ENDCHAR

STARTCHAR cns4_253B
ENCODING 9531
SWIDTH 854 0
DWIDTH 16 0
BBX 16 18 0 -2
BITMAP
0000
1020
1220
13FF
2201
2402
6008
2008
27FF
2008
2108
2088
2088
2008
2008
2008
2038
0000
ENDCHAR

STARTCHAR cns4_253C
ENCODING 9532
SWIDTH 854 0
DWIDTH 16 0
BBX 16 18 0 -2
BITMAP
0000
0800
0BFF
0A00
12FE
1A10
3210
3210
52FE
1210
1210
1210
12FF
1200
1200
13FF
1200
0000
ENDCHAR

STARTCHAR cns4_253D
ENCODING 9533
SWIDTH 854 0
DWIDTH 16 0
BBX 16 18 0 -2
BITMAP
0000
1200
1200
13FF
2400
2400
6BFC
2244
2244
3FFF
2244
2444
2444
27FF
2408
2008
2030
0000
ENDCHAR

STARTCHAR cns4_253E
ENCODING 9534
SWIDTH 854 0
DWIDTH 16 0
BBX 16 18 0 -2
BITMAP
0000
0180
0180
0260
0418
1BE6
6003
3FFC
0080
0880
0880
08FC
0880
0880
0880
7FFF
0000
0000
ENDCHAR

STARTCHAR cns4_253F
ENCODING 9535
SWIDTH 854 0
DWIDTH 16 0
BBX 16 18 0 -2
BITMAP
0000
0808
0808
7F08
087F
4808
4848
4848
7F48
487F
1448
1418
1418
2429
2729
5849
008F
0000
ENDCHAR

STARTCHAR cns4_2540
ENCODING 9536
SWIDTH 854 0
DWIDTH 16 0
BBX 16 18 0 -2
BITMAP
0000
0040
4440
43FC
2044
0FFF
0844
17FC
1044
2040
27FE
6040
2040
27FF
2040
2040
0040
0000
ENDCHAR

STARTCHAR cns4_2541
ENCODING 9537
SWIDTH 854 0
DWIDTH 16 0
BBX 16 18 0 -2
BITMAP
0000
0040
0040
40FC
2104
2A48
0870
10C8
1307
2DFC
2104
2104
6104
2104
2104
21FC
0104
0000
ENDCHAR

STARTCHAR cns4_2542
ENCODING 9538
SWIDTH 854 0
DWIDTH 16 0
BBX 16 18 0 -2
BITMAP
0000
0000
43FE
2202
1222
1222
06FA
0A22
0A22
1232
124A
224A
6286
2202
2202
23FE
0202
0000
ENDCHAR

STARTCHAR cns4_2543
ENCODING 9539
SWIDTH 854 0
DWIDTH 16 0
BBX 16 18 0 -2
BITMAP
0000
0080
60F8
1108
0110
0A20
0FFC
1024
1FFF
2024
2024
63FC
2020
2020
2020
2020
01E0
0000
ENDCHAR

STARTCHAR cns4_2544
ENCODING 9540
SWIDTH 854 0
DWIDTH 16 0
BBX 16 18 0 -2
BITMAP
0000
1FFC
1004
1204
1204
13F4
1484
1884
1FFC
1084
1494
1494
1494
27F4
2412
2002
4001
0000
ENDCHAR

STARTCHAR cns4_2545
ENCODING 9541
SWIDTH 854 0
DWIDTH 16 0
BBX 16 18 0 -2
BITMAP
0000
0000
3FFC
2004
2FF4
2104
2104
27E4
2424
2424
27E4
2424
2424
47E2
4422
4002
0001
0000
ENDCHAR

STARTCHAR cns4_2546
ENCODING 9542
SWIDTH 854 0
DWIDTH 16 0
BBX 16 18 0 -2
BITMAP
0000
0000
023C
6424
1824
3424
5224
1024
7FA4
1024
1424
2424
2A44
4944
5145
3F87
0080
0000
ENDCHAR

STARTCHAR cns4_2547
ENCODING 9543
SWIDTH 854 0
DWIDTH 16 0
BBX 16 18 0 -2
BITMAP
0000
0802
0812
0812
7F92
0812
0812
0812
7F92
0012
3F12
2112
2112
2102
3F02
2102
210E
0000
ENDCHAR

STARTCHAR cns4_2548
ENCODING 9544
SWIDTH 854 0
DWIDTH 16 0
BBX 16 18 0 -2
BITMAP
0000
0402
0412
0A12
1112
2092
4052
1F12
0012
0012
3F92
2092
2092
2082
3F82
2082
208E
0000
ENDCHAR

STARTCHAR cns4_2549
ENCODING 9545
SWIDTH 854 0
DWIDTH 16 0
BBX 16 18 0 -2
BITMAP
0000
0A02
0A02
0A12
0A12
0AD2
2B12
1A12
0A12
0B12
1A92
2A52
0A12
1202
1242
2242
43CE
0000
ENDCHAR

STARTCHAR cns4_254A
ENCODING 9546
SWIDTH 854 0
DWIDTH 16 0
BBX 16 18 0 -2
BITMAP
0000
1002
1012
1012
3FD2
2412
4412
0412
7FD2
0412
2412
2492
2492
2482
3F82
2082
000E
0000
ENDCHAR

STARTCHAR cns4_254B
ENCODING 9547
SWIDTH 854 0
DWIDTH 16 0
BBX 16 18 0 -2
BITMAP
0000
0802
1002
1F12
2112
6212
1412
0E12
1412
6FD2
1052
2892
4512
0602
0402
1802
601E
0000
ENDCHAR

STARTCHAR cns4_254C
ENCODING 9548
SWIDTH 854 0
DWIDTH 16 0
BBX 16 18 0 -2
BITMAP
0000
0802
1002
1F92
3092
2912
4A12
0412
0B12
30D2
5FB2
1092
1092
1082
1F82
1082
000E
0000
ENDCHAR

STARTCHAR cns4_254D
ENCODING 9549
SWIDTH 854 0
DWIDTH 16 0
BBX 16 18 0 -2
BITMAP
0000
0402
0C02
0A12
1212
2112
40D2
7F92
0412
0412
0412
3F92
0412
0402
04C2
0F02
780E
0000
ENDCHAR

STARTCHAR cns4_254E
ENCODING 9550
SWIDTH 854 0
DWIDTH 16 0
BBX 16 18 0 -2
BITMAP
0000
0402
0C02
0A12
1212
2112
40D2
7FD2
0012
0012
7FD2
0812
0812
1102
2082
7F42
004E
0000
ENDCHAR

STARTCHAR cns4_254F
ENCODING 9551
SWIDTH 854 0
DWIDTH 16 0
BBX 16 18 0 -2
BITMAP
0000
0310
4210
2410
7F90
127E
1212
1212
1212
7FA2
1222
1222
1222
2242
2244
2284
4318
0000
ENDCHAR

STARTCHAR cns4_2550
ENCODING 9552
SWIDTH 854 0
DWIDTH 16 0
BBX 16 18 0 -2
BITMAP
0000
0000
7FA2
0822
1F22
2122
5222
0C22
1A0E
6200
7FFC
0204
0204
0408
0408
0810
1060
0000
ENDCHAR

STARTCHAR cns4_2551
ENCODING 9553
SWIDTH 854 0
DWIDTH 16 0
BBX 16 18 0 -2
BITMAP
0000
0800
0800
1FFE
2182
2242
4422
0812
17EE
2002
0FF2
0812
0812
0FF2
0812
0004
001C
0000
ENDCHAR

STARTCHAR cns4_2552
ENCODING 9554
SWIDTH 854 0
DWIDTH 16 0
BBX 16 18 0 -2
BITMAP
0000
0800
0800
1FFE
1102
2102
27E2
4422
0522
0522
1FFA
0422
0522
0922
0922
1024
10DC
0000
ENDCHAR

STARTCHAR cns4_2553
ENCODING 9555
SWIDTH 854 0
DWIDTH 16 0
BBX 16 18 0 -2
BITMAP
0000
0000
1FFC
1084
1FFC
1084
1104
1FFC
1100
0640
1840
7FFE
0040
0040
0040
0040
0040
0000
ENDCHAR

STARTCHAR cns4_2554
ENCODING 9556
SWIDTH 854 0
DWIDTH 16 0
BBX 16 18 0 -2
BITMAP
0000
0100
01F8
0100
4100
5FFC
5014
5C24
5344
51C4
5124
5614
580C
5FFC
4000
7FFF
4000
0000
ENDCHAR

STARTCHAR cns4_2555
ENCODING 9557
SWIDTH 854 0
DWIDTH 16 0
BBX 16 18 0 -2
BITMAP
0000
0A10
0A10
0A10
4A10
4AD0
2B10
0A18
0A14
1B12
2A91
4A10
1210
1210
2250
4250
01D0
0000
ENDCHAR

STARTCHAR cns4_2556
ENCODING 9558
SWIDTH 854 0
DWIDTH 16 0
BBX 16 18 0 -2
BITMAP
0000
0100
623E
1422
1C22
6222
0922
0822
7FA2
1022
1422
1422
252E
2920
48A0
3FA0
00A0
0000
ENDCHAR

STARTCHAR cns4_2557
ENCODING 9559
SWIDTH 854 0
DWIDTH 16 0
BBX 16 18 0 -2
BITMAP
0000
2000
203E
7FA2
4822
0822
0822
7FA2
0822
0822
4922
492E
4920
4920
7F20
4120
0020
0000
ENDCHAR

STARTCHAR cns4_2558
ENCODING 9560
SWIDTH 854 0
DWIDTH 16 0
BBX 16 18 0 -2
BITMAP
0000
0000
1FFF
1040
1040
1078
1040
1040
1FFE
1040
1240
1248
2444
2444
2844
4040
01C0
0000
ENDCHAR

STARTCHAR cns4_2559
ENCODING 9561
SWIDTH 854 0
DWIDTH 16 0
BBX 16 18 0 -2
BITMAP
0000
0080
0080
7FFE
0080
1FF8
1088
1FF8
1088
1FF8
1108
0200
0200
0408
0804
3FFE
0002
0000
ENDCHAR

STARTCHAR cns4_255A
ENCODING 9562
SWIDTH 854 0
DWIDTH 16 0
BBX 16 18 0 -2
BITMAP
0000
0000
7FFE
40A2
40A2
7FA2
4424
4424
5F14
5514
5518
5508
5518
5514
5726
4443
0481
0000
ENDCHAR

STARTCHAR cns4_255B
ENCODING 9563
SWIDTH 854 0
DWIDTH 16 0
BBX 16 18 0 -2
BITMAP
0000
0080
0040
0020
7800
4BFE
4820
4820
4820
4BFE
4820
7820
4820
4020
0020
07FF
0000
0000
ENDCHAR

STARTCHAR cns4_255C
ENCODING 9564
SWIDTH 854 0
DWIDTH 16 0
BBX 16 18 0 -2
BITMAP
0000
0008
07C8
7048
5048
5048
57C8
5448
5408
57D0
5454
7052
5052
40A1
00A1
017F
0601
0000
ENDCHAR

STARTCHAR cns4_255D
ENCODING 9565
SWIDTH 854 0
DWIDTH 16 0
BBX 16 18 0 -2
BITMAP
0000
0090
0088
7884
4880
4BFE
4880
4880
4888
4888
7988
4950
4150
0220
0250
048C
0906
0000
ENDCHAR

STARTCHAR cns4_255E
ENCODING 9566
SWIDTH 854 0
DWIDTH 16 0
BBX 16 18 0 -2
BITMAP
0000
0000
03FE
7822
4842
4842
4882
4882
490C
4BFE
7902
4902
4102
0102
0102
01FE
0102
0000
ENDCHAR

STARTCHAR cns4_255F
ENCODING 9567
SWIDTH 854 0
DWIDTH 16 0
BBX 16 18 0 -2
BITMAP
0000
0000
01FE
7902
4902
4902
4902
4902
4902
49FE
7902
4880
4088
0104
0102
0202
0C00
0000
ENDCHAR

STARTCHAR cns4_2560
ENCODING 9568
SWIDTH 854 0
DWIDTH 16 0
BBX 16 18 0 -2
BITMAP
0000
0110
0210
0290
7290
5496
54BA
5DD2
5492
5492
5492
7492
5496
4491
0481
0481
047E
0000
ENDCHAR

STARTCHAR cns4_2561
ENCODING 9569
SWIDTH 854 0
DWIDTH 16 0
BBX 16 18 0 -2
BITMAP
0000
0060
0060
7890
4890
4908
4A26
4C20
4820
4928
7924
4A24
4422
0421
0820
0020
01E0
0000
ENDCHAR

STARTCHAR cns4_2562
ENCODING 9570
SWIDTH 854 0
DWIDTH 16 0
BBX 16 18 0 -2
BITMAP
0000
0020
0020
7820
4BFE
4820
4820
48A8
48A8
4888
4FFF
7888
4888
4088
0108
0108
0208
0000
ENDCHAR

STARTCHAR cns4_2563
ENCODING 9571
SWIDTH 854 0
DWIDTH 16 0
BBX 16 18 0 -2
BITMAP
0000
0000
03FE
7802
4802
4BFA
4802
4802
4BE2
4A22
7A22
4BE2
4222
0002
0002
0002
001E
0000
ENDCHAR

STARTCHAR cns4_2564
ENCODING 9572
SWIDTH 854 0
DWIDTH 16 0
BBX 16 18 0 -2
BITMAP
0000
000E
01F0
7900
49FE
4902
49FE
4900
49FC
4904
4908
7910
4920
4241
0241
0241
043E
0000
ENDCHAR

STARTCHAR cns4_2565
ENCODING 9573
SWIDTH 854 0
DWIDTH 16 0
BBX 16 18 0 -2
BITMAP
0000
1020
1020
13FF
1201
1202
7C04
1000
11FE
1010
1010
1010
1C10
6010
0010
0010
00F0
0000
ENDCHAR

STARTCHAR cns4_2566
ENCODING 9574
SWIDTH 854 0
DWIDTH 16 0
BBX 16 18 0 -2
BITMAP
0000
0020
0020
23FE
2202
2404
2000
20B0
7890
2188
2108
2108
2104
3A04
4206
0403
0C01
0000
ENDCHAR

STARTCHAR cns4_2567
ENCODING 9575
SWIDTH 854 0
DWIDTH 16 0
BBX 16 18 0 -2
BITMAP
0000
0040
2040
2040
27FC
2040
2040
7840
23F8
2040
20E0
2150
3A48
6446
1843
0040
0040
0000
ENDCHAR

STARTCHAR cns4_2568
ENCODING 9576
SWIDTH 854 0
DWIDTH 16 0
BBX 16 18 0 -2
BITMAP
0000
1048
1044
1044
1040
17FF
7840
1044
1084
1088
10C8
1CD0
6130
0110
0238
044C
0983
0000
ENDCHAR

STARTCHAR cns4_2569
ENCODING 9577
SWIDTH 854 0
DWIDTH 16 0
BBX 16 18 0 -2
BITMAP
0000
001C
13E8
1248
1248
1248
1648
7A48
1248
1248
1248
1248
1E44
6254
044A
047A
0989
0000
ENDCHAR

STARTCHAR cns4_256A
ENCODING 9578
SWIDTH 854 0
DWIDTH 16 0
BBX 16 18 0 -2
BITMAP
0000
0100
0300
0630
0818
7FF4
0204
0200
7FFF
0420
0898
3087
4FFC
0080
0080
7FFF
0000
0000
ENDCHAR

STARTCHAR cns4_256B
ENCODING 9579
SWIDTH 854 0
DWIDTH 16 0
BBX 16 18 0 -2
BITMAP
0000
0000
3FFE
0080
0CB0
108C
2084
7FFF
0080
0080
0000
0080
3FFE
0080
0080
7FFF
0000
0000
ENDCHAR

STARTCHAR cns4_256C
ENCODING 9580
SWIDTH 854 0
DWIDTH 16 0
BBX 16 18 0 -2
BITMAP
0000
0800
0800
09FE
7F42
0842
0844
7F44
0844
0828
7F28
0830
0810
0B28
1C4C
6186
0602
0000
ENDCHAR

STARTCHAR cns4_256D
ENCODING 9581
SWIDTH 854 0
DWIDTH 16 0
BBX 16 18 0 -2
BITMAP
0000
0000
13FE
1202
1202
13FE
1E22
7220
1220
13FC
1224
1624
1A45
6449
0489
088F
0300
0000
ENDCHAR

STARTCHAR cns4_256E
ENCODING 9582
SWIDTH 854 0
DWIDTH 16 0
BBX 16 18 0 -2
BITMAP
0000
03DE
2252
2252
2252
2252
7A52
2252
2272
2202
2202
2E02
3202
4202
0202
03FE
0202
0000
ENDCHAR

STARTCHAR cns4_256F
ENCODING 9583
SWIDTH 854 0
DWIDTH 16 0
BBX 16 18 0 -2
BITMAP
0000
0000
7FFE
0100
2104
110C
0A70
02C0
0430
180C
6400
0FFE
1020
2440
4280
0180
1E7E
0000
ENDCHAR

STARTCHAR cns4_2570
ENCODING 9584
SWIDTH 854 0
DWIDTH 16 0
BBX 16 18 0 -2
BITMAP
0000
2010
2010
2090
3E90
2490
44FF
4510
6910
1810
08FE
1010
1010
2010
2010
43FF
0000
0000
ENDCHAR

STARTCHAR cns4_2571
ENCODING 9585
SWIDTH 854 0
DWIDTH 16 0
BBX 16 18 0 -2
BITMAP
0000
0100
0100
7FFE
0220
0410
0828
3426
4443
3FF8
0100
0100
7FFE
0100
0100
0100
0100
0000
ENDCHAR

STARTCHAR cns4_2572
ENCODING 9586
SWIDTH 854 0
DWIDTH 16 0
BBX 16 18 0 -2
BITMAP
0000
0200
0200
7FFE
0440
0C20
1018
300C
5FFB
1000
1FF8
1008
1008
1FF8
1000
1FFC
1000
0000
ENDCHAR

STARTCHAR cns4_2573
ENCODING 9587
SWIDTH 854 0
DWIDTH 16 0
BBX 16 18 0 -2
BITMAP
0000
0100
0100
7FFE
0240
0420
1818
6FF6
0810
0810
0FF0
0810
0810
0FF0
0810
0810
7FFF
0000
ENDCHAR

STARTCHAR cns4_2574
ENCODING 9588
SWIDTH 854 0
DWIDTH 16 0
BBX 16 18 0 -2
BITMAP
0000
0100
0100
7FFE
0220
0510
0A58
3426
4FF0
0010
0420
7FFE
0420
0820
0820
1020
2020
0000
ENDCHAR

STARTCHAR cns4_2575
ENCODING 9589
SWIDTH 854 0
DWIDTH 16 0
BBX 16 18 0 -2
BITMAP
0000
0100
0100
7FFE
0220
0C10
106C
3F83
5080
1080
1FFC
1080
1040
1044
1F34
700C
07E0
0000
ENDCHAR

STARTCHAR cns4_2576
ENCODING 9590
SWIDTH 854 0
DWIDTH 16 0
BBX 16 18 0 -2
BITMAP
0000
0100
0100
7FFE
0220
0430
0878
3F96
5113
1110
1110
1108
1108
2108
2124
2FD4
4012
0000
ENDCHAR

STARTCHAR cns4_2577
ENCODING 9591
SWIDTH 854 0
DWIDTH 16 0
BBX 16 18 0 -2
BITMAP
0000
0100
1FF8
1008
1008
1FF8
1008
1008
1FF8
1108
0100
7FFE
0280
0280
0440
1830
600E
0000
ENDCHAR

STARTCHAR cns4_2578
ENCODING 9592
SWIDTH 854 0
DWIDTH 16 0
BBX 16 18 0 -2
BITMAP
0000
1010
1010
1010
1010
7EFE
1010
1010
1010
7EFF
1018
1028
2828
2444
2444
4282
4301
0000
ENDCHAR

STARTCHAR cns4_2579
ENCODING 9593
SWIDTH 854 0
DWIDTH 16 0
BBX 16 18 0 -2
BITMAP
0000
0100
3FFC
0280
3448
0830
13CC
6003
0000
3FFF
0400
0FF8
0808
1010
0010
0020
01C0
0000
ENDCHAR

STARTCHAR cns4_257A
ENCODING 9594
SWIDTH 854 0
DWIDTH 16 0
BBX 16 18 0 -2
BITMAP
0000
0810
0810
0810
2F20
28FF
3F22
4142
6144
1244
0A84
0488
05C8
0838
102C
6043
0080
0000
ENDCHAR

STARTCHAR cns4_257B
ENCODING 9595
SWIDTH 854 0
DWIDTH 16 0
BBX 16 18 0 -2
BITMAP
0000
1020
1020
1020
1020
7E3F
2220
2220
2420
25FE
4502
4902
7102
1902
25FE
4102
0102
0000
ENDCHAR

STARTCHAR cns4_257C
ENCODING 9596
SWIDTH 854 0
DWIDTH 16 0
BBX 16 18 0 -2
BITMAP
0000
2108
2108
2108
7A08
2A5F
2C49
4A89
4A89
4909
4909
5111
3251
32D2
4B52
4812
0426
0000
ENDCHAR

STARTCHAR cns4_257D
ENCODING 9597
SWIDTH 854 0
DWIDTH 16 0
BBX 16 18 0 -2
BITMAP
0000
1014
1012
1010
21FF
7D10
2510
2510
4912
490A
490A
490A
710C
1965
258D
4715
0023
0000
ENDCHAR

STARTCHAR cns4_257E
ENCODING 9598
SWIDTH 854 0
DWIDTH 16 0
BBX 16 18 0 -2
BITMAP
0000
2122
2122
2122
21FE
7902
2800
2BFF
4A00
4A00
4A00
5200
7200
3200
2C00
4400
0800
0000
ENDCHAR

STARTCHAR cns4_2621
ENCODING 9761
SWIDTH 854 0
DWIDTH 16 0
BBX 16 18 0 -2
BITMAP
0000
2060
209E
2312
7A52
2A52
4A52
4A52
4A52
5252
5252
67D2
3052
289E
4090
0110
0210
0000
ENDCHAR

STARTCHAR cns4_2622
ENCODING 9762
SWIDTH 854 0
DWIDTH 16 0
BBX 16 18 0 -2
BITMAP
0000
7C20
0420
0440
0840
1084
1082
13FD
1001
7CFE
1082
1082
1082
1082
10FE
1082
7082
0000
ENDCHAR

STARTCHAR cns4_2623
ENCODING 9763
SWIDTH 854 0
DWIDTH 16 0
BBX 16 18 0 -2
BITMAP
0000
0100
1110
4920
7FFE
4002
4FF8
0018
0060
0180
7FFE
0100
0100
0100
0100
0100
0700
0000
ENDCHAR

STARTCHAR cns4_2624
ENCODING 9764
SWIDTH 854 0
DWIDTH 16 0
BBX 16 18 0 -2
BITMAP
0000
0420
0420
7FA0
0420
7FA0
40A0
5F20
0120
0620
04E0
1F20
7420
0421
0421
0421
3C3F
0000
ENDCHAR

STARTCHAR cns4_2625
ENCODING 9765
SWIDTH 854 0
DWIDTH 16 0
BBX 16 18 0 -2
BITMAP
0000
0100
2081
3FFF
4002
4004
3FFE
0200
07F0
0410
0820
0B20
10A0
0040
0040
7FFE
0000
0000
ENDCHAR

STARTCHAR cns4_2626
ENCODING 9766
SWIDTH 854 0
DWIDTH 16 0
BBX 16 18 0 -2
BITMAP
0000
0FF0
0810
0FF0
0810
0810
0FF0
0000
3FFC
0020
7FFE
0020
0820
0420
0020
0020
01E0
0000
ENDCHAR

STARTCHAR cns4_2627
ENCODING 9767
SWIDTH 854 0
DWIDTH 16 0
BBX 16 18 0 -2
BITMAP
0000
2020
2020
23FE
2222
7E24
2A20
2BFC
2A84
2A88
2A50
2A20
2A58
4C86
4800
47FF
0000
0000
ENDCHAR

STARTCHAR cns4_2628
ENCODING 9768
SWIDTH 854 0
DWIDTH 16 0
BBX 16 18 0 -2
BITMAP
0000
2020
2020
2040
7DFF
2840
2880
2880
28FE
2910
2910
4A10
4C10
49FF
4800
0801
0FFF
0000
ENDCHAR

STARTCHAR cns4_2629
ENCODING 9769
SWIDTH 854 0
DWIDTH 16 0
BBX 16 18 0 -2
BITMAP
0000
2400
2200
43FE
4120
0020
2420
2420
24FC
2420
2420
2420
2420
25FE
4401
4401
07FF
0000
ENDCHAR

STARTCHAR cns4_262A
ENCODING 9770
SWIDTH 854 0
DWIDTH 16 0
BBX 16 18 0 -2
BITMAP
0000
3FFC
2004
2004
3FFC
2004
2070
3F80
2100
3FF8
2018
2030
20C0
4B00
4C00
5300
20FF
0000
ENDCHAR

STARTCHAR cns4_262B
ENCODING 9771
SWIDTH 854 0
DWIDTH 16 0
BBX 16 18 0 -2
BITMAP
0000
0000
3FFE
2002
3FFE
2202
2208
2404
2C06
27F8
2410
2A10
3120
40C0
4160
461E
1800
0000
ENDCHAR

STARTCHAR cns4_262C
ENCODING 9772
SWIDTH 854 0
DWIDTH 16 0
BBX 16 18 0 -2
BITMAP
0000
0000
3FFC
2004
3FFC
2080
2098
2BE0
2C80
2880
2FFC
2984
2284
2488
48B8
4080
0080
0000
ENDCHAR

STARTCHAR cns4_262D
ENCODING 9773
SWIDTH 854 0
DWIDTH 16 0
BBX 16 18 0 -2
BITMAP
0000
0000
2104
2104
3FFC
2204
0400
3FF0
1210
1110
7FFF
1010
3610
2190
3FFE
2020
01E0
0000
ENDCHAR

STARTCHAR cns4_262E
ENCODING 9774
SWIDTH 854 0
DWIDTH 16 0
BBX 16 18 0 -2
BITMAP
0000
1020
102C
1022
55FF
5520
5520
5522
5522
5514
5514
5514
7D18
4549
4199
0625
0043
0000
ENDCHAR

STARTCHAR cns4_262F
ENCODING 9775
SWIDTH 854 0
DWIDTH 16 0
BBX 16 18 0 -2
BITMAP
0000
1000
13FC
1204
5604
5604
5604
57FC
5654
5450
5450
5490
7C91
4511
0111
021F
0400
0000
ENDCHAR

STARTCHAR cns4_2630
ENCODING 9776
SWIDTH 854 0
DWIDTH 16 0
BBX 16 18 0 -2
BITMAP
0000
100E
11F0
1100
55FE
5502
55FE
5500
55FC
5504
5508
5530
7D20
4641
0241
0241
043E
0000
ENDCHAR

STARTCHAR cns4_2631
ENCODING 9777
SWIDTH 854 0
DWIDTH 16 0
BBX 16 18 0 -2
BITMAP
0000
1084
1084
1FFC
0000
0FF0
0810
0810
0FF0
0000
7FFF
0800
1FF8
1008
0008
0010
00E0
0000
ENDCHAR

STARTCHAR cns4_2632
ENCODING 9778
SWIDTH 854 0
DWIDTH 16 0
BBX 16 18 0 -2
BITMAP
0000
1FF0
0010
0020
7CC6
04B8
0890
1088
2084
4383
0100
0100
1104
1104
1104
1FFC
1004
0000
ENDCHAR

STARTCHAR cns4_2633
ENCODING 9779
SWIDTH 854 0
DWIDTH 16 0
BBX 16 18 0 -2
BITMAP
0000
0100
2108
2108
3FF8
2008
7FFE
4000
4000
4FF8
4808
4808
4FF8
4808
4000
7FFE
4000
0000
ENDCHAR

STARTCHAR cns4_2634
ENCODING 9780
SWIDTH 854 0
DWIDTH 16 0
BBX 16 18 0 -2
BITMAP
0000
0100
2108
2108
2108
3FF8
2008
0000
3FFC
2104
2104
3FFC
2104
2104
3FFC
2004
2000
0000
ENDCHAR

STARTCHAR cns4_2635
ENCODING 9781
SWIDTH 854 0
DWIDTH 16 0
BBX 16 18 0 -2
BITMAP
0000
1010
1010
11FF
7D01
5502
5400
55FF
5410
5410
5410
5410
5410
5410
1010
1010
1070
0000
ENDCHAR

STARTCHAR cns4_2636
ENCODING 9782
SWIDTH 854 0
DWIDTH 16 0
BBX 16 18 0 -2
BITMAP
0000
1040
1040
10FE
7CC2
5544
5528
5610
5428
5444
5583
5660
5C30
5018
1060
1030
1018
0000
ENDCHAR

STARTCHAR cns4_2637
ENCODING 9783
SWIDTH 854 0
DWIDTH 16 0
BBX 16 18 0 -2
BITMAP
0000
0800
107C
1E44
2244
5244
0C5D
0841
107F
3080
5FFC
1084
1084
1084
1084
109C
0080
0000
ENDCHAR

STARTCHAR cns4_2638
ENCODING 9784
SWIDTH 854 0
DWIDTH 16 0
BBX 16 18 0 -2
BITMAP
0000
0080
0080
1FFF
1000
1040
1040
17FE
1000
1208
1208
1210
1210
2110
2120
5FFF
4000
0000
ENDCHAR

STARTCHAR cns4_2639
ENCODING 9785
SWIDTH 854 0
DWIDTH 16 0
BBX 16 18 0 -2
BITMAP
0000
0080
0080
3FFF
2080
20B0
2088
2FFF
2100
2188
2288
2250
2450
2420
4850
518C
0603
0000
ENDCHAR

STARTCHAR cns4_263A
ENCODING 9786
SWIDTH 854 0
DWIDTH 16 0
BBX 16 18 0 -2
BITMAP
0000
0080
0080
3FFF
2000
27F8
2408
2408
27F8
2408
2408
27F8
2408
4400
4000
5FFE
0000
0000
ENDCHAR

STARTCHAR cns4_263B
ENCODING 9787
SWIDTH 854 0
DWIDTH 16 0
BBX 16 18 0 -2
BITMAP
0000
0080
0080
3FFF
2000
27F8
2408
2408
2408
2408
27F8
2408
2000
2110
4208
4404
1806
0000
ENDCHAR

STARTCHAR cns4_263C
ENCODING 9788
SWIDTH 854 0
DWIDTH 16 0
BBX 16 18 0 -2
BITMAP
0000
0080
0080
3FFF
2200
2200
27FF
2480
2880
20FE
2080
2080
20FE
2080
4080
4080
0080
0000
ENDCHAR

STARTCHAR cns4_263D
ENCODING 9789
SWIDTH 854 0
DWIDTH 16 0
BBX 16 18 0 -2
BITMAP
0000
0080
0080
3FFF
20C0
2120
2210
2408
2BEC
3003
2FF8
2008
2010
2620
4140
4080
0040
0020
ENDCHAR

STARTCHAR cns4_263E
ENCODING 9790
SWIDTH 854 0
DWIDTH 16 0
BBX 16 18 0 -2
BITMAP
0000
0080
0080
3FFF
2200
2200
23FC
2440
2440
2840
3FFF
20C0
20A0
2110
4218
440C
1806
0000
ENDCHAR

STARTCHAR cns4_263F
ENCODING 9791
SWIDTH 854 0
DWIDTH 16 0
BBX 16 18 0 -2
BITMAP
0000
0100
3FFC
0100
0100
7FFF
0440
0842
147E
6420
7FFF
0420
0420
0820
0820
1020
2020
0000
ENDCHAR

STARTCHAR cns4_2640
ENCODING 9792
SWIDTH 854 0
DWIDTH 16 0
BBX 16 18 0 -2
BITMAP
0000
0000
79FC
0904
0904
79FC
4920
4120
41FF
7920
0910
0910
0910
0909
0969
1185
6603
0000
ENDCHAR

STARTCHAR cns4_2641
ENCODING 9793
SWIDTH 854 0
DWIDTH 16 0
BBX 16 18 0 -2
BITMAP
0000
0020
7820
09FE
0922
7924
4120
4120
41FC
7904
0944
0948
0A28
0A10
0A2C
1443
6980
0000
ENDCHAR

STARTCHAR cns4_2642
ENCODING 9794
SWIDTH 854 0
DWIDTH 16 0
BBX 16 18 0 -2
BITMAP
0000
0200
03F8
0408
0FF8
1010
7FFF
0A40
1440
2FFE
4C42
1442
2442
4442
045E
0440
0040
0000
ENDCHAR

STARTCHAR cns4_2643
ENCODING 9795
SWIDTH 854 0
DWIDTH 16 0
BBX 16 18 0 -2
BITMAP
0000
1002
1006
1008
1030
1F80
1002
1006
1008
7F10
4160
4103
4106
410C
7F10
4120
4140
0000
ENDCHAR

STARTCHAR cns4_2644
ENCODING 9796
SWIDTH 854 0
DWIDTH 16 0
BBX 16 18 0 -2
BITMAP
0000
0018
00E0
1F00
1000
1FFE
1040
1040
1040
1040
2040
2140
2484
2482
4412
4410
03F0
0000
ENDCHAR

STARTCHAR cns4_2645
ENCODING 9797
SWIDTH 854 0
DWIDTH 16 0
BBX 16 18 0 -2
BITMAP
0000
0180
02C0
0460
1838
6426
0420
0420
0420
0820
0820
0120
2884
2884
4812
4812
07E0
0000
ENDCHAR

STARTCHAR cns4_2646
ENCODING 9798
SWIDTH 854 0
DWIDTH 16 0
BBX 16 18 0 -2
BITMAP
0000
1020
1020
13FE
1202
5A04
5400
15FE
1020
1020
1020
1020
1020
1020
1020
1020
10E0
0000
ENDCHAR

STARTCHAR cns4_2647
ENCODING 9799
SWIDTH 854 0
DWIDTH 16 0
BBX 16 18 0 -2
BITMAP
0000
1020
1020
1020
1420
57FF
5020
5020
11FE
1060
10B0
10A8
112C
1226
1021
1020
1020
0000
ENDCHAR

STARTCHAR cns4_2648
ENCODING 9800
SWIDTH 854 0
DWIDTH 16 0
BBX 16 18 0 -2
BITMAP
0000
1040
1040
1040
1040
1BFE
5040
50A0
10A0
1110
1248
1444
1843
11F0
1040
1040
1040
0000
ENDCHAR

STARTCHAR cns4_2649
ENCODING 9801
SWIDTH 854 0
DWIDTH 16 0
BBX 16 18 0 -2
BITMAP
0000
1040
1040
1040
1BFF
5040
5088
5084
513E
17D1
1110
1110
1110
1210
1212
141E
1800
0000
ENDCHAR

STARTCHAR cns4_264A
ENCODING 9802
SWIDTH 854 0
DWIDTH 16 0
BBX 16 18 0 -2
BITMAP
0000
1000
11FE
1122
1522
5522
51FE
5122
1122
1122
11FE
1122
1020
1020
1020
1020
1020
0000
ENDCHAR

STARTCHAR cns4_264B
ENCODING 9803
SWIDTH 854 0
DWIDTH 16 0
BBX 16 18 0 -2
BITMAP
0000
1000
11FC
1104
1544
5524
5124
5104
17FF
1104
1144
1244
1228
13FE
1208
1008
1030
0000
ENDCHAR

STARTCHAR cns4_264C
ENCODING 9804
SWIDTH 854 0
DWIDTH 16 0
BBX 16 18 0 -2
BITMAP
0000
1020
1224
1224
1224
5A24
5224
53FC
1224
1020
1422
1422
1422
1422
17FE
1402
1000
0000
ENDCHAR

STARTCHAR cns4_264D
ENCODING 9805
SWIDTH 854 0
DWIDTH 16 0
BBX 16 18 0 -2
BITMAP
0000
1080
1080
11FC
1104
5A88
5250
5420
1050
118C
1603
1060
1010
1000
1060
1010
1008
0000
ENDCHAR

STARTCHAR cns4_264E
ENCODING 9806
SWIDTH 854 0
DWIDTH 16 0
BBX 16 18 0 -2
BITMAP
0000
1084
1084
1084
1104
5DFF
5304
5304
1544
1124
1124
1124
1104
1104
1104
1104
111C
0000
ENDCHAR

STARTCHAR cns4_264F
ENCODING 9807
SWIDTH 854 0
DWIDTH 16 0
BBX 16 18 0 -2
BITMAP
0000
1006
1038
11D0
5D10
5110
5110
11FF
1110
1110
1110
1108
1109
11E5
1003
11FD
1000
0000
ENDCHAR

STARTCHAR cns4_2650
ENCODING 9808
SWIDTH 854 0
DWIDTH 16 0
BBX 16 18 0 -2
BITMAP
0000
3FFE
0200
0200
3FF0
0210
0410
0410
7FFF
0000
0D84
2842
2802
4801
0811
0810
07E0
0000
ENDCHAR

STARTCHAR cns4_2651
ENCODING 9809
SWIDTH 854 0
DWIDTH 16 0
BBX 16 18 0 -2
BITMAP
0000
1000
11E0
1020
5050
5C88
5104
1203
15FC
1020
1020
1020
1020
1020
1020
17FF
1000
0000
ENDCHAR

STARTCHAR cns4_2652
ENCODING 9810
SWIDTH 854 0
DWIDTH 16 0
BBX 16 18 0 -2
BITMAP
0000
2000
29FC
2424
2424
2024
7EFC
2024
2424
2424
28FC
1824
1025
2945
2945
4545
0303
0000
ENDCHAR

STARTCHAR cns4_2653
ENCODING 9811
SWIDTH 854 0
DWIDTH 16 0
BBX 16 18 0 -2
BITMAP
0000
0050
0048
0040
7FFF
1840
1440
2344
5CC4
0048
7F28
0130
0220
0451
0889
0305
0C03
0000
ENDCHAR

STARTCHAR cns4_2654
ENCODING 9812
SWIDTH 854 0
DWIDTH 16 0
BBX 16 18 0 -2
BITMAP
0000
1120
1120
2128
32A4
4C62
7FFF
0020
0020
0026
0014
0018
0010
0039
0049
0185
0603
0000
ENDCHAR

STARTCHAR cns4_2655
ENCODING 9813
SWIDTH 854 0
DWIDTH 16 0
BBX 16 18 0 -2
BITMAP
0000
001C
1FE0
1000
1FFC
1004
1004
1FFC
1080
1FFE
1180
12C0
22A0
2490
288C
5086
4080
0000
ENDCHAR

STARTCHAR cns4_2656
ENCODING 9814
SWIDTH 854 0
DWIDTH 16 0
BBX 16 18 0 -2
BITMAP
0000
001C
1FE0
1000
1FFC
1004
1FF8
1000
1FE0
1220
13F8
1288
2288
2450
2430
48CC
5703
0000
ENDCHAR

STARTCHAR cns4_2657
ENCODING 9815
SWIDTH 854 0
DWIDTH 16 0
BBX 16 18 0 -2
BITMAP
0000
440C
45F0
4410
4410
4410
7DFE
4410
0410
7C10
27FF
2410
2410
2410
4410
4410
0470
0000
ENDCHAR

STARTCHAR cns4_2658
ENCODING 9816
SWIDTH 854 0
DWIDTH 16 0
BBX 16 18 0 -2
BITMAP
0000
1020
1220
13FF
1201
7A02
1004
1030
1090
1490
3908
5108
1108
1104
1206
1203
7400
0000
ENDCHAR

STARTCHAR cns4_2659
ENCODING 9817
SWIDTH 854 0
DWIDTH 16 0
BBX 16 18 0 -2
BITMAP
0000
1080
1060
1024
1004
7C88
1088
1090
1094
11A2
1AA1
72C1
1084
1184
1684
10FC
7000
0000
ENDCHAR

STARTCHAR cns4_265A
ENCODING 9818
SWIDTH 854 0
DWIDTH 16 0
BBX 16 18 0 -2
BITMAP
0000
0810
0810
0810
7F7F
0810
0810
3E10
2AFE
2A42
2A44
2A24
2A38
2A10
2E28
08C6
0901
0000
ENDCHAR

STARTCHAR cns4_265B
ENCODING 9819
SWIDTH 854 0
DWIDTH 16 0
BBX 16 18 0 -2
BITMAP
0000
2408
2408
2408
247F
2408
3F08
247E
2422
2422
2422
2414
2414
2488
3494
47A2
00C1
0000
ENDCHAR

STARTCHAR cns4_265C
ENCODING 9820
SWIDTH 854 0
DWIDTH 16 0
BBX 16 18 0 -2
BITMAP
0000
0810
0810
2820
3F20
493F
4844
0E44
1464
14A4
1414
1418
2408
2518
4624
1846
0183
0000
ENDCHAR

STARTCHAR cns4_265D
ENCODING 9821
SWIDTH 854 0
DWIDTH 16 0
BBX 16 18 0 -2
BITMAP
0000
2410
2410
2420
2420
243F
3F44
2444
2464
24A4
2414
2418
2488
2498
34A4
47C6
0003
0000
ENDCHAR

STARTCHAR cns4_265E
ENCODING 9822
SWIDTH 854 0
DWIDTH 16 0
BBX 16 18 0 -2
BITMAP
0000
0810
0C10
1410
1220
223F
3F22
40C2
0064
3F24
0124
0218
0208
0408
041C
0826
08C3
0000
ENDCHAR

STARTCHAR cns4_265F
ENCODING 9823
SWIDTH 854 0
DWIDTH 16 0
BBX 16 18 0 -2
BITMAP
0000
2010
2010
7E10
401F
0010
3E10
0010
7EFE
0222
0C22
1024
2014
4208
4218
7E66
0181
0000
ENDCHAR

STARTCHAR cns4_2660
ENCODING 9824
SWIDTH 854 0
DWIDTH 16 0
BBX 16 18 0 -2
BITMAP
0000
0810
0810
0F1E
7810
0810
4A10
4AFE
4A42
4A44
4A44
7E24
4A28
4810
0928
0E46
1883
0000
ENDCHAR

STARTCHAR cns4_2661
ENCODING 9825
SWIDTH 854 0
DWIDTH 16 0
BBX 16 18 0 -2
BITMAP
0000
0000
7838
4888
4888
4908
4904
7A46
4A43
4C40
4C80
4890
7888
4904
413C
07C2
0000
0000
ENDCHAR

STARTCHAR cns4_2662
ENCODING 9826
SWIDTH 854 0
DWIDTH 16 0
BBX 16 18 0 -2
BITMAP
0000
0080
2084
2084
3FFC
2084
0080
7FFF
0000
1FFC
1004
1004
1FFC
1004
1004
1FFC
1004
0000
ENDCHAR

STARTCHAR cns4_2663
ENCODING 9827
SWIDTH 854 0
DWIDTH 16 0
BBX 16 18 0 -2
BITMAP
0000
0800
0800
1FFE
1122
2222
4442
0884
1104
0638
3FFC
2004
3FFC
2004
2004
3FFC
2004
0000
ENDCHAR

STARTCHAR cns4_2664
ENCODING 9828
SWIDTH 854 0
DWIDTH 16 0
BBX 16 18 0 -2
BITMAP
0000
7C00
47FE
4440
4440
7C40
4440
47FC
4484
7C84
4484
4484
4484
4504
4504
5BFF
0000
0000
ENDCHAR

STARTCHAR cns4_2665
ENCODING 9829
SWIDTH 854 0
DWIDTH 16 0
BBX 16 18 0 -2
BITMAP
0000
1040
1040
1040
1F7C
1041
1041
137F
7CC0
0080
7FFF
02C0
04A0
0C98
3086
4081
0080
0000
ENDCHAR

STARTCHAR cns4_2666
ENCODING 9830
SWIDTH 854 0
DWIDTH 16 0
BBX 16 18 0 -2
BITMAP
0000
1002
11F2
1012
1012
7E12
11F2
3102
3D02
37F2
5212
5012
1012
1012
1012
1022
11C2
0000
ENDCHAR

STARTCHAR cns4_2667
ENCODING 9831
SWIDTH 854 0
DWIDTH 16 0
BBX 16 18 0 -2
BITMAP
0000
1004
1018
13E8
1248
7E48
1248
3248
3A48
5648
5244
1244
1244
1444
1442
1842
1041
0000
ENDCHAR

STARTCHAR cns4_2668
ENCODING 9832
SWIDTH 854 0
DWIDTH 16 0
BBX 16 18 0 -2
BITMAP
0000
0440
0440
7C7F
0440
0440
0100
0100
7FFF
0380
05C0
0560
0910
310E
6103
0100
0100
0000
ENDCHAR

STARTCHAR cns4_2669
ENCODING 9833
SWIDTH 854 0
DWIDTH 16 0
BBX 16 18 0 -2
BITMAP
0000
1020
1020
1020
13FF
7E20
1020
31FE
3922
3522
5122
5122
1122
1122
112E
1020
1020
0000
ENDCHAR

STARTCHAR cns4_266A
ENCODING 9834
SWIDTH 854 0
DWIDTH 16 0
BBX 16 18 0 -2
BITMAP
0000
1000
1088
1088
1088
7C88
1088
1088
3888
354C
5554
5154
1252
1222
1422
1441
1881
0000
ENDCHAR

STARTCHAR cns4_266B
ENCODING 9835
SWIDTH 854 0
DWIDTH 16 0
BBX 16 18 0 -2
BITMAP
0000
0080
0080
0880
08FC
0880
0880
3FFF
0080
7FFF
01C0
02A0
0490
088C
3083
4080
0080
0000
ENDCHAR

STARTCHAR cns4_266C
ENCODING 9836
SWIDTH 854 0
DWIDTH 16 0
BBX 16 18 0 -2
BITMAP
0000
0020
7FA0
1220
123F
1222
1254
7FD0
1210
1210
1210
1228
1228
2224
2244
2282
4303
0000
ENDCHAR

STARTCHAR cns4_266D
ENCODING 9837
SWIDTH 854 0
DWIDTH 16 0
BBX 16 18 0 -2
BITMAP
0000
2020
2020
2020
7F7E
4042
5E54
0090
7C10
0410
0810
1030
2028
4248
4244
3E86
0103
0000
ENDCHAR

STARTCHAR cns4_266E
ENCODING 9838
SWIDTH 854 0
DWIDTH 16 0
BBX 16 18 0 -2
BITMAP
0000
0020
2020
2020
3F7E
2142
4A54
4C90
0810
0810
1810
1428
1428
2448
2244
4386
0103
0000
ENDCHAR

STARTCHAR cns4_266F
ENCODING 9839
SWIDTH 854 0
DWIDTH 16 0
BBX 16 18 0 -2
BITMAP
0000
0E20
2220
2220
417F
0141
7E92
1010
2010
3F10
4130
0128
0128
0224
0244
0482
3903
0000
ENDCHAR

STARTCHAR cns4_2670
ENCODING 9840
SWIDTH 854 0
DWIDTH 16 0
BBX 16 18 0 -2
BITMAP
0000
0820
0820
1420
143F
2242
2114
4090
2210
2210
2218
2228
2224
2244
4242
4282
0201
0000
ENDCHAR

STARTCHAR cns4_2671
ENCODING 9841
SWIDTH 854 0
DWIDTH 16 0
BBX 16 18 0 -2
BITMAP
0000
1020
1020
1F20
107F
1041
7F52
0112
0110
0910
3110
4128
0128
0244
0244
0482
1903
0000
ENDCHAR

STARTCHAR cns4_2672
ENCODING 9842
SWIDTH 854 0
DWIDTH 16 0
BBX 16 18 0 -2
BITMAP
0000
1010
1010
1010
1010
1090
7490
149E
1490
1490
1490
1490
1490
1690
1890
63FF
0000
0000
ENDCHAR

STARTCHAR cns4_2673
ENCODING 9843
SWIDTH 854 0
DWIDTH 16 0
BBX 16 18 0 -2
BITMAP
0000
0020
7E20
2020
21FC
3C24
2424
4444
47FF
6860
5860
0890
1090
1108
2104
4203
0400
0000
ENDCHAR

STARTCHAR cns4_2674
ENCODING 9844
SWIDTH 854 0
DWIDTH 16 0
BBX 16 18 0 -2
BITMAP
0000
0020
7E20
2020
203F
3C20
2420
4420
4BFC
2884
1888
0848
1030
1030
2048
4184
0603
0000
ENDCHAR

STARTCHAR cns4_2675
ENCODING 9845
SWIDTH 854 0
DWIDTH 16 0
BBX 16 18 0 -2
BITMAP
0000
0020
7E20
2020
2020
3C20
2420
443F
4520
6920
1920
0920
1120
11A0
2260
4238
0407
0000
ENDCHAR

STARTCHAR cns4_2676
ENCODING 9846
SWIDTH 854 0
DWIDTH 16 0
BBX 16 18 0 -2
BITMAP
0000
000E
7EF0
2080
2080
2080
3CFF
4488
4488
4888
2888
1888
1088
1108
2108
4108
0208
0000
ENDCHAR

STARTCHAR cns4_2677
ENCODING 9847
SWIDTH 854 0
DWIDTH 16 0
BBX 16 18 0 -2
BITMAP
0000
0000
7D02
2106
2186
3D4A
454A
453A
4512
4912
292A
112A
1146
2186
2102
41FE
0102
0000
ENDCHAR

STARTCHAR cns4_2678
ENCODING 9848
SWIDTH 854 0
DWIDTH 16 0
BBX 16 18 0 -2
BITMAP
0000
0800
0878
4848
7FC8
48C9
4949
0C8F
1400
14FC
1444
1444
2448
2428
4730
406C
0183
0000
ENDCHAR

STARTCHAR cns4_2679
ENCODING 9849
SWIDTH 854 0
DWIDTH 16 0
BBX 16 18 0 -2
BITMAP
0000
1000
100C
1030
7EE0
102C
10F0
7E20
4226
4478
25A0
2820
1022
283E
2600
41FF
0000
0000
ENDCHAR

STARTCHAR cns4_267A
ENCODING 9850
SWIDTH 854 0
DWIDTH 16 0
BBX 16 18 0 -2
BITMAP
0000
4800
480C
4830
48E0
4826
7E38
41E0
4020
7E26
4438
45E0
4420
4420
4422
443E
4400
0000
ENDCHAR

STARTCHAR cns4_267B
ENCODING 9851
SWIDTH 854 0
DWIDTH 16 0
BBX 16 18 0 -2
BITMAP
0000
47FE
2402
1402
0402
07FE
4C40
2C40
15F8
1448
2448
2448
6489
2889
2909
290F
3200
0000
ENDCHAR

STARTCHAR cns4_267C
ENCODING 9852
SWIDTH 854 0
DWIDTH 16 0
BBX 16 18 0 -2
BITMAP
0000
0200
6200
1200
0200
03F8
4200
2A02
1202
11FE
2040
2040
67FE
E040
2040
3FFF
2000
0000
ENDCHAR

STARTCHAR cns4_267D
ENCODING 9853
SWIDTH 854 0
DWIDTH 16 0
BBX 16 18 0 -2
BITMAP
0000
0020
4020
2020
07FF
0820
4924
3124
1124
1FFF
2104
2104
6204
2204
2404
2404
2804
0000
ENDCHAR

STARTCHAR cns4_267E
ENCODING 9854
SWIDTH 854 0
DWIDTH 16 0
BBX 16 18 0 -2
BITMAP
0000
0120
4120
2120
2120
0FE0
5120
3320
13A0
2560
2520
2920
3121
6121
2121
213F
2100
0000
ENDCHAR

STARTCHAR cns4_2721
ENCODING 10017
SWIDTH 854 0
DWIDTH 16 0
BBX 16 18 0 -2
BITMAP
0000
0000
63FE
1202
02FA
024A
4A4A
2A4A
0A4A
1232
1232
2252
624A
2286
23FE
2202
2000
0000
ENDCHAR

STARTCHAR cns4_2722
ENCODING 10018
SWIDTH 854 0
DWIDTH 16 0
BBX 16 18 0 -2
BITMAP
0000
0020
4020
2020
07FF
0880
4904
3202
17FF
2089
2088
2088
2109
6109
2209
240F
2800
0000
ENDCHAR

STARTCHAR cns4_2723
ENCODING 10019
SWIDTH 854 0
DWIDTH 16 0
BBX 16 18 0 -2
BITMAP
0000
200E
1078
13A0
0020
4820
2BFF
3060
1070
10B0
20A8
212C
6126
2223
2421
2020
0020
0000
ENDCHAR

STARTCHAR cns4_2724
ENCODING 10020
SWIDTH 854 0
DWIDTH 16 0
BBX 16 18 0 -2
BITMAP
0000
47FE
2402
2402
0402
47FE
2C00
2CF8
1488
1488
2488
2488
6889
2909
2909
2A0F
3400
0000
ENDCHAR

STARTCHAR cns4_2725
ENCODING 10021
SWIDTH 854 0
DWIDTH 16 0
BBX 16 18 0 -2
BITMAP
0000
0040
4040
23FC
0244
4A44
2BFC
2A44
1244
1244
2FFF
2204
6204
2204
2204
2204
221C
0000
ENDCHAR

STARTCHAR cns4_2726
ENCODING 10022
SWIDTH 854 0
DWIDTH 16 0
BBX 16 18 0 -2
BITMAP
0000
0100
4100
2100
23FF
0222
4024
2820
3020
1124
2124
2122
6222
2223
2421
2020
20E0
0000
ENDCHAR

STARTCHAR cns4_2727
ENCODING 10023
SWIDTH 854 0
DWIDTH 16 0
BBX 16 18 0 -2
BITMAP
0000
0070
1010
1010
1010
16FE
5492
3892
30B2
10AA
10CA
10CA
1886
2482
2282
2082
408E
0000
ENDCHAR

STARTCHAR cns4_2728
ENCODING 10024
SWIDTH 854 0
DWIDTH 16 0
BBX 16 18 0 -2
BITMAP
0000
1080
1080
1080
14FE
14AA
192A
514A
514A
5252
2092
2092
3122
2922
4A44
4044
0098
0000
ENDCHAR

STARTCHAR cns4_2729
ENCODING 10025
SWIDTH 854 0
DWIDTH 16 0
BBX 16 18 0 -2
BITMAP
0000
0420
0420
7FFF
0420
0420
07E0
0420
0100
0100
3198
0960
0240
0620
0C30
300C
4003
0000
ENDCHAR

STARTCHAR cns4_272A
ENCODING 10026
SWIDTH 854 0
DWIDTH 16 0
BBX 16 18 0 -2
BITMAP
0000
0080
008C
7CD0
04A0
0890
108C
6386
0000
0100
0100
3198
0A60
0240
0420
0818
3006
0000
ENDCHAR

STARTCHAR cns4_272B
ENCODING 10027
SWIDTH 854 0
DWIDTH 16 0
BBX 16 18 0 -2
BITMAP
0000
0100
210C
1A18
0360
06C0
0838
348E
4C80
0880
1880
28FE
4880
0880
0881
0881
087F
0000
ENDCHAR

STARTCHAR cns4_272C
ENCODING 10028
SWIDTH 854 0
DWIDTH 16 0
BBX 16 18 0 -2
BITMAP
0000
0000
003C
3FC0
000C
2210
1120
0800
1FFC
0080
0080
7FFF
0080
0080
0080
3FFE
0000
0000
ENDCHAR

STARTCHAR cns4_272D
ENCODING 10029
SWIDTH 854 0
DWIDTH 16 0
BBX 16 18 0 -2
BITMAP
0000
2410
2410
2410
2413
2412
3DDC
2458
0458
7C54
1494
1494
1492
2512
2511
2611
4470
0000
ENDCHAR

STARTCHAR cns4_272E
ENCODING 10030
SWIDTH 854 0
DWIDTH 16 0
BBX 16 18 0 -2
BITMAP
0000
4878
4848
4848
4849
4849
7E8F
4000
41FC
7E44
4844
4828
4828
4810
4828
48C6
4303
0000
ENDCHAR

STARTCHAR cns4_272F
ENCODING 10031
SWIDTH 854 0
DWIDTH 16 0
BBX 16 18 0 -2
BITMAP
0000
0808
2808
2848
4828
7E28
4808
4848
0828
0828
0E0B
187C
6B88
0808
0808
0808
0808
0000
ENDCHAR

STARTCHAR cns4_2730
ENCODING 10032
SWIDTH 854 0
DWIDTH 16 0
BBX 16 18 0 -2
BITMAP
0000
1020
5020
5122
51FE
7F22
5222
5030
1030
1050
1C50
7050
1091
1091
1111
121F
1000
0000
ENDCHAR

STARTCHAR cns4_2731
ENCODING 10033
SWIDTH 854 0
DWIDTH 16 0
BBX 16 18 0 -2
BITMAP
0000
0820
2828
2824
2824
7E20
49FE
4820
0A24
0C24
1828
6818
0810
0829
0849
0985
0E03
0000
ENDCHAR

STARTCHAR cns4_2732
ENCODING 10034
SWIDTH 854 0
DWIDTH 16 0
BBX 16 18 0 -2
BITMAP
0000
1000
505C
5044
5084
7E84
5102
5102
13FD
1044
1C44
7044
1084
1084
1104
1108
1630
0000
ENDCHAR

STARTCHAR cns4_2733
ENCODING 10035
SWIDTH 854 0
DWIDTH 16 0
BBX 16 18 0 -2
BITMAP
0000
1010
5010
5010
57FF
7E10
5010
51FE
1112
1112
1D12
7112
1112
1112
1116
1010
1010
0000
ENDCHAR

STARTCHAR cns4_2734
ENCODING 10036
SWIDTH 854 0
DWIDTH 16 0
BBX 16 18 0 -2
BITMAP
0000
1020
1828
1424
1424
1020
7FFE
1020
1020
1030
3050
2850
2848
2488
4284
4302
4200
0000
ENDCHAR

STARTCHAR cns4_2735
ENCODING 10037
SWIDTH 854 0
DWIDTH 16 0
BBX 16 18 0 -2
BITMAP
0000
080E
49F0
3110
2110
5110
111E
11F0
1910
2910
2908
4909
0969
0985
0E05
11F3
6000
0000
ENDCHAR

STARTCHAR cns4_2736
ENCODING 10038
SWIDTH 854 0
DWIDTH 16 0
BBX 16 18 0 -2
BITMAP
0000
0908
4908
3108
2208
523F
1489
1489
2A89
2909
4909
0A11
0A91
1452
17E2
102C
6040
0000
ENDCHAR

STARTCHAR cns4_2737
ENCODING 10039
SWIDTH 854 0
DWIDTH 16 0
BBX 16 18 0 -2
BITMAP
0000
0814
0812
0812
7F90
08FF
0810
7F10
4928
4928
4928
4928
4944
4944
4B82
0881
0900
0000
ENDCHAR

STARTCHAR cns4_2738
ENCODING 10040
SWIDTH 854 0
DWIDTH 16 0
BBX 16 18 0 -2
BITMAP
0000
0820
4828
3024
2024
53FF
1020
1124
1924
2924
4924
0924
0924
1125
1225
1225
6427
0000
ENDCHAR

STARTCHAR cns4_2739
ENCODING 10041
SWIDTH 854 0
DWIDTH 16 0
BBX 16 18 0 -2
BITMAP
0000
1100
5100
2100
23EF
6129
1129
1129
3129
3129
5129
1229
1229
1249
144F
2589
6800
0000
ENDCHAR

STARTCHAR cns4_273A
ENCODING 10042
SWIDTH 854 0
DWIDTH 16 0
BBX 16 18 0 -2
BITMAP
0000
0820
5820
3020
21FC
5124
1124
1124
2924
2FFF
4830
0850
0850
1088
1084
1303
6600
0000
ENDCHAR

STARTCHAR cns4_273B
ENCODING 10043
SWIDTH 854 0
DWIDTH 16 0
BBX 16 18 0 -2
BITMAP
0000
0040
0050
7E48
1048
1040
17FF
1060
1060
7860
1090
1090
1290
1D08
620C
0407
1803
0000
ENDCHAR

STARTCHAR cns4_273C
ENCODING 10044
SWIDTH 854 0
DWIDTH 16 0
BBX 16 18 0 -2
BITMAP
0000
0020
0020
7E7E
1042
1082
1082
1124
7A18
11FC
1084
1288
1C48
6030
0070
01CC
0F07
0000
ENDCHAR

STARTCHAR cns4_273D
ENCODING 10045
SWIDTH 854 0
DWIDTH 16 0
BBX 16 18 0 -2
BITMAP
0000
0480
0460
0206
7FF8
0182
0062
001C
7FFF
0400
07E0
0420
0A20
0921
0821
0B21
7C3F
0000
ENDCHAR

STARTCHAR cns4_273E
ENCODING 10046
SWIDTH 854 0
DWIDTH 16 0
BBX 16 18 0 -2
BITMAP
0000
2200
22FE
2210
2210
7F10
2210
23FF
2210
3E10
2210
2210
2210
2210
3E10
2210
2210
0000
ENDCHAR

STARTCHAR cns4_273F
ENCODING 10047
SWIDTH 854 0
DWIDTH 16 0
BBX 16 18 0 -2
BITMAP
0000
0000
7DFC
5420
5420
5420
5420
7C20
57FE
5420
5420
5420
7C20
4420
4420
0020
0020
0000
ENDCHAR

STARTCHAR cns4_2740
ENCODING 10048
SWIDTH 854 0
DWIDTH 16 0
BBX 16 18 0 -2
BITMAP
0000
1040
1040
7E40
52FE
5282
7F02
5202
5242
5232
7E12
5202
5002
1002
1002
103C
1000
0000
ENDCHAR

STARTCHAR cns4_2741
ENCODING 10049
SWIDTH 854 0
DWIDTH 16 0
BBX 16 18 0 -2
BITMAP
0000
0100
0100
3FFC
2104
3FFC
2104
3FFC
2004
0420
0420
7FFF
0420
0420
0820
1820
6020
0000
ENDCHAR

STARTCHAR cns4_2742
ENCODING 10050
SWIDTH 854 0
DWIDTH 16 0
BBX 16 18 0 -2
BITMAP
0000
0000
0092
7C92
5492
5494
5524
7D24
5648
5648
5524
54A4
7C92
4492
004A
0049
0000
0000
ENDCHAR

STARTCHAR cns4_2743
ENCODING 10051
SWIDTH 854 0
DWIDTH 16 0
BBX 16 18 0 -2
BITMAP
0000
0080
0080
1FFF
1000
5000
5FFF
5040
1040
1040
3060
5058
104C
2040
2040
2040
4040
0000
ENDCHAR

STARTCHAR cns4_2744
ENCODING 10052
SWIDTH 854 0
DWIDTH 16 0
BBX 16 18 0 -2
BITMAP
0000
0080
0080
1FFF
1018
13E0
5080
5080
1080
1FFE
3080
5080
1080
2082
2082
2082
40FE
0000
ENDCHAR

STARTCHAR cns4_2745
ENCODING 10053
SWIDTH 854 0
DWIDTH 16 0
BBX 16 18 0 -2
BITMAP
0000
0080
0080
1FFF
1080
1080
5080
5FF8
1088
1088
3188
5108
1148
2229
2409
2C0F
5000
0000
ENDCHAR

STARTCHAR cns4_2746
ENCODING 10054
SWIDTH 854 0
DWIDTH 16 0
BBX 16 18 0 -2
BITMAP
0000
0820
0820
0820
3F20
29FC
2A24
3E24
2224
22E4
3264
2C54
244C
4A84
4A82
1102
2201
0000
ENDCHAR

STARTCHAR cns4_2747
ENCODING 10055
SWIDTH 854 0
DWIDTH 16 0
BBX 16 18 0 -2
BITMAP
0000
0100
0100
7FFE
1000
1000
1000
1000
1000
0FF8
0000
1FF8
1248
1248
1248
7FFE
0000
0000
ENDCHAR

STARTCHAR cns4_2748
ENCODING 10056
SWIDTH 854 0
DWIDTH 16 0
BBX 16 18 0 -2
BITMAP
0000
0000
1FFC
0100
0100
3FFE
0100
0100
0100
0100
0100
1FF8
1248
1248
1248
7FFF
0000
0000
ENDCHAR

STARTCHAR cns4_2749
ENCODING 10057
SWIDTH 854 0
DWIDTH 16 0
BBX 16 18 0 -2
BITMAP
0000
0000
1FFC
0080
0080
0080
0080
0080
7FFE
0000
1FF8
1248
1248
1248
124A
7FFF
0000
0000
ENDCHAR

STARTCHAR cns4_274A
ENCODING 10058
SWIDTH 854 0
DWIDTH 16 0
BBX 16 18 0 -2
BITMAP
0000
0000
7FFE
4422
4422
4422
7D22
44A2
4462
7C22
4422
4442
4444
7C44
4484
0138
0000
0000
ENDCHAR

STARTCHAR cns4_274B
ENCODING 10059
SWIDTH 854 0
DWIDTH 16 0
BBX 16 18 0 -2
BITMAP
0000
0000
79F8
4908
4908
4908
7908
4948
4928
7928
4908
4908
4A09
7A09
4A09
040F
0000
0000
ENDCHAR

STARTCHAR cns4_274C
ENCODING 10060
SWIDTH 854 0
DWIDTH 16 0
BBX 16 18 0 -2
BITMAP
0000
0040
0040
7840
4840
4BF8
7848
4848
4848
4848
7948
4884
48C4
4925
7905
4A05
0403
0000
ENDCHAR

STARTCHAR cns4_274D
ENCODING 10061
SWIDTH 854 0
DWIDTH 16 0
BBX 16 18 0 -2
BITMAP
0000
000E
7838
4BE0
4820
4820
7820
4FFF
4820
4820
7820
4820
4820
4820
7820
4820
4020
0000
ENDCHAR

STARTCHAR cns4_274E
ENCODING 10062
SWIDTH 854 0
DWIDTH 16 0
BBX 16 18 0 -2
BITMAP
0000
0004
7F08
4210
4220
4240
7E86
4204
4208
4230
7EC2
4202
4204
4208
7E10
4230
42C0
0000
ENDCHAR

STARTCHAR cns4_274F
ENCODING 10063
SWIDTH 854 0
DWIDTH 16 0
BBX 16 18 0 -2
BITMAP
0000
0000
7BFE
4846
4924
4994
7A84
4A84
4848
4848
7848
4830
4830
4850
788C
4B03
0000
0000
ENDCHAR

STARTCHAR cns4_2750
ENCODING 10064
SWIDTH 854 0
DWIDTH 16 0
BBX 16 18 0 -2
BITMAP
0000
1FF8
1008
1FF8
1008
1FF8
1008
1FF8
1428
0420
0420
7FFF
0420
0820
0820
1020
6020
0000
ENDCHAR

STARTCHAR cns4_2751
ENCODING 10065
SWIDTH 854 0
DWIDTH 16 0
BBX 16 18 0 -2
BITMAP
0000
0060
7E40
0340
247F
1843
0882
7FC2
08A2
1922
1A12
2802
2802
4802
0802
0824
381C
0000
ENDCHAR

STARTCHAR cns4_2752
ENCODING 10066
SWIDTH 854 0
DWIDTH 16 0
BBX 16 18 0 -2
BITMAP
0000
0080
7880
0900
09FE
7A20
4A20
4020
47FF
7C20
4850
0850
0888
0888
1104
1202
6401
0000
ENDCHAR

STARTCHAR cns4_2753
ENCODING 10067
SWIDTH 854 0
DWIDTH 16 0
BBX 16 18 0 -2
BITMAP
0000
0000
7DFE
1002
1122
2194
2284
7E44
6444
2448
2428
2430
2410
3C30
244C
2486
2303
0000
ENDCHAR

STARTCHAR cns4_2754
ENCODING 10068
SWIDTH 854 0
DWIDTH 16 0
BBX 16 18 0 -2
BITMAP
0000
0020
7E20
1020
11FF
2100
2100
3D00
6500
2500
2500
2500
2500
3D00
2500
25FF
0000
0000
ENDCHAR

STARTCHAR cns4_2755
ENCODING 10069
SWIDTH 854 0
DWIDTH 16 0
BBX 16 18 0 -2
BITMAP
0000
0700
78FE
0802
0904
7F18
0810
1810
1C13
1A1C
29F0
2890
4810
4810
0810
0810
08F0
0000
ENDCHAR

STARTCHAR cns4_2756
ENCODING 10070
SWIDTH 854 0
DWIDTH 16 0
BBX 16 18 0 -2
BITMAP
0000
0480
1880
7080
11FE
1102
7F02
1602
1082
3862
3422
5002
5002
1002
1004
1004
1038
0000
ENDCHAR

STARTCHAR cns4_2757
ENCODING 10071
SWIDTH 854 0
DWIDTH 16 0
BBX 16 18 0 -2
BITMAP
0000
0640
3840
D080
10FF
1100
1000
FE7E
1002
1004
1018
3020
3840
5480
5501
9101
10FF
0000
ENDCHAR

STARTCHAR cns4_2758
ENCODING 10072
SWIDTH 854 0
DWIDTH 16 0
BBX 16 18 0 -2
BITMAP
0000
2080
3FFE
4002
4444
0440
0842
113E
6100
7FFF
1000
1000
1000
1000
1000
1000
0FFC
0000
ENDCHAR

STARTCHAR cns4_2759
ENCODING 10073
SWIDTH 854 0
DWIDTH 16 0
BBX 16 18 0 -2
BITMAP
0000
0100
2100
3FFF
2441
4440
4442
0842
117E
6100
0100
3FFC
0100
0100
0100
7FFF
0000
0000
ENDCHAR

STARTCHAR cns4_275A
ENCODING 10074
SWIDTH 854 0
DWIDTH 16 0
BBX 16 18 0 -2
BITMAP
0000
0100
2100
3FFF
2002
4444
0442
0842
313E
0200
7FFF
0420
0C20
1840
07C0
0330
1C0C
0000
ENDCHAR

STARTCHAR cns4_275B
ENCODING 10075
SWIDTH 854 0
DWIDTH 16 0
BBX 16 18 0 -2
BITMAP
0000
0100
0100
7FFE
0830
0420
0440
7FFF
0420
0420
0420
7FFF
0420
0420
0820
0820
3020
0000
ENDCHAR

STARTCHAR cns4_275C
ENCODING 10076
SWIDTH 854 0
DWIDTH 16 0
BBX 16 18 0 -2
BITMAP
0000
0820
1020
2420
4420
49FC
3024
1024
2224
7F24
0144
0444
5444
5444
4082
0083
0101
0000
ENDCHAR

STARTCHAR cns4_275D
ENCODING 10077
SWIDTH 854 0
DWIDTH 16 0
BBX 16 18 0 -2
BITMAP
0000
3FFE
2222
2222
3FFE
2402
0C00
0FFE
1002
2002
4402
0302
0182
0002
0004
0004
0038
0000
ENDCHAR

STARTCHAR cns4_275E
ENCODING 10078
SWIDTH 854 0
DWIDTH 16 0
BBX 16 18 0 -2
BITMAP
0000
3FFC
2244
2244
2244
2244
3FFC
2104
0100
7FFF
1000
1000
1000
1000
1000
1000
0FFC
0000
ENDCHAR

STARTCHAR cns4_275F
ENCODING 10079
SWIDTH 854 0
DWIDTH 16 0
BBX 16 18 0 -2
BITMAP
0000
0104
0104
3FF8
0110
0120
7FFF
0080
0180
07FF
0949
3251
4491
0092
0122
0222
0C5C
0000
ENDCHAR

STARTCHAR cns4_2760
ENCODING 10080
SWIDTH 854 0
DWIDTH 16 0
BBX 16 18 0 -2
BITMAP
0000
0200
0204
3FE8
0210
0210
0260
7FFF
0080
0320
0CF0
3700
7FFC
0100
7FFD
0101
01FF
0000
ENDCHAR

STARTCHAR cns4_2761
ENCODING 10081
SWIDTH 854 0
DWIDTH 16 0
BBX 16 18 0 -2
BITMAP
0000
0800
09FF
1F10
6810
0810
7F10
0810
7F10
0810
1C10
1A10
2910
2810
4810
0810
0870
0000
ENDCHAR

STARTCHAR cns4_2762
ENCODING 10082
SWIDTH 854 0
DWIDTH 16 0
BBX 16 18 0 -2
BITMAP
0000
7802
49F2
4812
6812
69F2
5902
4902
4A02
5BF2
6A12
4812
4812
4812
4822
4822
59C2
0000
ENDCHAR

STARTCHAR cns4_2763
ENCODING 10083
SWIDTH 854 0
DWIDTH 16 0
BBX 16 18 0 -2
BITMAP
0000
7800
4800
49FF
6928
6928
5928
4928
4929
5929
694A
694E
4940
4980
4900
49FF
5800
0000
ENDCHAR

STARTCHAR cns4_2764
ENCODING 10084
SWIDTH 854 0
DWIDTH 16 0
BBX 16 18 0 -2
BITMAP
0000
7C40
4440
4440
74FF
4C82
44A4
4520
4D20
5420
6430
4430
4448
4448
8484
8503
8C00
0000
ENDCHAR

STARTCHAR cns4_2765
ENCODING 10085
SWIDTH 854 0
DWIDTH 16 0
BBX 16 18 0 -2
BITMAP
0000
7C20
4420
4520
65FF
5521
5622
4634
4C30
5450
6450
6450
4491
4491
4511
461F
4C00
0000
ENDCHAR

STARTCHAR cns4_2766
ENCODING 10086
SWIDTH 854 0
DWIDTH 16 0
BBX 16 18 0 -2
BITMAP
0000
7C00
45FC
4424
6424
5424
5424
4444
4DFF
5444
6444
4484
4484
4484
4484
47FF
4C00
0000
ENDCHAR

STARTCHAR cns4_2767
ENCODING 10087
SWIDTH 854 0
DWIDTH 16 0
BBX 16 18 0 -2
BITMAP
0000
7C40
4480
44FF
6500
7400
55FE
4400
4DFC
5408
6410
6460
4481
4501
4501
45FF
5C00
0000
ENDCHAR

STARTCHAR cns4_2768
ENCODING 10088
SWIDTH 854 0
DWIDTH 16 0
BBX 16 18 0 -2
BITMAP
0000
7C06
4438
45E0
6420
5420
5420
4420
4FFF
5420
6420
4420
4420
4420
4420
45FE
5C00
0000
ENDCHAR

STARTCHAR cns4_2769
ENCODING 10089
SWIDTH 854 0
DWIDTH 16 0
BBX 16 18 0 -2
BITMAP
0000
7CB8
4488
4508
6504
5602
55FD
4440
4C80
54FC
6504
4404
4404
4408
4408
4470
5C00
0000
ENDCHAR

STARTCHAR cns4_276A
ENCODING 10090
SWIDTH 854 0
DWIDTH 16 0
BBX 16 18 0 -2
BITMAP
0000
0100
0100
01FE
2100
3FFE
6002
4FF2
0810
0B10
08D0
0810
09D0
0B10
0810
0810
0870
0000
ENDCHAR

STARTCHAR cns4_276B
ENCODING 10091
SWIDTH 854 0
DWIDTH 16 0
BBX 16 18 0 -2
BITMAP
0000
1040
1040
1098
1130
10C0
1108
17FC
1004
13F0
1290
1250
2210
22F0
2210
4210
4270
0000
ENDCHAR

STARTCHAR cns4_276C
ENCODING 10092
SWIDTH 854 0
DWIDTH 16 0
BBX 16 18 0 -2
BITMAP
0000
0000
7EFE
4842
4842
4844
4844
7E24
4228
4228
7E28
4810
4828
4828
4844
7E82
4101
0000
ENDCHAR

STARTCHAR cns4_276D
ENCODING 10093
SWIDTH 854 0
DWIDTH 16 0
BBX 16 18 0 -2
BITMAP
0000
0400
0400
07FC
0404
0808
0808
1030
0600
387C
2004
2004
3E7C
2004
2004
3FFC
2004
0000
ENDCHAR

STARTCHAR cns4_276E
ENCODING 10094
SWIDTH 854 0
DWIDTH 16 0
BBX 16 18 0 -2
BITMAP
0000
0302
0C22
3822
0822
0822
7FA2
0822
0822
0822
3F22
212E
2172
2102
3F02
2102
2102
0000
ENDCHAR

STARTCHAR cns4_276F
ENCODING 10095
SWIDTH 854 0
DWIDTH 16 0
BBX 16 18 0 -2
BITMAP
0000
0400
04FE
0802
3E02
2204
2A18
2A10
2F10
7A10
2A10
2A10
2A10
2A10
4210
4210
4E70
0000
ENDCHAR

STARTCHAR cns4_2770
ENCODING 10096
SWIDTH 854 0
DWIDTH 16 0
BBX 16 18 0 -2
BITMAP
0000
0200
0402
1F92
1092
1492
1492
1492
7FF2
1492
1492
1492
1492
2482
2482
4382
000E
0000
ENDCHAR

STARTCHAR cns4_2771
ENCODING 10097
SWIDTH 854 0
DWIDTH 16 0
BBX 16 18 0 -2
BITMAP
0000
0400
0410
0810
3E10
2A10
2A10
2A10
2F10
7A18
2A28
2A24
2A24
4A44
4242
4283
0700
0000
ENDCHAR

STARTCHAR cns4_2772
ENCODING 10098
SWIDTH 854 0
DWIDTH 16 0
BBX 16 18 0 -2
BITMAP
0000
1010
1010
7FFF
1110
1110
3FFE
4102
4204
0280
0280
0480
0480
0880
1084
3084
607C
0000
ENDCHAR

STARTCHAR cns4_2773
ENCODING 10099
SWIDTH 854 0
DWIDTH 16 0
BBX 16 18 0 -2
BITMAP
0000
1010
1010
7FFF
1010
1008
7F08
0108
3F08
2108
4008
7F08
4108
0108
0108
0208
1C08
0000
ENDCHAR

STARTCHAR cns4_2774
ENCODING 10100
SWIDTH 854 0
DWIDTH 16 0
BBX 16 18 0 -2
BITMAP
0000
0810
0810
7FFF
0810
0810
3FFC
0100
0100
7FFF
0180
0280
0240
0420
0818
100E
6003
0000
ENDCHAR

STARTCHAR cns4_2775
ENCODING 10101
SWIDTH 854 0
DWIDTH 16 0
BBX 16 18 0 -2
BITMAP
0000
0810
0810
7FFF
0810
0810
7FFE
0200
07F8
0408
0810
0810
1FF0
1020
0020
7FFF
0000
0000
ENDCHAR

STARTCHAR cns4_2776
ENCODING 10102
SWIDTH 854 0
DWIDTH 16 0
BBX 16 18 0 -2
BITMAP
0000
0810
0810
7FFF
0810
3FFC
2004
27E4
2224
2224
2224
2144
2144
2184
2344
2C34
201C
0000
ENDCHAR

STARTCHAR cns4_2777
ENCODING 10103
SWIDTH 854 0
DWIDTH 16 0
BBX 16 18 0 -2
BITMAP
0000
0810
0810
7FFF
0810
0910
0100
7FFC
4104
4104
7FFC
4104
0100
0100
0100
0100
0100
0000
ENDCHAR

STARTCHAR cns4_2778
ENCODING 10104
SWIDTH 854 0
DWIDTH 16 0
BBX 16 18 0 -2
BITMAP
0000
1010
1010
7FFF
1010
1020
0820
1020
1020
3020
3030
502C
1022
1020
1020
1020
1020
0000
ENDCHAR

STARTCHAR cns4_2779
ENCODING 10105
SWIDTH 854 0
DWIDTH 16 0
BBX 16 18 0 -2
BITMAP
0000
1010
1010
7FFF
1010
1890
0880
1080
1FF8
3088
3088
5188
1108
1108
1209
1209
140F
0000
ENDCHAR

STARTCHAR cns4_277A
ENCODING 10106
SWIDTH 854 0
DWIDTH 16 0
BBX 16 18 0 -2
BITMAP
0000
1010
1010
7FFF
1010
1810
0FF8
1108
1108
311E
5112
1102
1102
1204
1204
1404
1438
0000
ENDCHAR

STARTCHAR cns4_277B
ENCODING 10107
SWIDTH 854 0
DWIDTH 16 0
BBX 16 18 0 -2
BITMAP
0000
0810
0810
7FFF
0810
3FFE
2010
27F8
2408
2408
2408
2410
2470
2401
4401
4401
43FF
0000
ENDCHAR

STARTCHAR cns4_277C
ENCODING 10108
SWIDTH 854 0
DWIDTH 16 0
BBX 16 18 0 -2
BITMAP
0000
1010
7FFF
1010
1010
0038
1FD0
1110
1110
1110
1110
1108
2108
2108
2104
4106
4103
0000
ENDCHAR

STARTCHAR cns4_277D
ENCODING 10109
SWIDTH 854 0
DWIDTH 16 0
BBX 16 18 0 -2
BITMAP
0000
0810
0810
7FFF
0810
09F0
0C20
0820
1010
2018
220C
4407
0420
0830
0808
3FFC
0004
0000
ENDCHAR

STARTCHAR cns4_277E
ENCODING 10110
SWIDTH 854 0
DWIDTH 16 0
BBX 16 18 0 -2
BITMAP
0000
1010
1010
7EFF
1010
1410
0420
0420
0420
0420
0430
0E50
0958
1148
108C
2106
4603
0000
ENDCHAR

STARTCHAR cns4_2821
ENCODING 10273
SWIDTH 854 0
DWIDTH 16 0
BBX 16 18 0 -2
BITMAP
0000
0810
0810
7FFF
0910
0918
0170
07C0
7D00
0100
7FFC
0100
7FFE
0100
0100
0100
0100
0000
ENDCHAR

STARTCHAR cns4_2822
ENCODING 10274
SWIDTH 854 0
DWIDTH 16 0
BBX 16 18 0 -2
BITMAP
0000
0000
7FFE
4100
4100
5FF8
5108
5108
5108
5FF8
5108
4110
4118
7FF4
4004
7FFF
4000
0000
ENDCHAR

STARTCHAR cns4_2823
ENCODING 10275
SWIDTH 854 0
DWIDTH 16 0
BBX 16 18 0 -2
BITMAP
0000
1100
111F
2100
4100
17C0
115F
2144
6144
2144
2144
2144
2244
2254
2264
24C4
201C
0000
ENDCHAR

STARTCHAR cns4_2824
ENCODING 10276
SWIDTH 854 0
DWIDTH 16 0
BBX 16 18 0 -2
BITMAP
0000
1000
111F
2100
4100
1100
111F
2104
6104
2104
2284
2284
2244
2444
2424
2824
201C
0000
ENDCHAR

STARTCHAR cns4_2825
ENCODING 10277
SWIDTH 854 0
DWIDTH 16 0
BBX 16 18 0 -2
BITMAP
0000
2000
13FE
1022
0022
73FE
1222
1220
23FF
2221
7821
0822
1022
102C
2020
7000
0FFF
0000
ENDCHAR

STARTCHAR cns4_2826
ENCODING 10278
SWIDTH 854 0
DWIDTH 16 0
BBX 16 18 0 -2
BITMAP
0000
0000
4000
21FE
0000
7000
13FF
1040
2040
2040
7888
0884
1102
13FE
2002
5800
07FF
0000
ENDCHAR

STARTCHAR cns4_2827
ENCODING 10279
SWIDTH 854 0
DWIDTH 16 0
BBX 16 18 0 -2
BITMAP
0000
0020
4020
2020
07FF
0020
7DFC
0924
1124
2124
7924
0924
112C
1120
2020
5800
07FF
0000
ENDCHAR

STARTCHAR cns4_2828
ENCODING 10280
SWIDTH 854 0
DWIDTH 16 0
BBX 16 18 0 -2
BITMAP
0000
0088
4088
2088
0088
77FF
1088
1088
2088
2088
7888
4888
10F8
1088
2000
5800
07FF
0000
ENDCHAR

STARTCHAR cns4_2829
ENCODING 10281
SWIDTH 854 0
DWIDTH 16 0
BBX 16 18 0 -2
BITMAP
0000
0000
7FBF
2021
2022
2022
3F24
2124
2124
2122
3F22
2121
2021
2021
2026
7FA0
0020
0000
ENDCHAR

STARTCHAR cns4_282A
ENCODING 10282
SWIDTH 854 0
DWIDTH 16 0
BBX 16 18 0 -2
BITMAP
0000
1400
141F
7F91
1492
1492
7F92
5494
5414
7FD2
5452
1451
2451
2451
4596
4410
8410
0000
ENDCHAR

STARTCHAR cns4_282B
ENCODING 10283
SWIDTH 854 0
DWIDTH 16 0
BBX 16 18 0 -2
BITMAP
0000
0800
083E
0822
0822
7FA4
48A4
48A8
48A8
7FA4
48A4
48A2
48A2
48A2
7FAE
40A0
40A0
0000
ENDCHAR

STARTCHAR cns4_282C
ENCODING 10284
SWIDTH 854 0
DWIDTH 16 0
BBX 16 18 0 -2
BITMAP
0000
083F
0821
1222
1122
20A4
7FE4
1224
1224
1222
7FE2
1221
1221
2222
222E
4220
0220
0000
ENDCHAR

STARTCHAR cns4_282D
ENCODING 10285
SWIDTH 854 0
DWIDTH 16 0
BBX 16 18 0 -2
BITMAP
0000
1000
103F
1021
3FA2
20A2
3EA4
52A4
12A4
1EA2
12A2
10A1
17A1
1021
1066
1060
0FE0
0000
ENDCHAR

STARTCHAR cns4_282E
ENCODING 10286
SWIDTH 854 0
DWIDTH 16 0
BBX 16 18 0 -2
BITMAP
0000
0000
001F
1211
73D2
1212
1214
1214
1214
1212
1212
1212
1211
1211
13DE
7C10
0010
0000
ENDCHAR

STARTCHAR cns4_282F
ENCODING 10287
SWIDTH 854 0
DWIDTH 16 0
BBX 16 18 0 -2
BITMAP
0000
0800
083F
3F21
2922
2924
7FA4
2928
2928
2924
7FA4
2122
2122
2122
212E
2120
2320
0000
ENDCHAR

STARTCHAR cns4_2830
ENCODING 10288
SWIDTH 854 0
DWIDTH 16 0
BBX 16 18 0 -2
BITMAP
0000
7DFE
4502
4502
4902
51FE
5120
5120
49FC
4524
4524
6524
5D45
4249
4289
4489
4906
0000
ENDCHAR

STARTCHAR cns4_2831
ENCODING 10289
SWIDTH 854 0
DWIDTH 16 0
BBX 16 18 0 -2
BITMAP
0000
7C80
4480
4500
49FE
4A02
5202
4DF2
4912
4512
4512
45F2
7914
4104
4004
4008
4030
0000
ENDCHAR

STARTCHAR cns4_2832
ENCODING 10290
SWIDTH 854 0
DWIDTH 16 0
BBX 16 18 0 -2
BITMAP
0000
0000
7DFE
4422
4842
4842
5082
5084
4938
4BFC
4504
4504
7904
4104
4104
41FC
4104
0000
ENDCHAR

STARTCHAR cns4_2833
ENCODING 10291
SWIDTH 854 0
DWIDTH 16 0
BBX 16 18 0 -2
BITMAP
0000
7C0E
45F0
4900
49FE
5102
51FE
4900
49FC
4504
4508
4530
7920
4241
4241
4243
443E
0000
ENDCHAR

STARTCHAR cns4_2834
ENCODING 10292
SWIDTH 854 0
DWIDTH 16 0
BBX 16 18 0 -2
BITMAP
0000
0000
1FF0
1010
1010
1FF0
1010
0000
3FF8
2108
3FF8
2108
3FFA
210A
0102
0106
00F8
0000
ENDCHAR

STARTCHAR cns4_2835
ENCODING 10293
SWIDTH 854 0
DWIDTH 16 0
BBX 16 18 0 -2
BITMAP
0000
0A40
0940
0840
7F40
09FC
0844
4B44
2C44
2844
1844
2E84
4985
0885
0905
0907
3A00
0000
ENDCHAR

STARTCHAR cns4_2836
ENCODING 10294
SWIDTH 854 0
DWIDTH 16 0
BBX 16 18 0 -2
BITMAP
0000
0808
0A08
0908
1028
10AA
354A
3549
5149
118B
12BA
1204
1604
1208
1210
1260
1180
0000
ENDCHAR

STARTCHAR cns4_2837
ENCODING 10295
SWIDTH 854 0
DWIDTH 16 0
BBX 16 18 0 -2
BITMAP
0000
0820
0A22
0926
1128
1060
3058
3186
5601
1088
17FF
1088
1088
1088
1108
1108
1208
0000
ENDCHAR

STARTCHAR cns4_2838
ENCODING 10296
SWIDTH 854 0
DWIDTH 16 0
BBX 16 18 0 -2
BITMAP
0000
0820
0820
0BFE
1020
13FF
3201
31FC
5008
5030
1020
13FF
1020
1020
1020
1020
10E0
0000
ENDCHAR

STARTCHAR cns4_2839
ENCODING 10297
SWIDTH 854 0
DWIDTH 16 0
BBX 16 18 0 -2
BITMAP
0000
0800
0FFE
1248
1248
33C8
3248
5248
5248
13C8
1248
1248
13C8
1C49
1049
104F
1040
0000
ENDCHAR

STARTCHAR cns4_283A
ENCODING 10298
SWIDTH 854 0
DWIDTH 16 0
BBX 16 18 0 -2
BITMAP
0000
1003
120C
1230
2220
23A0
6E3F
6224
2224
23A4
2624
3A24
2244
2244
2244
2E84
2104
0000
ENDCHAR

STARTCHAR cns4_283B
ENCODING 10299
SWIDTH 854 0
DWIDTH 16 0
BBX 16 18 0 -2
BITMAP
0000
0020
1222
1222
13FE
2202
27F8
6088
2090
20FE
2144
2144
2148
2230
2218
2464
2B83
0000
ENDCHAR

STARTCHAR cns4_283C
ENCODING 10300
SWIDTH 854 0
DWIDTH 16 0
BBX 16 18 0 -2
BITMAP
0000
0818
09E0
1100
1100
31FE
5110
1110
1110
1110
1110
1FFF
1000
1090
110C
1606
1002
0000
ENDCHAR

STARTCHAR cns4_283D
ENCODING 10301
SWIDTH 854 0
DWIDTH 16 0
BBX 16 18 0 -2
BITMAP
0000
0800
0FFF
0850
1050
13FE
3252
3252
5252
127A
12AA
1296
1302
1202
1202
1202
120E
0000
ENDCHAR

STARTCHAR cns4_283E
ENCODING 10302
SWIDTH 854 0
DWIDTH 16 0
BBX 16 18 0 -2
BITMAP
0000
0800
09FE
0922
11FE
1922
3122
31FE
5020
9020
13FE
1042
1042
1082
1082
1302
141C
0000
ENDCHAR

STARTCHAR cns4_283F
ENCODING 10303
SWIDTH 854 0
DWIDTH 16 0
BBX 16 18 0 -2
BITMAP
0000
0880
1100
11FE
2308
3290
6460
6060
A19F
2630
20C0
231C
2062
238E
2018
2060
2780
0000
ENDCHAR

STARTCHAR cns4_2840
ENCODING 10304
SWIDTH 854 0
DWIDTH 16 0
BBX 16 18 0 -2
BITMAP
0000
0000
7F10
0030
0028
0044
7F82
14FE
1400
14FC
1484
1484
24FC
2485
4401
47FF
0000
0000
ENDCHAR

STARTCHAR cns4_2841
ENCODING 10305
SWIDTH 854 0
DWIDTH 16 0
BBX 16 18 0 -2
BITMAP
0000
0040
4040
4040
2FFE
1040
0A48
0A48
1248
1554
28B2
20A0
60A0
2110
2108
220C
2407
0000
ENDCHAR

STARTCHAR cns4_2842
ENCODING 10306
SWIDTH 854 0
DWIDTH 16 0
BBX 16 18 0 -2
BITMAP
0000
0000
47FE
2124
2124
0A48
0A50
1490
1248
1124
2000
67FE
2040
2040
2040
2FFF
0000
0000
ENDCHAR

STARTCHAR cns4_2843
ENCODING 10307
SWIDTH 854 0
DWIDTH 16 0
BBX 16 18 0 -2
BITMAP
0000
03F8
4008
2FFE
2008
0BF8
0800
17FE
1402
1000
23F8
2108
6090
20A0
2060
2198
0E06
0000
ENDCHAR

STARTCHAR cns4_2844
ENCODING 10308
SWIDTH 854 0
DWIDTH 16 0
BBX 16 18 0 -2
BITMAP
0000
3F02
0102
3F12
0112
7F12
0012
7FD2
4052
7F92
1092
1112
0912
0A12
0402
1B0E
60C0
0000
ENDCHAR

STARTCHAR cns4_2845
ENCODING 10309
SWIDTH 854 0
DWIDTH 16 0
BBX 16 18 0 -2
BITMAP
0000
0400
0402
7FD2
0412
3F92
2492
2492
3F92
2492
3F92
2492
0412
7FD2
0402
0402
040E
0000
ENDCHAR

STARTCHAR cns4_2846
ENCODING 10310
SWIDTH 854 0
DWIDTH 16 0
BBX 16 18 0 -2
BITMAP
0000
0580
0442
7FE2
0412
0412
7FD2
4452
4452
7FD2
4452
4452
7FD2
4452
4442
4442
458E
0000
ENDCHAR

STARTCHAR cns4_2847
ENCODING 10311
SWIDTH 854 0
DWIDTH 16 0
BBX 16 18 0 -2
BITMAP
0000
0800
0802
0812
0F92
0812
7FD2
5252
5252
5252
7FD2
5252
5252
5252
5242
5242
40CE
0000
ENDCHAR

STARTCHAR cns4_2848
ENCODING 10312
SWIDTH 854 0
DWIDTH 16 0
BBX 16 18 0 -2
BITMAP
0000
0080
0702
7852
2452
2492
1212
0212
7FD2
0212
0212
3212
0A12
0212
0202
0202
0E0E
0000
ENDCHAR

STARTCHAR cns4_2849
ENCODING 10313
SWIDTH 854 0
DWIDTH 16 0
BBX 16 18 0 -2
BITMAP
0000
0810
0810
3E10
2210
22FF
3E11
2211
3E11
2011
2111
2621
2422
2222
3942
6084
0318
0000
ENDCHAR

STARTCHAR cns4_284A
ENCODING 10314
SWIDTH 854 0
DWIDTH 16 0
BBX 16 18 0 -2
BITMAP
0000
0810
0A10
0910
7F90
087F
0811
4911
2A11
2C11
1C22
2B22
4922
0842
0842
0884
391C
0000
ENDCHAR

STARTCHAR cns4_284B
ENCODING 10315
SWIDTH 854 0
DWIDTH 16 0
BBX 16 18 0 -2
BITMAP
0000
0010
7F10
2210
1410
7FFE
4912
4912
7F12
4912
4922
7F22
4922
4942
4942
4B82
409C
0000
ENDCHAR

STARTCHAR cns4_284C
ENCODING 10316
SWIDTH 854 0
DWIDTH 16 0
BBX 16 18 0 -2
BITMAP
0000
0800
0800
1FFE
1202
2242
2432
5FEA
044A
0842
1FBA
6842
0482
0302
0E84
7064
000C
0000
ENDCHAR

STARTCHAR cns4_284D
ENCODING 10317
SWIDTH 854 0
DWIDTH 16 0
BBX 16 18 0 -2
BITMAP
0000
0000
2040
2040
3E40
2040
3F40
207E
7E40
4840
0840
7F40
0841
1841
1441
227F
4000
0000
ENDCHAR

STARTCHAR cns4_284E
ENCODING 10318
SWIDTH 854 0
DWIDTH 16 0
BBX 16 18 0 -2
BITMAP
0000
0000
7FFE
4200
5210
5210
5E10
5210
4210
42FE
5E10
5210
5210
5210
527E
4200
7FFE
0000
ENDCHAR

STARTCHAR cns4_284F
ENCODING 10319
SWIDTH 854 0
DWIDTH 16 0
BBX 16 18 0 -2
BITMAP
0000
0000
7FFE
4040
4440
447E
4884
4A84
5AC8
5A48
6A50
4A20
4A30
48CE
4800
7FFF
4000
0000
ENDCHAR

STARTCHAR cns4_2850
ENCODING 10320
SWIDTH 854 0
DWIDTH 16 0
BBX 16 18 0 -2
BITMAP
0000
0000
7FFE
4100
5108
5108
5FF8
5108
4100
4FF0
4100
4FF0
4100
5FF8
4000
7FFF
4000
0000
ENDCHAR

STARTCHAR cns4_2851
ENCODING 10321
SWIDTH 854 0
DWIDTH 16 0
BBX 16 18 0 -2
BITMAP
0000
0100
01F8
0100
0100
3FFC
2104
2104
2184
22C4
2D3C
3904
2184
26E4
381C
3FFC
2004
0000
ENDCHAR

STARTCHAR cns4_2852
ENCODING 10322
SWIDTH 854 0
DWIDTH 16 0
BBX 16 18 0 -2
BITMAP
0000
2010
2010
3FD0
4010
7F90
2110
291C
2512
7FD1
2110
2910
4510
7FD0
4110
4110
0610
0000
ENDCHAR

STARTCHAR cns4_2853
ENCODING 10323
SWIDTH 854 0
DWIDTH 16 0
BBX 16 18 0 -2
BITMAP
0000
1000
10FF
3E28
2228
7FA8
40A8
5F28
5128
5128
5128
5F28
5028
5049
5349
5C49
008F
0000
ENDCHAR

STARTCHAR cns4_2854
ENCODING 10324
SWIDTH 854 0
DWIDTH 16 0
BBX 16 18 0 -2
BITMAP
0000
0000
3FFF
2040
2040
2FFF
2040
2448
2448
2C4C
2AB2
30A0
2110
4110
4208
4404
1803
0000
ENDCHAR

STARTCHAR cns4_2855
ENCODING 10325
SWIDTH 854 0
DWIDTH 16 0
BBX 16 18 0 -2
BITMAP
0000
0000
3FFF
2000
27F8
2408
27F8
2408
2408
27F8
2448
2040
2450
4448
4844
5042
21C0
0000
ENDCHAR

STARTCHAR cns4_2856
ENCODING 10326
SWIDTH 854 0
DWIDTH 16 0
BBX 16 18 0 -2
BITMAP
0000
1000
11F8
1048
1048
7E48
1048
107E
1062
7FA6
10A4
1094
2498
2288
429C
7D63
0180
0000
ENDCHAR

STARTCHAR cns4_2857
ENCODING 10327
SWIDTH 854 0
DWIDTH 16 0
BBX 16 18 0 -2
BITMAP
0000
1000
10FE
1042
1F42
1044
7F44
5544
5528
5528
7F28
5510
5520
5528
5544
5582
0000
0000
ENDCHAR

STARTCHAR cns4_2858
ENCODING 10328
SWIDTH 854 0
DWIDTH 16 0
BBX 16 18 0 -2
BITMAP
0000
0020
0020
7BFE
4904
488C
4888
4850
4FFF
4820
7820
4820
4020
0020
0020
0020
0020
0000
ENDCHAR

STARTCHAR cns4_2859
ENCODING 10329
SWIDTH 854 0
DWIDTH 16 0
BBX 16 18 0 -2
BITMAP
0000
0010
0014
7012
57FF
5410
5410
5412
5414
57D4
540C
7408
5408
4815
0825
10C3
2101
0000
ENDCHAR

STARTCHAR cns4_285A
ENCODING 10330
SWIDTH 854 0
DWIDTH 16 0
BBX 16 18 0 -2
BITMAP
0000
0040
0040
7840
487C
4840
4840
4BFF
4800
4BFF
4860
7850
4848
4048
0040
0040
0040
0000
ENDCHAR

STARTCHAR cns4_285B
ENCODING 10331
SWIDTH 854 0
DWIDTH 16 0
BBX 16 18 0 -2
BITMAP
0000
0040
0040
7840
487E
4840
4840
4840
4FFF
4840
4950
7948
4A44
4244
0440
0040
01C0
0000
ENDCHAR

STARTCHAR cns4_285C
ENCODING 10332
SWIDTH 854 0
DWIDTH 16 0
BBX 16 18 0 -2
BITMAP
0000
0048
0048
0048
7848
4BFF
4A49
4A49
4A49
4BFF
4A49
4A49
7A49
4A49
4249
0249
03FF
0000
ENDCHAR

STARTCHAR cns4_285D
ENCODING 10333
SWIDTH 854 0
DWIDTH 16 0
BBX 16 18 0 -2
BITMAP
0000
00A0
00A4
7122
5122
5320
523F
56E0
5622
5A12
5214
7214
5208
4219
0225
0243
0281
0000
ENDCHAR

STARTCHAR cns4_285E
ENCODING 10334
SWIDTH 854 0
DWIDTH 16 0
BBX 16 18 0 -2
BITMAP
0000
0000
1010
1010
11FF
1044
7C44
1145
1129
1129
1111
1129
1D45
6183
01FF
0101
0101
0000
ENDCHAR

STARTCHAR cns4_285F
ENCODING 10335
SWIDTH 854 0
DWIDTH 16 0
BBX 16 18 0 -2
BITMAP
0000
00FC
7F24
0824
08E4
0834
0824
0842
0E82
7001
0080
0080
1FFC
0080
0080
7FFF
0000
0000
ENDCHAR

STARTCHAR cns4_2860
ENCODING 10336
SWIDTH 854 0
DWIDTH 16 0
BBX 16 18 0 -2
BITMAP
0000
0000
7FFE
0240
124C
0A48
0A50
0240
7FFF
0080
0080
1FFC
0080
0080
0080
7FFF
0000
0000
ENDCHAR

STARTCHAR cns4_2861
ENCODING 10337
SWIDTH 854 0
DWIDTH 16 0
BBX 16 18 0 -2
BITMAP
0000
3068
2C88
2388
22C8
2C28
2008
3FF8
2442
087E
3800
4FE0
1420
6240
01C0
0638
3806
0000
ENDCHAR

STARTCHAR cns4_2862
ENCODING 10338
SWIDTH 854 0
DWIDTH 16 0
BBX 16 18 0 -2
BITMAP
0000
0200
7FFE
0420
0818
3007
4FF0
0000
1FF0
1010
1FF0
1010
1010
1FF0
1010
0000
7FFF
0000
ENDCHAR

STARTCHAR cns4_2863
ENCODING 10339
SWIDTH 854 0
DWIDTH 16 0
BBX 16 18 0 -2
BITMAP
0000
0200
0200
7FFE
0440
0C20
1458
6447
0440
07F8
1440
1440
1440
1440
1744
1844
607C
0000
ENDCHAR

STARTCHAR cns4_2864
ENCODING 10340
SWIDTH 854 0
DWIDTH 16 0
BBX 16 18 0 -2
BITMAP
0000
0440
0440
1440
17FC
1440
1440
15C2
1E42
717E
0100
7FFF
0180
0240
0430
181C
6007
0000
ENDCHAR

STARTCHAR cns4_2865
ENCODING 10341
SWIDTH 854 0
DWIDTH 16 0
BBX 16 18 0 -2
BITMAP
0000
2002
23EA
214A
214A
794A
294A
2BEA
494A
494A
514A
514A
514A
3142
2A42
4242
044E
0000
ENDCHAR

STARTCHAR cns4_2866
ENCODING 10342
SWIDTH 854 0
DWIDTH 16 0
BBX 16 18 0 -2
BITMAP
0000
0040
2040
207E
2090
7910
2910
2A10
4BFF
4810
4892
5092
7092
2892
2CFE
4482
0082
0000
ENDCHAR

STARTCHAR cns4_2867
ENCODING 10343
SWIDTH 854 0
DWIDTH 16 0
BBX 16 18 0 -2
BITMAP
0000
11F0
1110
2110
2110
7A10
2A1F
2C40
4840
4FFF
48E0
5150
7150
1A4C
2443
4840
0040
0000
ENDCHAR

STARTCHAR cns4_2868
ENCODING 10344
SWIDTH 854 0
DWIDTH 16 0
BBX 16 18 0 -2
BITMAP
0000
2000
10F8
5400
2BFE
1080
20FC
6004
201C
2200
7FFF
0420
0820
1E40
01E0
0718
7804
0000
ENDCHAR

STARTCHAR cns4_2869
ENCODING 10345
SWIDTH 854 0
DWIDTH 16 0
BBX 16 18 0 -2
BITMAP
0000
1000
11FE
1C22
7322
1C22
7042
1E44
6884
0818
0200
7FFF
0420
0840
1780
0370
3C0C
0000
ENDCHAR

STARTCHAR cns4_286A
ENCODING 10346
SWIDTH 854 0
DWIDTH 16 0
BBX 16 18 0 -2
BITMAP
0000
0080
0080
3FFC
0080
0890
0810
7FFE
0810
0810
0A10
7FFF
0420
0840
17C0
0370
1C0C
0000
ENDCHAR

STARTCHAR cns4_286B
ENCODING 10347
SWIDTH 854 0
DWIDTH 16 0
BBX 16 18 0 -2
BITMAP
0000
0100
1118
0920
7FFE
4002
0004
1FF0
0100
0200
7FFF
0420
0820
1E40
01E0
0318
7C04
0000
ENDCHAR

STARTCHAR cns4_286C
ENCODING 10348
SWIDTH 854 0
DWIDTH 16 0
BBX 16 18 0 -2
BITMAP
0000
0010
7F10
4110
5D10
41FF
4122
5D22
5542
5544
5544
5D64
55B8
4118
4114
4122
4741
0000
ENDCHAR

STARTCHAR cns4_286D
ENCODING 10349
SWIDTH 854 0
DWIDTH 16 0
BBX 16 18 0 -2
BITMAP
0000
1000
101E
21E0
7D00
2900
297E
2952
4952
4952
4952
497E
7242
1A41
2241
4441
043E
0000
ENDCHAR

STARTCHAR cns4_286E
ENCODING 10350
SWIDTH 854 0
DWIDTH 16 0
BBX 16 18 0 -2
BITMAP
0000
0FF0
0020
00C0
7FFE
0080
0080
0380
7EFC
020C
0C30
0820
0FFF
1820
6820
0820
38E0
0000
ENDCHAR

STARTCHAR cns4_286F
ENCODING 10351
SWIDTH 854 0
DWIDTH 16 0
BBX 16 18 0 -2
BITMAP
0000
0440
0440
0440
17F8
1440
1444
1744
787C
07E0
0020
00C0
7FFF
0080
0080
0080
0380
0000
ENDCHAR

STARTCHAR cns4_2870
ENCODING 10352
SWIDTH 854 0
DWIDTH 16 0
BBX 16 18 0 -2
BITMAP
0000
1000
1FFC
2004
2FC4
4844
0FC4
0844
0FC8
0848
0010
0FE0
0040
3FFC
0080
0080
0380
0000
ENDCHAR

STARTCHAR cns4_2871
ENCODING 10353
SWIDTH 854 0
DWIDTH 16 0
BBX 16 18 0 -2
BITMAP
0000
2100
3FFE
4202
0604
07E0
0840
1180
3FFE
5000
13F0
1210
1210
1270
2202
2202
43FE
0000
ENDCHAR

STARTCHAR cns4_2872
ENCODING 10354
SWIDTH 854 0
DWIDTH 16 0
BBX 16 18 0 -2
BITMAP
0000
0100
7FFF
4001
5FF1
1010
1FF0
1010
1010
1FF0
1010
2000
2020
3FF0
2004
2004
1FFC
0000
ENDCHAR

STARTCHAR cns4_2873
ENCODING 10355
SWIDTH 854 0
DWIDTH 16 0
BBX 16 18 0 -2
BITMAP
0000
0100
4100
7FFF
4101
0100
01F8
0100
0100
7FFE
0100
0910
1108
1104
2104
4100
0F00
0000
ENDCHAR

STARTCHAR cns4_2874
ENCODING 10356
SWIDTH 854 0
DWIDTH 16 0
BBX 16 18 0 -2
BITMAP
0000
2000
2100
21FE
2100
7F10
2954
2954
2918
2910
2A30
2A28
2A48
2C44
2882
4800
4FFF
0000
ENDCHAR

STARTCHAR cns4_2875
ENCODING 10357
SWIDTH 854 0
DWIDTH 16 0
BBX 16 18 0 -2
BITMAP
0000
2000
21FC
2104
2104
7FFC
2904
29FC
2800
2900
2900
29F8
2900
2902
49FE
4801
4FFF
0000
ENDCHAR

STARTCHAR cns4_2876
ENCODING 10358
SWIDTH 854 0
DWIDTH 16 0
BBX 16 18 0 -2
BITMAP
0000
0000
3FFE
2002
3FFE
2080
3FFE
2080
2FF8
2088
2FF8
2888
2FFE
2082
214C
4220
4C1C
0000
ENDCHAR

STARTCHAR cns4_2877
ENCODING 10359
SWIDTH 854 0
DWIDTH 16 0
BBX 16 18 0 -2
BITMAP
0000
0000
3FFE
2002
3FFE
2000
3FFE
2000
27F8
2408
2408
27F8
2408
2408
47F8
4000
1FFF
0000
ENDCHAR

STARTCHAR cns4_2878
ENCODING 10360
SWIDTH 854 0
DWIDTH 16 0
BBX 16 18 0 -2
BITMAP
0000
3FFE
2002
2002
3FFE
2800
2800
2FFC
2801
2FFF
2000
27FC
2404
27FC
4404
47FC
4404
0000
ENDCHAR

STARTCHAR cns4_2879
ENCODING 10361
SWIDTH 854 0
DWIDTH 16 0
BBX 16 18 0 -2
BITMAP
0000
3FFE
2002
3FFE
2000
2080
2FFC
2804
2804
2FFC
2804
2804
2FFC
4804
4804
4FFC
0804
0000
ENDCHAR

STARTCHAR cns4_287A
ENCODING 10362
SWIDTH 854 0
DWIDTH 16 0
BBX 16 18 0 -2
BITMAP
0000
0000
3FFE
2002
3FFE
2002
2080
2108
2610
2160
2084
2FFE
2442
4458
4844
5042
0040
0000
ENDCHAR

STARTCHAR cns4_287B
ENCODING 10363
SWIDTH 854 0
DWIDTH 16 0
BBX 16 18 0 -2
BITMAP
0000
1000
110C
1114
5554
5524
5554
558C
5504
55FC
5554
5450
7C50
4490
4491
0111
061F
0000
ENDCHAR

STARTCHAR cns4_287C
ENCODING 10364
SWIDTH 854 0
DWIDTH 16 0
BBX 16 18 0 -2
BITMAP
0000
10F0
1090
1090
5491
5491
551F
5520
5420
55FF
5470
5468
7CA8
44A4
4523
0420
0020
0000
ENDCHAR

STARTCHAR cns4_287D
ENCODING 10365
SWIDTH 854 0
DWIDTH 16 0
BBX 16 18 0 -2
BITMAP
0000
2104
2104
2104
3FFC
2184
0100
7FFF
0000
1FF8
1008
1008
1FF8
1008
1008
1FF8
1008
0000
ENDCHAR

STARTCHAR cns4_287E
ENCODING 10366
SWIDTH 854 0
DWIDTH 16 0
BBX 16 18 0 -2
BITMAP
0000
1084
1084
1FFC
0000
0106
3FFC
0108
0110
7FFF
0040
0180
0E00
35F8
4402
0402
07FE
0000
ENDCHAR

STARTCHAR cns4_2921
ENCODING 10529
SWIDTH 854 0
DWIDTH 16 0
BBX 16 18 0 -2
BITMAP
0000
1020
1020
11FE
7D00
5500
5500
55FE
5400
54A8
54A8
54A8
5CA9
5129
1129
1129
120F
0000
ENDCHAR

STARTCHAR cns4_2922
ENCODING 10530
SWIDTH 854 0
DWIDTH 16 0
BBX 16 18 0 -2
BITMAP
0000
1040
1040
13FE
7C48
5488
5484
557A
5601
55FE
5440
5480
5DFC
5004
1004
1048
1030
0000
ENDCHAR

STARTCHAR cns4_2923
ENCODING 10531
SWIDTH 854 0
DWIDTH 16 0
BBX 16 18 0 -2
BITMAP
0000
1020
1040
107C
7C84
5588
5650
5428
5450
55BE
5662
5484
5D44
5028
1030
1060
1380
0000
ENDCHAR

STARTCHAR cns4_2924
ENCODING 10532
SWIDTH 854 0
DWIDTH 16 0
BBX 16 18 0 -2
BITMAP
0000
0000
7FC2
0822
1F22
2122
5222
0C22
1806
6080
1FFC
1084
1084
1084
109C
1080
0080
0000
ENDCHAR

STARTCHAR cns4_2925
ENCODING 10533
SWIDTH 854 0
DWIDTH 16 0
BBX 16 18 0 -2
BITMAP
0000
0420
0420
2420
27BC
2420
2421
27A1
78BF
0080
1FFC
1084
1084
1084
109C
0080
0080
0000
ENDCHAR

STARTCHAR cns4_2926
ENCODING 10534
SWIDTH 854 0
DWIDTH 16 0
BBX 16 18 0 -2
BITMAP
0000
1002
13E2
108A
7C8A
55EA
552A
552A
562A
574A
54CA
544A
5C8A
1082
1102
1202
100E
0000
ENDCHAR

STARTCHAR cns4_2927
ENCODING 10535
SWIDTH 854 0
DWIDTH 16 0
BBX 16 18 0 -2
BITMAP
0000
0080
0080
3FFF
2000
2FFC
2804
2BF4
2804
2BF4
2A14
2A14
2BF4
2A14
4804
4804
481C
0000
ENDCHAR

STARTCHAR cns4_2928
ENCODING 10536
SWIDTH 854 0
DWIDTH 16 0
BBX 16 18 0 -2
BITMAP
0000
0080
0080
3FFE
2100
2200
27F8
2408
2408
27F8
2400
27FC
2404
2404
4404
47FC
4404
0000
ENDCHAR

STARTCHAR cns4_2929
ENCODING 10537
SWIDTH 854 0
DWIDTH 16 0
BBX 16 18 0 -2
BITMAP
0000
0080
0080
3FFF
2100
23F0
2410
2A20
3150
209E
2722
3844
21A8
2630
4020
41C0
4E00
0000
ENDCHAR

STARTCHAR cns4_292A
ENCODING 10538
SWIDTH 854 0
DWIDTH 16 0
BBX 16 18 0 -2
BITMAP
0000
0080
0080
3FFF
2210
2210
2120
2FFE
2040
2448
2448
2448
27F8
2488
4080
4100
4200
0000
ENDCHAR

STARTCHAR cns4_292B
ENCODING 10539
SWIDTH 854 0
DWIDTH 16 0
BBX 16 18 0 -2
BITMAP
0000
0010
7F94
4094
4092
7F91
40FF
5E90
5290
5290
5290
5E88
5288
4088
4085
4083
4381
0000
ENDCHAR

STARTCHAR cns4_292C
ENCODING 10540
SWIDTH 854 0
DWIDTH 16 0
BBX 16 18 0 -2
BITMAP
0000
0000
7CFE
0490
0490
0490
7CFE
4082
4082
7C82
44FE
0492
0490
0490
0490
04FE
3880
0000
ENDCHAR

STARTCHAR cns4_292D
ENCODING 10541
SWIDTH 854 0
DWIDTH 16 0
BBX 16 18 0 -2
BITMAP
0000
7880
0880
08FE
0900
7900
4A1C
40F0
4090
7896
4898
0890
0888
0888
1094
10E2
6301
0000
ENDCHAR

STARTCHAR cns4_292E
ENCODING 10542
SWIDTH 854 0
DWIDTH 16 0
BBX 16 18 0 -2
BITMAP
0000
7820
0820
0850
0850
7888
4904
42FB
4000
7800
09FC
0904
0904
0904
1104
11FC
6104
0000
ENDCHAR

STARTCHAR cns4_292F
ENCODING 10543
SWIDTH 854 0
DWIDTH 16 0
BBX 16 18 0 -2
BITMAP
0000
7884
0884
0848
09FF
7848
4048
4048
4048
7BFF
4848
0848
0848
0848
1088
1088
6108
0000
ENDCHAR

STARTCHAR cns4_2930
ENCODING 10544
SWIDTH 854 0
DWIDTH 16 0
BBX 16 18 0 -2
BITMAP
0000
0000
7F7E
0810
0810
7EFF
1010
1010
2010
7FF8
0008
1FF8
2000
3FFE
2002
4004
0018
0000
ENDCHAR

STARTCHAR cns4_2931
ENCODING 10545
SWIDTH 854 0
DWIDTH 16 0
BBX 16 18 0 -2
BITMAP
0000
1820
1020
2020
43FE
0C20
0820
17FF
3020
5020
1020
13FE
1020
1020
1020
17FF
1000
0000
ENDCHAR

STARTCHAR cns4_2932
ENCODING 10546
SWIDTH 854 0
DWIDTH 16 0
BBX 16 18 0 -2
BITMAP
0000
1800
13FE
2202
4202
0EFE
0A02
1202
32FA
528A
128A
12FA
128A
1202
1202
1202
120E
0000
ENDCHAR

STARTCHAR cns4_2933
ENCODING 10547
SWIDTH 854 0
DWIDTH 16 0
BBX 16 18 0 -2
BITMAP
0000
0840
1880
10FC
2184
4448
0830
10CC
3703
5000
11FC
1104
1104
1104
11FC
1104
1104
0000
ENDCHAR

STARTCHAR cns4_2934
ENCODING 10548
SWIDTH 854 0
DWIDTH 16 0
BBX 16 18 0 -2
BITMAP
0000
1060
3060
20D0
4890
110C
1203
25FC
6000
2000
21FC
2104
2104
2104
2104
21FC
2104
0000
ENDCHAR

STARTCHAR cns4_2935
ENCODING 10549
SWIDTH 854 0
DWIDTH 16 0
BBX 16 18 0 -2
BITMAP
0000
0000
3EFE
0840
0840
087C
0804
0B04
3C04
0078
0000
0082
2842
2841
4809
0808
07F8
0000
ENDCHAR

STARTCHAR cns4_2936
ENCODING 10550
SWIDTH 854 0
DWIDTH 16 0
BBX 16 18 0 -2
BITMAP
0000
0100
0100
7FFE
0100
0100
1FF8
1008
1008
1FF8
1008
0000
2484
2442
4442
4410
07F0
0000
ENDCHAR

STARTCHAR cns4_2937
ENCODING 10551
SWIDTH 854 0
DWIDTH 16 0
BBX 16 18 0 -2
BITMAP
0000
1000
1000
7F7C
1144
1144
1144
1144
217C
4E44
0000
0082
2842
2841
4809
0808
07F8
0000
ENDCHAR

STARTCHAR cns4_2938
ENCODING 10552
SWIDTH 854 0
DWIDTH 16 0
BBX 16 18 0 -2
BITMAP
0000
0480
04A0
0894
11F8
3640
5040
1022
1012
100C
0080
2444
2442
2402
4410
0610
03F0
0000
ENDCHAR

STARTCHAR cns4_2939
ENCODING 10553
SWIDTH 854 0
DWIDTH 16 0
BBX 16 18 0 -2
BITMAP
0000
1020
1121
11FF
1101
5519
5460
51A0
1020
1026
1078
13A0
1021
1021
1021
103F
1000
0000
ENDCHAR

STARTCHAR cns4_293A
ENCODING 10554
SWIDTH 854 0
DWIDTH 16 0
BBX 16 18 0 -2
BITMAP
0000
1020
1020
13FF
1C20
5040
5188
5088
1050
1024
1064
1088
1190
1228
1044
10C2
1302
0000
ENDCHAR

STARTCHAR cns4_293B
ENCODING 10555
SWIDTH 854 0
DWIDTH 16 0
BBX 16 18 0 -2
BITMAP
0000
1020
1020
13FF
1020
1C20
53FE
5222
5222
13FE
1222
1120
12C0
1240
10B0
130C
1C03
0000
ENDCHAR

STARTCHAR cns4_293C
ENCODING 10556
SWIDTH 854 0
DWIDTH 16 0
BBX 16 18 0 -2
BITMAP
0000
1014
1012
13FF
1210
5E10
5212
5292
1252
1254
1254
1214
1208
1219
1415
1425
18C3
0000
ENDCHAR

STARTCHAR cns4_293D
ENCODING 10557
SWIDTH 854 0
DWIDTH 16 0
BBX 16 18 0 -2
BITMAP
0000
1002
17E2
110A
110A
1DEA
522A
522A
524A
154A
114A
108A
108A
1102
1102
1202
140E
0000
ENDCHAR

STARTCHAR cns4_293E
ENCODING 10558
SWIDTH 854 0
DWIDTH 16 0
BBX 16 18 0 -2
BITMAP
0000
1040
1040
17FE
1890
5088
5174
5202
1400
13FE
1080
10FC
1104
1004
1004
1008
1030
0000
ENDCHAR

STARTCHAR cns4_293F
ENCODING 10559
SWIDTH 854 0
DWIDTH 16 0
BBX 16 18 0 -2
BITMAP
0000
1040
1040
1084
1D02
53FE
5022
5120
11FE
1220
1420
1020
17FF
1020
1020
1020
1020
0000
ENDCHAR

STARTCHAR cns4_2940
ENCODING 10560
SWIDTH 854 0
DWIDTH 16 0
BBX 16 18 0 -2
BITMAP
0000
100C
1130
11C0
1500
1500
51FF
5100
5100
117C
1144
1144
1244
1244
127C
1444
1400
0000
ENDCHAR

STARTCHAR cns4_2941
ENCODING 10561
SWIDTH 854 0
DWIDTH 16 0
BBX 16 18 0 -2
BITMAP
0000
1080
11BF
1100
1200
5C80
50BF
5104
1304
1504
1104
1104
1104
1104
1104
1104
111C
0000
ENDCHAR

STARTCHAR cns4_2942
ENCODING 10562
SWIDTH 854 0
DWIDTH 16 0
BBX 16 18 0 -2
BITMAP
0000
2040
2044
2444
3248
6950
A940
A7FE
A040
2060
20D0
2150
2248
2444
2843
2040
2040
0000
ENDCHAR

STARTCHAR cns4_2943
ENCODING 10563
SWIDTH 854 0
DWIDTH 16 0
BBX 16 18 0 -2
BITMAP
0000
0240
7FF8
0248
3FF8
2240
4242
7FFE
4442
0844
185C
6140
2784
244A
4413
C411
03F0
0000
ENDCHAR

STARTCHAR cns4_2944
ENCODING 10564
SWIDTH 854 0
DWIDTH 16 0
BBX 16 18 0 -2
BITMAP
0000
0004
7FFE
0100
1FFC
1108
1108
1FF8
1108
0100
0100
0700
2484
244A
4413
8619
03E0
0000
ENDCHAR

STARTCHAR cns4_2945
ENCODING 10565
SWIDTH 854 0
DWIDTH 16 0
BBX 16 18 0 -2
BITMAP
0000
00D0
0091
FFFF
01C0
06A0
0C98
3087
E081
0080
0000
2700
2484
240A
4411
8618
03E0
0000
ENDCHAR

STARTCHAR cns4_2946
ENCODING 10566
SWIDTH 854 0
DWIDTH 16 0
BBX 16 18 0 -2
BITMAP
0000
0600
0440
0440
7C40
047C
0440
1C42
E442
047E
0000
0700
2484
244A
4413
8411
03F0
0000
ENDCHAR

STARTCHAR cns4_2947
ENCODING 10567
SWIDTH 854 0
DWIDTH 16 0
BBX 16 18 0 -2
BITMAP
0000
3FFE
2244
2244
2244
3FFC
2244
2244
2244
225C
2000
0500
2484
2442
4413
0411
03F0
0000
ENDCHAR

STARTCHAR cns4_2948
ENCODING 10568
SWIDTH 854 0
DWIDTH 16 0
BBX 16 18 0 -2
BITMAP
0000
1010
1010
1010
10FE
5892
5492
54FE
5092
1092
10FE
1010
10D0
1020
1050
118C
1603
0000
ENDCHAR

STARTCHAR cns4_2949
ENCODING 10569
SWIDTH 854 0
DWIDTH 16 0
BBX 16 18 0 -2
BITMAP
0000
1020
1020
1020
1C20
53FE
5222
5222
1222
1222
13FE
1222
1020
1022
1022
17FF
1001
0000
ENDCHAR

STARTCHAR cns4_294A
ENCODING 10570
SWIDTH 854 0
DWIDTH 16 0
BBX 16 18 0 -2
BITMAP
0000
1100
1100
11FF
1A00
5200
51FC
5124
1124
17FF
1244
1244
1244
13FE
1204
1004
103C
0000
ENDCHAR

STARTCHAR cns4_294B
ENCODING 10571
SWIDTH 854 0
DWIDTH 16 0
BBX 16 18 0 -2
BITMAP
0000
1088
1084
1122
1222
5840
5444
548E
11F2
1250
1050
1050
1051
1091
1111
121F
1400
0000
ENDCHAR

STARTCHAR cns4_294C
ENCODING 10572
SWIDTH 854 0
DWIDTH 16 0
BBX 16 18 0 -2
BITMAP
0000
0010
7FD4
0112
0113
7F10
45FF
4510
4512
4512
7D0C
450C
0108
0118
0125
0145
0703
0000
ENDCHAR

STARTCHAR cns4_294D
ENCODING 10573
SWIDTH 854 0
DWIDTH 16 0
BBX 16 18 0 -2
BITMAP
0000
001C
1FE0
1000
1FFC
1004
1004
1FFC
1080
1FFC
1080
1FFF
2200
2220
2418
4FEC
0804
0000
ENDCHAR

STARTCHAR cns4_294E
ENCODING 10574
SWIDTH 854 0
DWIDTH 16 0
BBX 16 18 0 -2
BITMAP
0000
1020
1020
13FF
1020
7C40
114C
1088
1050
1C12
7022
1044
1188
1218
1064
1082
7301
0000
ENDCHAR

STARTCHAR cns4_294F
ENCODING 10575
SWIDTH 854 0
DWIDTH 16 0
BBX 16 18 0 -2
BITMAP
0000
1111
1111
1111
7D11
1111
1111
1351
1F55
7555
1111
1111
1211
1211
1211
7411
1801
0000
ENDCHAR

STARTCHAR cns4_2950
ENCODING 10576
SWIDTH 854 0
DWIDTH 16 0
BBX 16 18 0 -2
BITMAP
0000
1010
1016
1012
17FF
7C10
1010
1093
1092
14B4
18CC
7388
1088
109D
1115
1127
7243
0000
ENDCHAR

STARTCHAR cns4_2951
ENCODING 10577
SWIDTH 854 0
DWIDTH 16 0
BBX 16 18 0 -2
BITMAP
0000
1002
17E2
110A
110A
7DCA
124A
124A
124A
1F4A
718A
108A
1082
1102
1102
1202
760E
0000
ENDCHAR

STARTCHAR cns4_2952
ENCODING 10578
SWIDTH 854 0
DWIDTH 16 0
BBX 16 18 0 -2
BITMAP
0000
1000
13FF
1020
1020
7DFE
1152
1152
1152
1D52
7152
1152
1152
1152
1152
1152
710E
0000
ENDCHAR

STARTCHAR cns4_2953
ENCODING 10579
SWIDTH 854 0
DWIDTH 16 0
BBX 16 18 0 -2
BITMAP
0000
1000
11FC
1104
11FC
7D04
11FC
1124
1020
1C20
73FF
1020
1020
1020
1020
1020
7020
0000
ENDCHAR

STARTCHAR cns4_2954
ENCODING 10580
SWIDTH 854 0
DWIDTH 16 0
BBX 16 18 0 -2
BITMAP
0000
1000
13FE
1222
1222
1222
7EFE
1222
1222
1E32
7252
124A
1286
1202
13FE
7202
0202
0000
ENDCHAR

STARTCHAR cns4_2955
ENCODING 10581
SWIDTH 854 0
DWIDTH 16 0
BBX 16 18 0 -2
BITMAP
0000
1088
1088
1088
1288
7E88
1288
12EE
1288
1A88
7288
1288
12A9
12C9
1289
130F
7600
0000
ENDCHAR

STARTCHAR cns4_2956
ENCODING 10582
SWIDTH 854 0
DWIDTH 16 0
BBX 16 18 0 -2
BITMAP
0000
1000
13FE
1202
12FE
7E22
1222
12FA
12AA
1EAA
72AA
52AA
12AA
14AA
14A2
7821
0821
0000
ENDCHAR

STARTCHAR cns4_2957
ENCODING 10583
SWIDTH 854 0
DWIDTH 16 0
BBX 16 18 0 -2
BITMAP
0000
1020
1020
17FF
1040
7C44
1082
11FF
1045
1C44
77FF
1044
1044
1044
1084
1084
7104
0000
ENDCHAR

STARTCHAR cns4_2958
ENCODING 10584
SWIDTH 854 0
DWIDTH 16 0
BBX 16 18 0 -2
BITMAP
0000
1000
11FF
1030
1020
7EFE
1082
1082
1082
1C82
70FE
1082
1082
1082
10FE
1082
7082
0000
ENDCHAR

STARTCHAR cns4_2959
ENCODING 10585
SWIDTH 854 0
DWIDTH 16 0
BBX 16 18 0 -2
BITMAP
0000
1020
1020
1020
103E
7E20
1020
13FF
1000
13FF
1C20
7030
1028
1024
1024
1020
7020
0000
ENDCHAR

STARTCHAR cns4_295A
ENCODING 10586
SWIDTH 854 0
DWIDTH 16 0
BBX 16 18 0 -2
BITMAP
0000
1000
107C
1144
1144
7D44
117C
1144
11F0
1D10
7010
13FF
1030
1028
104C
1186
7703
0000
ENDCHAR

STARTCHAR cns4_295B
ENCODING 10587
SWIDTH 854 0
DWIDTH 16 0
BBX 16 18 0 -2
BITMAP
0000
1060
1080
10F8
1108
7E10
13FC
1024
1024
1BFF
7024
1024
13FC
1020
1020
1020
70E0
0000
ENDCHAR

STARTCHAR cns4_295C
ENCODING 10588
SWIDTH 854 0
DWIDTH 16 0
BBX 16 18 0 -2
BITMAP
0000
2100
213E
2100
2200
7C80
20FF
2104
2104
3304
6504
2104
2104
2104
2104
2104
611C
0000
ENDCHAR

STARTCHAR cns4_295D
ENCODING 10589
SWIDTH 854 0
DWIDTH 16 0
BBX 16 18 0 -2
BITMAP
0000
1408
1408
7F88
1490
149F
7F92
5432
5462
7FB2
54D2
1494
148C
2588
2414
4423
4461
0000
ENDCHAR

STARTCHAR cns4_295E
ENCODING 10590
SWIDTH 854 0
DWIDTH 16 0
BBX 16 18 0 -2
BITMAP
0000
0010
7F90
0220
0220
7E3F
4A24
4A44
4A64
4AA4
7A24
4A18
0218
0238
022C
0246
1E83
0000
ENDCHAR

STARTCHAR cns4_295F
ENCODING 10591
SWIDTH 854 0
DWIDTH 16 0
BBX 16 18 0 -2
BITMAP
0000
0388
3E08
2410
2411
249F
3FD1
2422
2432
2452
2212
2A8C
3288
418C
0094
7E22
00C1
0000
ENDCHAR

STARTCHAR cns4_2960
ENCODING 10592
SWIDTH 854 0
DWIDTH 16 0
BBX 16 18 0 -2
BITMAP
0000
1010
1010
1020
2220
223F
7F22
0142
0042
7F64
4124
4128
4118
4118
7F2C
4146
40C3
0000
ENDCHAR

STARTCHAR cns4_2961
ENCODING 10593
SWIDTH 854 0
DWIDTH 16 0
BBX 16 18 0 -2
BITMAP
0000
0404
4484
2524
1514
0484
7F84
0464
0414
0404
0F07
743C
05C4
0804
0804
1004
1004
0000
ENDCHAR

STARTCHAR cns4_2962
ENCODING 10594
SWIDTH 854 0
DWIDTH 16 0
BBX 16 18 0 -2
BITMAP
0000
0006
7FB8
0120
0120
7920
493F
4924
4924
4924
7924
4924
0124
0124
0144
0144
0F44
0000
ENDCHAR

STARTCHAR cns4_2963
ENCODING 10595
SWIDTH 854 0
DWIDTH 16 0
BBX 16 18 0 -2
BITMAP
0000
0000
01FC
7904
4904
4904
4904
79FC
4904
4904
4904
4904
79FC
4904
4000
07FF
0000
0000
ENDCHAR

STARTCHAR cns4_2964
ENCODING 10596
SWIDTH 854 0
DWIDTH 16 0
BBX 16 18 0 -2
BITMAP
0000
0020
0224
7A24
4A24
4BFC
4A24
7820
4BFC
4884
4888
4848
7850
4830
40D8
0307
0C00
0000
ENDCHAR

STARTCHAR cns4_2965
ENCODING 10597
SWIDTH 854 0
DWIDTH 16 0
BBX 16 18 0 -2
BITMAP
0000
0000
0088
7888
4888
4889
4909
7A0F
4E00
49FC
4904
4904
7904
4904
41FC
0104
0100
0000
ENDCHAR

STARTCHAR cns4_2966
ENCODING 10598
SWIDTH 854 0
DWIDTH 16 0
BBX 16 18 0 -2
BITMAP
0000
0000
1FF8
1008
1FF8
1008
1FF8
0000
3FFC
2004
27E4
2424
2424
27E4
2004
2004
201C
0000
ENDCHAR

STARTCHAR cns4_2967
ENCODING 10599
SWIDTH 854 0
DWIDTH 16 0
BBX 16 18 0 -2
BITMAP
0000
1FF8
1008
1FF8
1008
1FF8
1208
0210
0408
3FFC
0424
7FFF
0420
0820
0820
1020
6020
0000
ENDCHAR

STARTCHAR cns4_2968
ENCODING 10600
SWIDTH 854 0
DWIDTH 16 0
BBX 16 18 0 -2
BITMAP
0000
0000
0080
1FFC
1084
1FFC
1084
7FFF
1004
103C
0000
1FFC
1004
1FFC
1004
1FFC
1004
0000
ENDCHAR

STARTCHAR cns4_2969
ENCODING 10601
SWIDTH 854 0
DWIDTH 16 0
BBX 16 18 0 -2
BITMAP
0000
7800
49FC
4904
4904
7904
4904
49FC
4954
4850
7850
4850
4891
4891
4911
4E1F
1800
0000
ENDCHAR

STARTCHAR cns4_296A
ENCODING 10602
SWIDTH 854 0
DWIDTH 16 0
BBX 16 18 0 -2
BITMAP
0000
083E
0822
4922
4922
493E
4922
7F22
4922
0822
493E
4922
4922
4922
7F22
4142
004E
0000
ENDCHAR

STARTCHAR cns4_296B
ENCODING 10603
SWIDTH 854 0
DWIDTH 16 0
BBX 16 18 0 -2
BITMAP
0000
23FC
2204
2204
2204
2BFC
F220
2220
72F8
6A28
A228
A228
2449
2449
2489
2889
2B06
0000
ENDCHAR

STARTCHAR cns4_296C
ENCODING 10604
SWIDTH 854 0
DWIDTH 16 0
BBX 16 18 0 -2
BITMAP
0000
1000
101E
13E0
1022
1524
78A4
30A8
3828
55FF
5420
1020
1020
1020
1020
1020
10E0
0000
ENDCHAR

STARTCHAR cns4_296D
ENCODING 10605
SWIDTH 854 0
DWIDTH 16 0
BBX 16 18 0 -2
BITMAP
0000
1020
1020
11FF
1102
7F04
1200
11FF
1810
3410
3210
5010
5010
1010
1010
1010
1030
0000
ENDCHAR

STARTCHAR cns4_296E
ENCODING 10606
SWIDTH 854 0
DWIDTH 16 0
BBX 16 18 0 -2
BITMAP
0000
1020
1020
1020
13FF
7C20
1122
1122
3922
35FE
5122
5122
1122
1122
1222
1222
1420
0000
ENDCHAR

STARTCHAR cns4_296F
ENCODING 10607
SWIDTH 854 0
DWIDTH 16 0
BBX 16 18 0 -2
BITMAP
0000
1020
1020
1048
1044
7C82
11FE
3049
3848
3448
53FF
5048
1048
1088
1088
1108
1608
0000
ENDCHAR

STARTCHAR cns4_2970
ENCODING 10608
SWIDTH 854 0
DWIDTH 16 0
BBX 16 18 0 -2
BITMAP
0000
0020
7FA0
0120
017F
7941
4952
4994
4910
4910
7918
4928
0124
0124
0144
0142
0783
0000
ENDCHAR

STARTCHAR cns4_2971
ENCODING 10609
SWIDTH 854 0
DWIDTH 16 0
BBX 16 18 0 -2
BITMAP
0000
2910
2910
2921
293F
7FA2
2954
2910
2910
2910
2F18
2928
2024
2024
3FC4
2042
2083
0000
ENDCHAR

STARTCHAR cns4_2972
ENCODING 10610
SWIDTH 854 0
DWIDTH 16 0
BBX 16 18 0 -2
BITMAP
0000
0020
7F20
1120
117E
1142
2154
2714
4010
3F10
2128
2128
2128
2124
3F44
2142
0083
0000
ENDCHAR

STARTCHAR cns4_2973
ENCODING 10611
SWIDTH 854 0
DWIDTH 16 0
BBX 16 18 0 -2
BITMAP
0000
0020
7E20
4220
4241
427F
4249
424A
4288
7E08
4218
2018
2424
2224
4242
4183
0000
0000
ENDCHAR

STARTCHAR cns4_2974
ENCODING 10612
SWIDTH 854 0
DWIDTH 16 0
BBX 16 18 0 -2
BITMAP
0000
0820
0820
1020
143F
2221
2152
7F54
0110
0018
3F28
2128
2128
2124
3F44
2146
2183
0000
ENDCHAR

STARTCHAR cns4_2975
ENCODING 10613
SWIDTH 854 0
DWIDTH 16 0
BBX 16 18 0 -2
BITMAP
0000
1108
1108
1108
211F
2BD1
496A
294A
3148
1148
1148
294C
264A
7A52
0291
04A1
0920
0000
ENDCHAR

STARTCHAR cns4_2976
ENCODING 10614
SWIDTH 854 0
DWIDTH 16 0
BBX 16 18 0 -2
BITMAP
0000
0010
1010
1010
1010
7E90
0090
449E
4490
4890
2890
2890
2890
0690
1890
63FF
0000
0000
ENDCHAR

STARTCHAR cns4_2977
ENCODING 10615
SWIDTH 854 0
DWIDTH 16 0
BBX 16 18 0 -2
BITMAP
0000
0020
7E24
2022
21FF
3D20
4520
4522
4522
6912
1914
0914
1118
1109
21D9
4725
8043
0000
ENDCHAR

STARTCHAR cns4_2978
ENCODING 10616
SWIDTH 854 0
DWIDTH 16 0
BBX 16 18 0 -2
BITMAP
0000
0020
7EA0
10A0
10A0
21FE
3D20
2620
4420
47FF
2860
1850
1050
1088
210C
4206
0000
0000
ENDCHAR

STARTCHAR cns4_2979
ENCODING 10617
SWIDTH 854 0
DWIDTH 16 0
BBX 16 18 0 -2
BITMAP
0000
0000
7FFE
2102
2102
3DFE
4512
4510
49FF
6910
2910
1108
1108
2124
41C6
4703
0000
0000
ENDCHAR

STARTCHAR cns4_297A
ENCODING 10618
SWIDTH 854 0
DWIDTH 16 0
BBX 16 18 0 -2
BITMAP
0000
0040
7C40
10FE
1084
10C4
3D28
2610
242C
48C3
4B00
2830
1008
1000
2060
4010
0008
0000
ENDCHAR

STARTCHAR cns4_297B
ENCODING 10619
SWIDTH 854 0
DWIDTH 16 0
BBX 16 18 0 -2
BITMAP
0000
0400
07E0
0840
1FF8
7008
1008
1FF8
0000
1040
1040
1F40
107C
1040
1341
1C41
603F
0000
ENDCHAR

STARTCHAR cns4_297C
ENCODING 10620
SWIDTH 854 0
DWIDTH 16 0
BBX 16 18 0 -2
BITMAP
0000
0000
63FC
1204
0204
4A04
2BFC
1204
1040
1040
2040
27FE
6040
2040
2040
2FFF
2000
0000
ENDCHAR

STARTCHAR cns4_297D
ENCODING 10621
SWIDTH 854 0
DWIDTH 16 0
BBX 16 18 0 -2
BITMAP
0000
0000
63F8
12A8
02A8
02A8
57FE
32A8
12A8
22A8
2FFE
22A8
62A8
22A8
22A8
22B8
0200
0000
ENDCHAR

STARTCHAR cns4_297E
ENCODING 10622
SWIDTH 854 0
DWIDTH 16 0
BBX 16 18 0 -2
BITMAP
0000
0190
4110
2310
0210
06FF
9610
5A38
1238
1254
2254
2256
2292
6293
2310
2210
2210
0000
ENDCHAR

STARTCHAR cns4_2A21
ENCODING 10785
SWIDTH 854 0
DWIDTH 16 0
BBX 16 18 0 -2
BITMAP
0000
0040
6040
1040
07FE
0244
6244
1148
0FFF
1040
2040
20A0
60A0
2110
2208
2404
2803
0000
ENDCHAR

STARTCHAR cns4_2A22
ENCODING 10786
SWIDTH 854 0
DWIDTH 16 0
BBX 16 18 0 -2
BITMAP
0000
0020
4020
37FF
0020
0020
4BFE
3222
1222
13FE
2222
2120
62C0
2640
20A0
2318
2C06
0000
ENDCHAR

STARTCHAR cns4_2A23
ENCODING 10787
SWIDTH 854 0
DWIDTH 16 0
BBX 16 18 0 -2
BITMAP
0000
0000
67FF
1060
00D8
0346
4C41
2040
1000
1040
2040
2040
6FFF
2040
2040
2040
0040
0000
ENDCHAR

STARTCHAR cns4_2A24
ENCODING 10788
SWIDTH 854 0
DWIDTH 16 0
BBX 16 18 0 -2
BITMAP
0000
0020
6020
1128
0224
0222
5423
30E0
1040
2040
3FFF
2040
60A0
2090
210C
2603
0800
0000
ENDCHAR

STARTCHAR cns4_2A25
ENCODING 10789
SWIDTH 854 0
DWIDTH 16 0
BBX 16 18 0 -2
BITMAP
0000
0100
6100
13FF
0200
0500
55FC
3124
1124
27FF
2204
2244
6244
27FE
2408
2008
2030
0000
ENDCHAR

STARTCHAR cns4_2A26
ENCODING 10790
SWIDTH 854 0
DWIDTH 16 0
BBX 16 18 0 -2
BITMAP
0000
1048
1044
1044
1440
57FF
5840
5042
1042
1042
10A4
18A4
24A4
2518
2118
4226
44C3
0000
ENDCHAR

STARTCHAR cns4_2A27
ENCODING 10791
SWIDTH 854 0
DWIDTH 16 0
BBX 16 18 0 -2
BITMAP
0000
1000
10FE
1092
1292
1692
58FE
5092
5092
1092
10FE
1092
1892
2692
2092
4116
0000
0000
ENDCHAR

STARTCHAR cns4_2A28
ENCODING 10792
SWIDTH 854 0
DWIDTH 16 0
BBX 16 18 0 -2
BITMAP
0000
1000
101E
11E0
1424
5524
58A4
50A8
1020
13FF
1020
1020
1020
2820
2420
2020
40E0
0000
ENDCHAR

STARTCHAR cns4_2A29
ENCODING 10793
SWIDTH 854 0
DWIDTH 16 0
BBX 16 18 0 -2
BITMAP
0000
0100
0104
3108
0930
0100
0680
1870
600E
1FF0
1010
1FF0
1010
1FF0
1010
7FFE
0000
0000
ENDCHAR

STARTCHAR cns4_2A2A
ENCODING 10794
SWIDTH 854 0
DWIDTH 16 0
BBX 16 18 0 -2
BITMAP
0000
003C
3FC0
110C
1088
0890
0910
1FF8
1108
1FF8
1108
FFFF
1008
1008
1008
1008
1038
0000
ENDCHAR

STARTCHAR cns4_2A2B
ENCODING 10795
SWIDTH 854 0
DWIDTH 16 0
BBX 16 18 0 -2
BITMAP
0000
0400
05FF
6811
1012
2810
4690
8090
049E
4490
4490
2950
2950
1150
2A30
4410
830F
0000
ENDCHAR

STARTCHAR cns4_2A2C
ENCODING 10796
SWIDTH 854 0
DWIDTH 16 0
BBX 16 18 0 -2
BITMAP
0000
0400
25FE
2422
2422
2442
3C42
049C
0400
7CFE
2482
2482
2482
2482
24FE
4482
4482
0000
ENDCHAR

STARTCHAR cns4_2A2D
ENCODING 10797
SWIDTH 854 0
DWIDTH 16 0
BBX 16 18 0 -2
BITMAP
0000
0458
2444
2444
2440
25FF
3C40
0444
0444
7C84
2488
24A8
2528
2510
4528
4646
4683
0000
ENDCHAR

STARTCHAR cns4_2A2E
ENCODING 10798
SWIDTH 854 0
DWIDTH 16 0
BBX 16 18 0 -2
BITMAP
0000
0880
2880
2880
29FF
3F20
4920
4820
083E
0E20
1820
6820
083E
0820
0820
0820
0820
0000
ENDCHAR

STARTCHAR cns4_2A2F
ENCODING 10799
SWIDTH 854 0
DWIDTH 16 0
BBX 16 18 0 -2
BITMAP
0000
0800
29FF
2802
2802
3EFA
488A
488A
088A
0E8A
78FA
088A
0802
0802
0802
0802
080E
0000
ENDCHAR

STARTCHAR cns4_2A30
ENCODING 10800
SWIDTH 854 0
DWIDTH 16 0
BBX 16 18 0 -2
BITMAP
0000
0240
0240
3E7C
0240
0241
7E7F
0080
0880
0880
1FFC
2080
7FFF
0080
0080
0080
0080
0000
ENDCHAR

STARTCHAR cns4_2A31
ENCODING 10801
SWIDTH 854 0
DWIDTH 16 0
BBX 16 18 0 -2
BITMAP
0000
0820
4820
3122
2124
50A4
10A8
17FF
2870
2870
48A8
48A8
0924
0922
1220
7020
0020
0000
ENDCHAR

STARTCHAR cns4_2A32
ENCODING 10802
SWIDTH 854 0
DWIDTH 16 0
BBX 16 18 0 -2
BITMAP
0000
0820
4820
33FF
2020
53FC
1024
13FC
1220
3220
4BFF
0821
0853
0856
1088
1104
6603
0000
ENDCHAR

STARTCHAR cns4_2A33
ENCODING 10803
SWIDTH 854 0
DWIDTH 16 0
BBX 16 18 0 -2
BITMAP
0000
0420
2820
1BFE
1022
6BFF
0822
09FE
1820
1820
2BFE
4820
0820
0FFF
0820
7820
1020
0000
ENDCHAR

STARTCHAR cns4_2A34
ENCODING 10804
SWIDTH 854 0
DWIDTH 16 0
BBX 16 18 0 -2
BITMAP
0000
0820
5820
33FF
6020
1020
13FE
1222
1A22
33FE
5222
10A0
1340
1040
10A0
1118
3606
0000
ENDCHAR

STARTCHAR cns4_2A35
ENCODING 10805
SWIDTH 854 0
DWIDTH 16 0
BBX 16 18 0 -2
BITMAP
0000
0420
2820
11FE
3122
4922
09FE
0912
1912
19FE
2910
4812
0814
0808
0819
1065
6183
0000
ENDCHAR

STARTCHAR cns4_2A36
ENCODING 10806
SWIDTH 854 0
DWIDTH 16 0
BBX 16 18 0 -2
BITMAP
0000
0040
0058
7E44
1040
13FF
1040
1044
7C84
10C4
10A8
10A8
1110
1D18
722C
00C3
0300
0000
ENDCHAR

STARTCHAR cns4_2A37
ENCODING 10807
SWIDTH 854 0
DWIDTH 16 0
BBX 16 18 0 -2
BITMAP
0000
0020
0020
7E48
1084
1102
13FE
104A
7C48
1048
13FF
1048
1C48
6088
0088
0108
0208
0000
ENDCHAR

STARTCHAR cns4_2A38
ENCODING 10808
SWIDTH 854 0
DWIDTH 16 0
BBX 16 18 0 -2
BITMAP
0000
0000
01FE
7F02
1102
11FE
1102
1102
7D02
1102
11FE
1302
1D02
7102
01FE
0102
0100
0000
ENDCHAR

STARTCHAR cns4_2A39
ENCODING 10809
SWIDTH 854 0
DWIDTH 16 0
BBX 16 18 0 -2
BITMAP
0000
0000
0F10
3A10
2AFF
2A91
2A91
2A18
2A28
2928
2969
2949
2A8F
2A80
4D60
501C
0003
0000
ENDCHAR

STARTCHAR cns4_2A3A
ENCODING 10810
SWIDTH 854 0
DWIDTH 16 0
BBX 16 18 0 -2
BITMAP
0000
1000
101C
1EE8
70A8
10A8
54A8
54A8
54A4
54A4
7CA4
552A
513A
12C9
1400
1001
1FFF
0000
ENDCHAR

STARTCHAR cns4_2A3B
ENCODING 10811
SWIDTH 854 0
DWIDTH 16 0
BBX 16 18 0 -2
BITMAP
0000
0010
7FB0
2028
2048
2044
3E83
2278
2200
2200
2AFE
2A02
4204
4208
7A30
4201
03FF
0000
ENDCHAR

STARTCHAR cns4_2A3C
ENCODING 10812
SWIDTH 854 0
DWIDTH 16 0
BBX 16 18 0 -2
BITMAP
0000
0000
7F00
2007
2078
2040
3E40
227F
2241
2A42
2A62
2A54
2248
2294
26A3
3A40
43FE
0000
ENDCHAR

STARTCHAR cns4_2A3D
ENCODING 10813
SWIDTH 854 0
DWIDTH 16 0
BBX 16 18 0 -2
BITMAP
0000
0000
7EFF
2440
2440
2440
247C
7F48
2448
2468
2458
2498
2488
4489
4499
44E9
450F
0000
ENDCHAR

STARTCHAR cns4_2A3E
ENCODING 10814
SWIDTH 854 0
DWIDTH 16 0
BBX 16 18 0 -2
BITMAP
0000
1000
11FE
1880
2880
2480
42F8
4188
3888
00A8
7CA8
0498
0489
0889
08E9
138F
1000
0000
ENDCHAR

STARTCHAR cns4_2A3F
ENCODING 10815
SWIDTH 854 0
DWIDTH 16 0
BBX 16 18 0 -2
BITMAP
0000
0820
2820
2820
2840
7F7F
4844
48C4
0844
7E48
0828
0838
0810
0930
0E28
7044
0083
0000
ENDCHAR

STARTCHAR cns4_2A40
ENCODING 10816
SWIDTH 854 0
DWIDTH 16 0
BBX 16 18 0 -2
BITMAP
0000
0020
0120
7920
4920
4BFE
4A20
7A20
4C20
4820
4BFE
4820
7820
4820
4020
07FF
0000
0000
ENDCHAR

STARTCHAR cns4_2A41
ENCODING 10817
SWIDTH 854 0
DWIDTH 16 0
BBX 16 18 0 -2
BITMAP
0000
0020
0020
7C20
57FF
5400
5400
7CF0
5490
5490
5490
5490
7C91
4511
0111
021F
0400
0000
ENDCHAR

STARTCHAR cns4_2A42
ENCODING 10818
SWIDTH 854 0
DWIDTH 16 0
BBX 16 18 0 -2
BITMAP
0000
0000
01FE
7C02
5424
5418
5408
7DFF
5411
5412
5414
7C10
4410
0010
0010
0010
0070
0000
ENDCHAR

STARTCHAR cns4_2A43
ENCODING 10819
SWIDTH 854 0
DWIDTH 16 0
BBX 16 18 0 -2
BITMAP
0000
1FF8
1108
1FF8
1108
1108
1FF8
1008
0880
0880
1FFC
2080
0080
7FFF
0080
0080
0080
0000
ENDCHAR

STARTCHAR cns4_2A44
ENCODING 10820
SWIDTH 854 0
DWIDTH 16 0
BBX 16 18 0 -2
BITMAP
0000
0C42
0884
1108
7FFF
1210
098C
04C6
1FFE
1084
1084
1FFC
1084
1084
1084
1FFC
1004
0000
ENDCHAR

STARTCHAR cns4_2A45
ENCODING 10821
SWIDTH 854 0
DWIDTH 16 0
BBX 16 18 0 -2
BITMAP
0000
0080
0080
1FFF
1000
D7FC
5040
5240
1240
17FC
3440
D0A0
10A0
1120
2122
2222
4C3E
0000
ENDCHAR

STARTCHAR cns4_2A46
ENCODING 10822
SWIDTH 854 0
DWIDTH 16 0
BBX 16 18 0 -2
BITMAP
0000
0040
0040
1FFF
1040
9040
5040
5744
1168
1150
7250
9248
1248
2444
2442
48C3
4380
0000
ENDCHAR

STARTCHAR cns4_2A47
ENCODING 10823
SWIDTH 854 0
DWIDTH 16 0
BBX 16 18 0 -2
BITMAP
0000
0080
0080
1FFF
1080
90C0
5130
520C
15F6
3800
5000
97FC
200C
2008
2010
4020
40C0
0000
ENDCHAR

STARTCHAR cns4_2A48
ENCODING 10824
SWIDTH 854 0
DWIDTH 16 0
BBX 16 18 0 -2
BITMAP
0000
0040
0040
0FFF
0800
4BFC
2A00
2A00
0BFF
1A10
2A10
4A10
0A10
1210
1410
2410
2810
0000
ENDCHAR

STARTCHAR cns4_2A49
ENCODING 10825
SWIDTH 854 0
DWIDTH 16 0
BBX 16 18 0 -2
BITMAP
0000
0040
0040
0FFF
0800
49FF
2900
2900
09FC
1904
2944
4948
0928
1210
1210
122C
24C3
0000
ENDCHAR

STARTCHAR cns4_2A4A
ENCODING 10826
SWIDTH 854 0
DWIDTH 16 0
BBX 16 18 0 -2
BITMAP
0000
0040
0040
0FFF
0840
4BFC
2844
2844
0885
0885
3927
4820
0FFF
1020
1020
2020
2020
0000
ENDCHAR

STARTCHAR cns4_2A4B
ENCODING 10827
SWIDTH 854 0
DWIDTH 16 0
BBX 16 18 0 -2
BITMAP
0000
0040
0040
0FFF
0880
4900
29FF
2A00
0AFC
0C00
19FC
6804
0804
1004
1002
1002
2001
0000
ENDCHAR

STARTCHAR cns4_2A4C
ENCODING 10828
SWIDTH 854 0
DWIDTH 16 0
BBX 16 18 0 -2
BITMAP
0000
0000
13FC
1244
7A44
4A44
4A44
4A44
7BFC
4A04
4A00
4A00
7A00
4A02
0202
03FE
0000
0000
ENDCHAR

STARTCHAR cns4_2A4D
ENCODING 10829
SWIDTH 854 0
DWIDTH 16 0
BBX 16 18 0 -2
BITMAP
0000
0080
0100
1FFC
1004
1FFC
1004
1004
1FFC
1104
0100
3118
0AA0
0240
0420
1818
6006
0000
ENDCHAR

STARTCHAR cns4_2A4E
ENCODING 10830
SWIDTH 854 0
DWIDTH 16 0
BBX 16 18 0 -2
BITMAP
0000
1040
1040
1F7C
1041
1E7F
7080
0080
1FFE
1084
1080
1FF8
1210
1120
20C0
2330
4C0E
0000
ENDCHAR

STARTCHAR cns4_2A4F
ENCODING 10831
SWIDTH 854 0
DWIDTH 16 0
BBX 16 18 0 -2
BITMAP
0000
0010
7E10
2810
28FF
2892
2892
7E90
28FE
28A2
28A4
28A4
2898
2910
4928
4A44
4882
0000
ENDCHAR

STARTCHAR cns4_2A50
ENCODING 10832
SWIDTH 854 0
DWIDTH 16 0
BBX 16 18 0 -2
BITMAP
0000
00F0
1C10
1010
2FE8
2406
4803
0FE0
0020
0040
0180
1FF8
1248
1248
1248
7FFF
0000
0000
ENDCHAR

STARTCHAR cns4_2A51
ENCODING 10833
SWIDTH 854 0
DWIDTH 16 0
BBX 16 18 0 -2
BITMAP
0000
0000
3FFC
0420
0420
7FFF
0420
0420
0820
0820
1020
3FF8
1248
1248
1248
7FFF
0000
0000
ENDCHAR

STARTCHAR cns4_2A52
ENCODING 10834
SWIDTH 854 0
DWIDTH 16 0
BBX 16 18 0 -2
BITMAP
0000
0020
7820
4820
4BFF
4840
7840
487E
4842
4842
7842
4882
4882
4902
7904
4A04
0438
0000
ENDCHAR

STARTCHAR cns4_2A53
ENCODING 10835
SWIDTH 854 0
DWIDTH 16 0
BBX 16 18 0 -2
BITMAP
0000
0002
7BF2
4812
4812
49F2
7912
4902
4902
49F2
7812
4812
4812
4812
7822
4822
00C2
0000
ENDCHAR

STARTCHAR cns4_2A54
ENCODING 10836
SWIDTH 854 0
DWIDTH 16 0
BBX 16 18 0 -2
BITMAP
0000
0000
7BFF
4888
4888
4888
7888
4BFF
4888
4888
7888
4908
4908
4908
7A08
4A08
0408
0000
ENDCHAR

STARTCHAR cns4_2A55
ENCODING 10837
SWIDTH 854 0
DWIDTH 16 0
BBX 16 18 0 -2
BITMAP
0000
7800
4BFC
4800
4800
7800
4FFE
4890
4890
7890
4890
4910
4911
7A11
4A11
0C1F
1800
0000
ENDCHAR

STARTCHAR cns4_2A56
ENCODING 10838
SWIDTH 854 0
DWIDTH 16 0
BBX 16 18 0 -2
BITMAP
0000
0004
7838
4BC0
4840
4840
7840
4FFE
4860
7860
4850
4890
4888
7908
4A04
0603
0C00
0000
ENDCHAR

STARTCHAR cns4_2A57
ENCODING 10839
SWIDTH 854 0
DWIDTH 16 0
BBX 16 18 0 -2
BITMAP
0000
0040
7840
4840
4BFC
4844
7844
4844
4FFF
4860
78A0
4890
4890
4908
7904
4A06
0C03
0000
ENDCHAR

STARTCHAR cns4_2A58
ENCODING 10840
SWIDTH 854 0
DWIDTH 16 0
BBX 16 18 0 -2
BITMAP
0000
0200
7A7E
4A12
4A12
7AD2
4F12
4A12
4A12
7A12
4AA2
4AA2
4BA2
7842
4884
019C
0200
0000
ENDCHAR

STARTCHAR cns4_2A59
ENCODING 10841
SWIDTH 854 0
DWIDTH 16 0
BBX 16 18 0 -2
BITMAP
0000
0000
7CFE
4482
4482
44FE
7C82
4482
4482
7CFE
4482
4482
4482
7D02
4502
0102
020E
0000
ENDCHAR

STARTCHAR cns4_2A5A
ENCODING 10842
SWIDTH 854 0
DWIDTH 16 0
BBX 16 18 0 -2
BITMAP
0000
0080
7880
4880
49FE
494A
7A4A
4A4A
4C92
4892
7912
4922
4A62
4C44
7884
4908
0030
0000
ENDCHAR

STARTCHAR cns4_2A5B
ENCODING 10843
SWIDTH 854 0
DWIDTH 16 0
BBX 16 18 0 -2
BITMAP
0000
1FF8
1008
1FF8
1008
1FF8
1008
1FF8
1108
01F0
0100
0FF0
0410
0220
01E0
0730
3C0E
0000
ENDCHAR

STARTCHAR cns4_2A5C
ENCODING 10844
SWIDTH 854 0
DWIDTH 16 0
BBX 16 18 0 -2
BITMAP
0000
07F0
2410
27F0
2410
27F0
2410
27F0
2000
3FFE
2442
08C6
1084
2108
6318
118C
08C6
0000
ENDCHAR

STARTCHAR cns4_2A5D
ENCODING 10845
SWIDTH 854 0
DWIDTH 16 0
BBX 16 18 0 -2
BITMAP
0000
0006
7938
49D0
4910
4910
7910
49FE
4910
4910
7910
4908
4908
4909
7965
4F85
0003
0000
ENDCHAR

STARTCHAR cns4_2A5E
ENCODING 10846
SWIDTH 854 0
DWIDTH 16 0
BBX 16 18 0 -2
BITMAP
0000
003C
13C0
1C80
1080
1FFE
1040
1020
1F11
700D
0FF3
0810
0FF0
0810
0FF0
0810
0FF0
0000
ENDCHAR

STARTCHAR cns4_2A5F
ENCODING 10847
SWIDTH 854 0
DWIDTH 16 0
BBX 16 18 0 -2
BITMAP
0000
7EFC
0244
2444
1844
0444
7F44
0944
1A44
39FF
2884
4884
0884
0884
0884
0884
19FE
0000
ENDCHAR

STARTCHAR cns4_2A60
ENCODING 10848
SWIDTH 854 0
DWIDTH 16 0
BBX 16 18 0 -2
BITMAP
0000
0000
7E78
0248
3448
1849
7E89
0A87
0AFC
1A44
1C44
2828
4828
0810
0828
08C6
3800
0000
ENDCHAR

STARTCHAR cns4_2A61
ENCODING 10849
SWIDTH 854 0
DWIDTH 16 0
BBX 16 18 0 -2
BITMAP
0000
0000
7F5C
0244
3482
1903
09FD
7F20
0940
0A80
18FE
1802
2802
4804
0804
0808
3870
0000
ENDCHAR

STARTCHAR cns4_2A62
ENCODING 10850
SWIDTH 854 0
DWIDTH 16 0
BBX 16 18 0 -2
BITMAP
0000
0020
7E20
103C
11E0
2020
2020
3DFE
6420
6420
25FE
2420
2420
3C20
2420
2020
0020
0000
ENDCHAR

STARTCHAR cns4_2A63
ENCODING 10851
SWIDTH 854 0
DWIDTH 16 0
BBX 16 18 0 -2
BITMAP
0000
0020
7E20
1020
1040
23FF
2040
3C48
6448
6450
2490
2490
24A4
2522
3D4E
24F1
2001
0000
ENDCHAR

STARTCHAR cns4_2A64
ENCODING 10852
SWIDTH 854 0
DWIDTH 16 0
BBX 16 18 0 -2
BITMAP
0000
0004
7E04
10C8
1030
202C
20C4
3C02
6444
24C4
24A8
2438
2410
3C30
244C
2582
0601
0000
ENDCHAR

STARTCHAR cns4_2A65
ENCODING 10853
SWIDTH 854 0
DWIDTH 16 0
BBX 16 18 0 -2
BITMAP
0000
0040
7E40
1040
10FE
2082
2082
7D02
257A
2402
2402
241A
24E2
3C02
2402
2004
0018
0000
ENDCHAR

STARTCHAR cns4_2A66
ENCODING 10854
SWIDTH 854 0
DWIDTH 16 0
BBX 16 18 0 -2
BITMAP
0000
1020
1020
1020
7C20
05FE
0820
1820
3020
5BFF
1420
1060
1050
1088
118C
1306
1603
0000
ENDCHAR

STARTCHAR cns4_2A67
ENCODING 10855
SWIDTH 854 0
DWIDTH 16 0
BBX 16 18 0 -2
BITMAP
0000
1110
1110
1110
7D10
0510
09DC
1910
3110
5D10
1510
1110
1111
1171
1191
161F
1000
0000
ENDCHAR

STARTCHAR cns4_2A68
ENCODING 10856
SWIDTH 854 0
DWIDTH 16 0
BBX 16 18 0 -2
BITMAP
0000
0020
0020
7E20
11FE
1122
3922
35FE
5522
5522
1122
11FE
1122
1020
1020
1020
1020
0000
ENDCHAR

STARTCHAR cns4_2A69
ENCODING 10857
SWIDTH 854 0
DWIDTH 16 0
BBX 16 18 0 -2
BITMAP
0000
0E20
7020
1020
11FF
7E40
1040
187E
3442
3442
5042
5082
1082
1104
1104
1204
1418
0000
ENDCHAR

STARTCHAR cns4_2A6A
ENCODING 10858
SWIDTH 854 0
DWIDTH 16 0
BBX 16 18 0 -2
BITMAP
0000
0E20
7020
1020
1020
7CFC
1020
1820
3420
55FE
5060
5070
10D0
1088
118C
1306
1603
0000
ENDCHAR

STARTCHAR cns4_2A6B
ENCODING 10859
SWIDTH 854 0
DWIDTH 16 0
BBX 16 18 0 -2
BITMAP
0000
0E00
71FF
1048
1048
7E88
1088
11FF
3D18
3428
5028
5048
1048
1088
1108
1008
1038
0000
ENDCHAR

STARTCHAR cns4_2A6C
ENCODING 10860
SWIDTH 854 0
DWIDTH 16 0
BBX 16 18 0 -2
BITMAP
0000
0E00
70F0
1010
1010
7DFE
1112
3122
3932
352A
554A
5186
5102
1102
1102
1102
110E
0000
ENDCHAR

STARTCHAR cns4_2A6D
ENCODING 10861
SWIDTH 854 0
DWIDTH 16 0
BBX 16 18 0 -2
BITMAP
0000
0660
7C40
08FF
0880
7E80
097E
1800
1CFE
1A04
2808
2810
4820
0841
0881
08FF
0800
0000
ENDCHAR

STARTCHAR cns4_2A6E
ENCODING 10862
SWIDTH 854 0
DWIDTH 16 0
BBX 16 18 0 -2
BITMAP
0000
1006
1018
10F0
5410
5410
5BFF
1030
1038
1058
1054
1094
2912
2513
4410
4010
0010
0000
ENDCHAR

STARTCHAR cns4_2A6F
ENCODING 10863
SWIDTH 854 0
DWIDTH 16 0
BBX 16 18 0 -2
BITMAP
0000
0E00
71FE
1048
1048
7E48
1048
13FF
3848
3448
5448
5088
1088
1088
1108
1108
1208
0000
ENDCHAR

STARTCHAR cns4_2A70
ENCODING 10864
SWIDTH 854 0
DWIDTH 16 0
BBX 16 18 0 -2
BITMAP
0000
0700
78FE
0892
0892
7F92
0892
0892
1CFE
1A82
2A80
2880
4880
0881
0881
0881
087F
0000
ENDCHAR

STARTCHAR cns4_2A71
ENCODING 10865
SWIDTH 854 0
DWIDTH 16 0
BBX 16 18 0 -2
BITMAP
0000
0100
0100
7FFF
4445
497D
1100
1FF8
0108
0108
7FFF
0280
0240
0420
0418
080E
3003
0000
ENDCHAR

STARTCHAR cns4_2A72
ENCODING 10866
SWIDTH 854 0
DWIDTH 16 0
BBX 16 18 0 -2
BITMAP
0000
0100
0100
7FFE
4442
484A
1278
6200
7FFE
0200
0480
0480
0920
0910
1210
23F8
4C08
0000
ENDCHAR

STARTCHAR cns4_2A73
ENCODING 10867
SWIDTH 854 0
DWIDTH 16 0
BBX 16 18 0 -2
BITMAP
0000
0100
2100
3FFF
4445
487D
1000
6670
01C0
0370
1C1C
6430
0220
0240
0180
0E78
780F
0000
ENDCHAR

STARTCHAR cns4_2A74
ENCODING 10868
SWIDTH 854 0
DWIDTH 16 0
BBX 16 18 0 -2
BITMAP
0000
0080
2082
3FFF
4242
0430
080C
37F0
0220
0220
7FFF
0220
0220
0420
0420
0420
0820
0000
ENDCHAR

STARTCHAR cns4_2A75
ENCODING 10869
SWIDTH 854 0
DWIDTH 16 0
BBX 16 18 0 -2
BITMAP
0000
0000
11FE
1122
1122
7F22
0122
2522
25FE
2902
2900
2900
2900
0B01
1D01
6101
00FF
0000
ENDCHAR

STARTCHAR cns4_2A76
ENCODING 10870
SWIDTH 854 0
DWIDTH 16 0
BBX 16 18 0 -2
BITMAP
0000
1020
1028
1024
7E20
0023
05FC
4420
4424
4824
2828
2810
2830
1C51
6089
0305
0003
0000
ENDCHAR

STARTCHAR cns4_2A77
ENCODING 10871
SWIDTH 854 0
DWIDTH 16 0
BBX 16 18 0 -2
BITMAP
0000
0800
0800
4B7F
2A08
2C08
0808
7F08
0808
1C08
1A08
2908
2908
4808
0808
08FF
0800
0000
ENDCHAR

STARTCHAR cns4_2A78
ENCODING 10872
SWIDTH 854 0
DWIDTH 16 0
BBX 16 18 0 -2
BITMAP
0000
1000
107F
1010
3F10
2410
44FF
7F20
0440
047F
2501
2501
2501
2501
3F02
2102
210C
0000
ENDCHAR

STARTCHAR cns4_2A79
ENCODING 10873
SWIDTH 854 0
DWIDTH 16 0
BBX 16 18 0 -2
BITMAP
0000
1000
107F
1008
3F08
2808
4808
7F7F
0808
0808
4908
4908
4908
4908
7F08
4108
4138
0000
ENDCHAR

STARTCHAR cns4_2A7A
ENCODING 10874
SWIDTH 854 0
DWIDTH 16 0
BBX 16 18 0 -2
BITMAP
0000
3FFC
2244
2244
2244
3FFC
2004
7FFE
0200
07F8
0810
0810
1FF0
1020
0020
7FFF
0000
0000
ENDCHAR

STARTCHAR cns4_2A7B
ENCODING 10875
SWIDTH 854 0
DWIDTH 16 0
BBX 16 18 0 -2
BITMAP
0000
3FFC
2244
2244
3FFC
2204
0200
7FFE
0200
0440
0440
0880
08A0
1110
2208
44F4
1F04
0000
ENDCHAR

STARTCHAR cns4_2A7C
ENCODING 10876
SWIDTH 854 0
DWIDTH 16 0
BBX 16 18 0 -2
BITMAP
0000
0000
3FFC
2244
2244
3FFC
2104
0280
0460
0B98
300E
4FF3
0010
0020
0020
0040
0040
0000
ENDCHAR

STARTCHAR cns4_2A7D
ENCODING 10877
SWIDTH 854 0
DWIDTH 16 0
BBX 16 18 0 -2
BITMAP
0000
3FFC
2104
2284
2464
2804
0000
1FF8
1008
1008
1FF8
1008
1008
1FF8
1008
1008
7FFF
0000
ENDCHAR

STARTCHAR cns4_2A7E
ENCODING 10878
SWIDTH 854 0
DWIDTH 16 0
BBX 16 18 0 -2
BITMAP
0000
0D0C
5888
3090
53FF
1020
1020
1820
33FE
3020
5020
1020
17FF
1020
1020
1020
3020
0000
ENDCHAR

STARTCHAR cns4_2B21
ENCODING 11041
SWIDTH 854 0
DWIDTH 16 0
BBX 16 18 0 -2
BITMAP
0000
0000
7BBE
0888
0888
4A88
2988
29FF
0888
1988
2988
4A88
0888
0888
0888
0888
3B88
0000
ENDCHAR

STARTCHAR cns4_2B22
ENCODING 11042
SWIDTH 854 0
DWIDTH 16 0
BBX 16 18 0 -2
BITMAP
0000
0008
7708
1128
1128
552B
332E
117A
11AA
112A
332A
552A
192E
1129
1121
1121
773F
0000
ENDCHAR

STARTCHAR cns4_2B23
ENCODING 11043
SWIDTH 854 0
DWIDTH 16 0
BBX 16 18 0 -2
BITMAP
0000
0000
7DEE
1022
1132
10AA
10AA
1022
1022
1022
1066
10AA
112A
1032
1022
7E22
00EE
0000
ENDCHAR

STARTCHAR cns4_2B24
ENCODING 11044
SWIDTH 854 0
DWIDTH 16 0
BBX 16 18 0 -2
BITMAP
0000
0000
1FFC
0080
0080
0080
7FFF
0000
7EFC
0204
62C4
3264
0204
1A34
3264
62C4
1E3C
0000
ENDCHAR

STARTCHAR cns4_2B25
ENCODING 11045
SWIDTH 854 0
DWIDTH 16 0
BBX 16 18 0 -2
BITMAP
0000
0200
0206
3FE8
0230
7FFF
0180
0600
1BFC
6200
07FC
0004
0FC4
0844
0FC4
0844
001C
0000
ENDCHAR

STARTCHAR cns4_2B26
ENCODING 11046
SWIDTH 854 0
DWIDTH 16 0
BBX 16 18 0 -2
BITMAP
0000
0100
010C
1FF8
0110
0120
7FFF
0084
0302
07FA
1C08
6408
07F8
0408
0408
07F8
0408
0000
ENDCHAR

STARTCHAR cns4_2B27
ENCODING 11047
SWIDTH 854 0
DWIDTH 16 0
BBX 16 18 0 -2
BITMAP
0000
1000
11FF
1010
2010
7C20
24FE
24AA
44AA
48AA
48AA
48AA
70AA
18AA
24AA
40AA
00AA
0000
ENDCHAR

STARTCHAR cns4_2B28
ENCODING 11048
SWIDTH 854 0
DWIDTH 16 0
BBX 16 18 0 -2
BITMAP
0000
1000
13FE
1020
7C40
15FC
1554
1554
5554
2554
3554
2D54
2D54
4555
4401
47FF
0000
0000
ENDCHAR

STARTCHAR cns4_2B29
ENCODING 11049
SWIDTH 854 0
DWIDTH 16 0
BBX 16 18 0 -2
BITMAP
0000
1040
1240
1C40
70FF
1080
7E00
10FC
7E04
1008
3810
3420
5240
5040
1081
1081
10FF
0000
ENDCHAR

STARTCHAR cns4_2B2A
ENCODING 11050
SWIDTH 854 0
DWIDTH 16 0
BBX 16 18 0 -2
BITMAP
0000
3C20
2420
2420
37FE
2C04
2484
2484
2C84
3488
2488
2448
2448
2450
47FF
4400
5C00
0000
ENDCHAR

STARTCHAR cns4_2B2B
ENCODING 11051
SWIDTH 854 0
DWIDTH 16 0
BBX 16 18 0 -2
BITMAP
0000
3C20
2410
2410
35FF
2C10
2410
2410
2C10
35FE
2410
2410
2410
2410
2410
47FF
5C00
0000
ENDCHAR

STARTCHAR cns4_2B2C
ENCODING 11052
SWIDTH 854 0
DWIDTH 16 0
BBX 16 18 0 -2
BITMAP
0000
3C00
24FE
2400
3400
2C00
27FF
2410
2410
2C94
3494
2492
2512
2511
2611
4410
4C70
0000
ENDCHAR

STARTCHAR cns4_2B2D
ENCODING 11053
SWIDTH 854 0
DWIDTH 16 0
BBX 16 18 0 -2
BITMAP
0000
3C00
25FF
2410
3410
2C10
2490
2490
249E
2C90
3490
2490
2490
2490
2490
47FF
5C00
0000
ENDCHAR

STARTCHAR cns4_2B2E
ENCODING 11054
SWIDTH 854 0
DWIDTH 16 0
BBX 16 18 0 -2
BITMAP
0000
3C00
25FC
2554
3554
2D54
2554
27FF
2D54
3554
3554
2554
2554
2554
4554
4554
4D54
0000
ENDCHAR

STARTCHAR cns4_2B2F
ENCODING 11055
SWIDTH 854 0
DWIDTH 16 0
BBX 16 18 0 -2
BITMAP
0000
3C00
2422
2412
3414
2C44
2448
2448
2548
2D52
3551
2661
2442
24C2
4542
447E
5C00
0000
ENDCHAR

STARTCHAR cns4_2B30
ENCODING 11056
SWIDTH 854 0
DWIDTH 16 0
BBX 16 18 0 -2
BITMAP
0000
3C20
2420
2420
3420
2FFF
2420
2420
2C20
35FC
2504
2504
2504
2504
45FC
4504
5D04
0000
ENDCHAR

STARTCHAR cns4_2B31
ENCODING 11057
SWIDTH 854 0
DWIDTH 16 0
BBX 16 18 0 -2
BITMAP
0000
0400
0406
0818
3EE0
2220
2A20
2A20
2220
7FFF
2220
2A20
2A20
2A21
2221
4221
5E3F
0000
ENDCHAR

STARTCHAR cns4_2B32
ENCODING 11058
SWIDTH 854 0
DWIDTH 16 0
BBX 16 18 0 -2
BITMAP
0000
0400
04FF
0828
3E28
2A28
2A28
2A28
2F28
7A28
2A48
2A48
2A48
2A49
4289
4289
4F07
0000
ENDCHAR

STARTCHAR cns4_2B33
ENCODING 11059
SWIDTH 854 0
DWIDTH 16 0
BBX 16 18 0 -2
BITMAP
0000
0400
08FF
3E01
2211
2A49
2A4A
2722
3A22
6A14
2A14
2A08
2A14
2A12
2222
4241
4E81
0000
ENDCHAR

STARTCHAR cns4_2B34
ENCODING 11060
SWIDTH 854 0
DWIDTH 16 0
BBX 16 18 0 -2
BITMAP
0000
0410
0410
0810
3E10
2210
2AFF
2A10
2F10
7A18
2228
2A24
2A24
2A42
2243
4281
4F00
0000
ENDCHAR

STARTCHAR cns4_2B35
ENCODING 11061
SWIDTH 854 0
DWIDTH 16 0
BBX 16 18 0 -2
BITMAP
0000
0420
0420
0840
3E7E
2A80
2A00
2BFC
2A04
7F08
2A10
2A20
2A40
2A40
2281
4281
4E7E
0000
ENDCHAR

STARTCHAR cns4_2B36
ENCODING 11062
SWIDTH 854 0
DWIDTH 16 0
BBX 16 18 0 -2
BITMAP
0000
0810
0810
7E7F
0890
0890
0080
1FFC
0080
0080
7FFF
0100
0100
0210
0408
3FFC
0004
0000
ENDCHAR

STARTCHAR cns4_2B37
ENCODING 11063
SWIDTH 854 0
DWIDTH 16 0
BBX 16 18 0 -2
BITMAP
0000
0810
0810
7F7F
0810
0810
0080
0088
0084
7FFF
0080
0490
0890
0891
1091
209F
4080
0000
ENDCHAR

STARTCHAR cns4_2B38
ENCODING 11064
SWIDTH 854 0
DWIDTH 16 0
BBX 16 18 0 -2
BITMAP
0000
0810
0810
7F7F
0810
0810
0000
0FF0
0810
0810
0FF0
0810
0810
0FF0
0810
0000
7FFF
0000
ENDCHAR

STARTCHAR cns4_2B39
ENCODING 11065
SWIDTH 854 0
DWIDTH 16 0
BBX 16 18 0 -2
BITMAP
0000
1010
1010
7EFF
1010
1010
0000
0FF0
0810
0810
0FF0
0A50
0240
0441
0441
1841
603E
0000
ENDCHAR

STARTCHAR cns4_2B3A
ENCODING 11066
SWIDTH 854 0
DWIDTH 16 0
BBX 16 18 0 -2
BITMAP
0000
0810
0810
7F7F
0810
0810
3FFC
2104
2104
3FFC
2104
2104
3FFC
2104
2104
4104
413C
0000
ENDCHAR

STARTCHAR cns4_2B3B
ENCODING 11067
SWIDTH 854 0
DWIDTH 16 0
BBX 16 18 0 -2
BITMAP
0000
0810
0810
7F7F
0810
0890
0080
3FFC
2080
2080
3FFE
2182
2282
0482
189C
6080
0080
0000
ENDCHAR

STARTCHAR cns4_2B3C
ENCODING 11068
SWIDTH 854 0
DWIDTH 16 0
BBX 16 18 0 -2
BITMAP
0000
0810
0810
7FFF
0890
0890
7FFF
0200
0200
0440
1840
0480
0300
0208
0404
3FFE
0002
0000
ENDCHAR

STARTCHAR cns4_2B3D
ENCODING 11069
SWIDTH 854 0
DWIDTH 16 0
BBX 16 18 0 -2
BITMAP
0000
0810
0810
7F7F
0810
0000
0070
1380
1C00
1000
1FFE
1020
1020
1020
1020
7FFF
0000
0000
ENDCHAR

STARTCHAR cns4_2B3E
ENCODING 11070
SWIDTH 854 0
DWIDTH 16 0
BBX 16 18 0 -2
BITMAP
0000
0100
01FC
0100
3FFF
2101
2FFC
2102
21FE
2000
27F8
2040
2FFE
2040
2040
4040
41C0
0000
ENDCHAR

STARTCHAR cns4_2B3F
ENCODING 11071
SWIDTH 854 0
DWIDTH 16 0
BBX 16 18 0 -2
BITMAP
0000
0080
00FC
0080
3FFF
2101
2FFA
2100
20FC
2000
27F0
2100
3FFE
2200
27F8
4008
4030
0000
ENDCHAR

STARTCHAR cns4_2B40
ENCODING 11072
SWIDTH 854 0
DWIDTH 16 0
BBX 16 18 0 -2
BITMAP
0000
1084
1084
1084
1FFC
1104
0380
0480
1FF8
1088
1088
1FF8
1088
1098
008C
01F2
3E03
0000
ENDCHAR

STARTCHAR cns4_2B41
ENCODING 11073
SWIDTH 854 0
DWIDTH 16 0
BBX 16 18 0 -2
BITMAP
0000
1040
1048
1044
1044
7C40
547F
57A0
5420
5420
7C20
5420
1010
1411
1409
1A05
6003
0000
ENDCHAR

STARTCHAR cns4_2B42
ENCODING 11074
SWIDTH 854 0
DWIDTH 16 0
BBX 16 18 0 -2
BITMAP
0000
0000
1FFC
0080
0080
7FFF
0080
0080
1FFC
1084
1084
1FFC
0080
0084
0082
00FE
3F82
0000
ENDCHAR

STARTCHAR cns4_2B43
ENCODING 11075
SWIDTH 854 0
DWIDTH 16 0
BBX 16 18 0 -2
BITMAP
0000
0080
0080
0890
188C
3086
4782
0100
0100
1FF8
1108
1108
1FF8
0100
0108
03FC
7C04
0000
ENDCHAR

STARTCHAR cns4_2B44
ENCODING 11076
SWIDTH 854 0
DWIDTH 16 0
BBX 16 18 0 -2
BITMAP
0000
0100
0100
1FF8
1248
1248
7FFF
0200
0400
07F8
0C08
1410
6320
00C0
0180
0600
3800
0000
ENDCHAR

STARTCHAR cns4_2B45
ENCODING 11077
SWIDTH 854 0
DWIDTH 16 0
BBX 16 18 0 -2
BITMAP
0000
1000
10FE
1002
7E02
02FE
0480
0880
1280
34FE
5882
1402
1202
1002
1004
1004
1078
0000
ENDCHAR

STARTCHAR cns4_2B46
ENCODING 11078
SWIDTH 854 0
DWIDTH 16 0
BBX 16 18 0 -2
BITMAP
0000
1020
1020
102C
7E22
0220
05FE
0820
1220
3C20
5220
1010
1010
1011
1009
100D
1003
0000
ENDCHAR

STARTCHAR cns4_2B47
ENCODING 11079
SWIDTH 854 0
DWIDTH 16 0
BBX 16 18 0 -2
BITMAP
0000
1006
100C
1030
7EE0
0220
0420
0820
1420
39FF
5420
1020
1020
1020
1020
1021
103F
0000
ENDCHAR

STARTCHAR cns4_2B48
ENCODING 11080
SWIDTH 854 0
DWIDTH 16 0
BBX 16 18 0 -2
BITMAP
0000
0000
7FFF
0240
3FFC
2244
2244
3FFC
2004
7FFF
0420
0420
0820
0820
1020
1020
6020
0000
ENDCHAR

STARTCHAR cns4_2B49
ENCODING 11081
SWIDTH 854 0
DWIDTH 16 0
BBX 16 18 0 -2
BITMAP
0000
0020
1220
1320
2120
40FC
0824
1224
1324
21A4
5F24
1124
1124
1144
1145
1F45
1187
0000
ENDCHAR

STARTCHAR cns4_2B4A
ENCODING 11082
SWIDTH 854 0
DWIDTH 16 0
BBX 16 18 0 -2
BITMAP
0000
0100
0100
7FFE
0202
0202
0C0C
3000
5FFC
1004
1FFC
1004
1FFC
1004
1FFC
0610
380C
0000
ENDCHAR

STARTCHAR cns4_2B4B
ENCODING 11083
SWIDTH 854 0
DWIDTH 16 0
BBX 16 18 0 -2
BITMAP
0000
0820
0820
3E20
0820
08FC
7F24
0824
2824
2824
2F44
2844
2884
3905
4A07
4700
00FF
0000
ENDCHAR

STARTCHAR cns4_2B4C
ENCODING 11084
SWIDTH 854 0
DWIDTH 16 0
BBX 16 18 0 -2
BITMAP
0000
3E00
22FF
2210
2210
3E10
2A10
0810
2810
2E10
2810
2810
2810
2810
2E10
7810
0070
0000
ENDCHAR

STARTCHAR cns4_2B4D
ENCODING 11085
SWIDTH 854 0
DWIDTH 16 0
BBX 16 18 0 -2
BITMAP
0000
0802
0802
7F22
0822
7F22
4922
4922
7F22
4922
7F22
482E
0832
7F42
0802
0802
0802
0000
ENDCHAR

STARTCHAR cns4_2B4E
ENCODING 11086
SWIDTH 854 0
DWIDTH 16 0
BBX 16 18 0 -2
BITMAP
0000
0810
0810
7E10
0810
7FFE
4A12
4A12
7E12
4A12
7E22
4A22
0822
7E42
0844
0884
0938
0000
ENDCHAR

STARTCHAR cns4_2B4F
ENCODING 11087
SWIDTH 854 0
DWIDTH 16 0
BBX 16 18 0 -2
BITMAP
0000
0028
4024
2020
21FE
7920
0924
1124
1114
2118
7918
4950
11A9
1625
2043
7000
0FFF
0000
ENDCHAR

STARTCHAR cns4_2B50
ENCODING 11088
SWIDTH 854 0
DWIDTH 16 0
BBX 16 18 0 -2
BITMAP
0000
0000
403E
23E0
2220
7220
123F
13E0
2210
2210
7A08
0BC9
1405
11FB
2000
7000
0FFF
0000
ENDCHAR

STARTCHAR cns4_2B51
ENCODING 11089
SWIDTH 854 0
DWIDTH 16 0
BBX 16 18 0 -2
BITMAP
0000
0000
4000
23FE
2020
7020
1120
1120
213E
2120
7920
0920
1120
17FF
2000
7000
0FFF
0000
ENDCHAR

STARTCHAR cns4_2B52
ENCODING 11090
SWIDTH 854 0
DWIDTH 16 0
BBX 16 18 0 -2
BITMAP
0000
0000
4000
23FE
2202
7202
13FE
2202
2202
43FE
7202
1202
13FE
1202
2000
7000
0FFF
0000
ENDCHAR

STARTCHAR cns4_2B53
ENCODING 11091
SWIDTH 854 0
DWIDTH 16 0
BBX 16 18 0 -2
BITMAP
0000
0000
41F8
2108
0108
71F8
1108
1108
2108
21F8
7908
4908
1108
17FF
2000
7000
0FFF
0000
ENDCHAR

STARTCHAR cns4_2B54
ENCODING 11092
SWIDTH 854 0
DWIDTH 16 0
BBX 16 18 0 -2
BITMAP
0000
0400
041F
7FD1
4051
4892
1012
7FD4
1114
2112
2112
4211
7611
0C11
0A1E
3110
4090
0000
ENDCHAR

STARTCHAR cns4_2B55
ENCODING 11093
SWIDTH 854 0
DWIDTH 16 0
BBX 16 18 0 -2
BITMAP
0000
0200
021F
3FF1
2011
2012
2012
2014
3FF2
0012
1251
1251
2491
4919
2496
1250
1250
0000
ENDCHAR

STARTCHAR cns4_2B56
ENCODING 11094
SWIDTH 854 0
DWIDTH 16 0
BBX 16 18 0 -2
BITMAP
0000
111F
1111
1112
1112
7FD2
1114
1114
1112
1112
7FD2
0011
0011
1219
1116
2190
40D0
0000
ENDCHAR

STARTCHAR cns4_2B57
ENCODING 11095
SWIDTH 854 0
DWIDTH 16 0
BBX 16 18 0 -2
BITMAP
0000
041F
0411
3FF1
0812
0812
1FD4
1052
3092
3111
5FF1
1111
1111
111F
1110
1110
1710
0000
ENDCHAR

STARTCHAR cns4_2B58
ENCODING 11096
SWIDTH 854 0
DWIDTH 16 0
BBX 16 18 0 -2
BITMAP
0000
0800
1F1F
1111
2A12
4412
3FD2
2014
2F94
2892
2892
2891
2B51
2859
2856
4FD0
4010
0000
ENDCHAR

STARTCHAR cns4_2B59
ENCODING 11097
SWIDTH 854 0
DWIDTH 16 0
BBX 16 18 0 -2
BITMAP
0000
0020
7820
4820
4FFF
4850
5090
5090
4993
4A94
4C88
4888
7888
4084
40B6
43C3
4000
0000
ENDCHAR

STARTCHAR cns4_2B5A
ENCODING 11098
SWIDTH 854 0
DWIDTH 16 0
BBX 16 18 0 -2
BITMAP
0000
0020
7820
4FFF
4820
4BFE
5022
5022
4BFE
4A20
47FF
4421
7852
4050
4088
4104
4603
0000
ENDCHAR

STARTCHAR cns4_2B5B
ENCODING 11099
SWIDTH 854 0
DWIDTH 16 0
BBX 16 18 0 -2
BITMAP
0000
0020
7C20
4420
4FFE
4820
5124
51AC
48A8
4FFF
4420
4420
7850
4050
4088
4306
4C03
0000
ENDCHAR

STARTCHAR cns4_2B5C
ENCODING 11100
SWIDTH 854 0
DWIDTH 16 0
BBX 16 18 0 -2
BITMAP
0000
7DF0
4510
4510
4912
4A12
521E
5440
4840
4FFF
48E0
4950
7950
424C
4443
4840
4040
0000
ENDCHAR

STARTCHAR cns4_2B5D
ENCODING 11101
SWIDTH 854 0
DWIDTH 16 0
BBX 16 18 0 -2
BITMAP
0000
0040
7C40
44F8
4908
4A08
53FE
5200
52FC
4A84
4A84
4A84
4A9C
7A80
4482
4482
487E
0000
ENDCHAR

STARTCHAR cns4_2B5E
ENCODING 11102
SWIDTH 854 0
DWIDTH 16 0
BBX 16 18 0 -2
BITMAP
0000
0240
1248
1248
0A50
7FFE
0820
0440
7FFE
0100
0100
3FF8
0100
0100
0100
0100
0100
0000
ENDCHAR

STARTCHAR cns4_2B5F
ENCODING 11103
SWIDTH 854 0
DWIDTH 16 0
BBX 16 18 0 -2
BITMAP
0000
0080
0080
7FFF
0808
0FF8
0808
0FF8
0808
7FFE
4002
4002
1FFA
0080
0080
0080
0380
0000
ENDCHAR

STARTCHAR cns4_2B60
ENCODING 11104
SWIDTH 854 0
DWIDTH 16 0
BBX 16 18 0 -2
BITMAP
0000
0884
0884
0848
1048
17FF
1050
3050
5052
1252
1252
1152
1154
1154
1050
17FF
1000
0000
ENDCHAR

STARTCHAR cns4_2B61
ENCODING 11105
SWIDTH 854 0
DWIDTH 16 0
BBX 16 18 0 -2
BITMAP
0000
1040
1040
1FFF
2090
3148
224C
67FA
2C41
2150
2110
2FFF
2110
2110
2210
2210
2C10
0000
ENDCHAR

STARTCHAR cns4_2B62
ENCODING 11106
SWIDTH 854 0
DWIDTH 16 0
BBX 16 18 0 -2
BITMAP
0000
0900
0900
090F
13F9
1A89
1489
3089
37F9
5089
1089
1089
1149
112F
1219
1209
1400
0000
ENDCHAR

STARTCHAR cns4_2B63
ENCODING 11107
SWIDTH 854 0
DWIDTH 16 0
BBX 16 18 0 -2
BITMAP
0000
081E
0BE0
1A20
123F
1BF0
3209
5265
1783
1000
13FC
1204
13FC
1204
1204
13FC
1204
0000
ENDCHAR

STARTCHAR cns4_2B64
ENCODING 11108
SWIDTH 854 0
DWIDTH 16 0
BBX 16 18 0 -2
BITMAP
0000
0800
08B8
0888
1104
1A23
1020
3044
3082
53FF
1021
1010
1092
1281
1285
1484
107C
0000
ENDCHAR

STARTCHAR cns4_2B65
ENCODING 11109
SWIDTH 854 0
DWIDTH 16 0
BBX 16 18 0 -2
BITMAP
0000
0807
09F8
0900
11FF
1901
1101
31FF
3114
5112
11FF
1218
1228
1224
1446
1483
1900
0000
ENDCHAR

STARTCHAR cns4_2B66
ENCODING 11110
SWIDTH 854 0
DWIDTH 16 0
BBX 16 18 0 -2
BITMAP
0000
0840
0840
1FFE
1080
3108
3204
57FE
1042
1040
1FFF
1040
10E0
1150
124C
1C43
1040
0000
ENDCHAR

STARTCHAR cns4_2B67
ENCODING 11111
SWIDTH 854 0
DWIDTH 16 0
BBX 16 18 0 -2
BITMAP
0000
0884
0904
1524
1244
1184
3224
3FF4
5014
13E4
1224
13E4
1224
1265
13A5
1225
1267
0000
ENDCHAR

STARTCHAR cns4_2B68
ENCODING 11112
SWIDTH 854 0
DWIDTH 16 0
BBX 16 18 0 -2
BITMAP
0000
1210
1210
1410
24FF
2910
2110
6210
2210
26FF
2A10
2210
2210
2210
2210
23FF
2200
0000
ENDCHAR

STARTCHAR cns4_2B69
ENCODING 11113
SWIDTH 854 0
DWIDTH 16 0
BBX 16 18 0 -2
BITMAP
0000
7F7F
4141
4141
4141
4141
4141
7F7F
5555
1414
1414
1414
1414
2525
2625
5845
0087
0000
ENDCHAR

STARTCHAR cns4_2B6A
ENCODING 11114
SWIDTH 854 0
DWIDTH 16 0
BBX 16 18 0 -2
BITMAP
0000
0000
0180
0240
0420
1818
2816
0810
7EFF
0830
1830
1C58
2A54
2892
4912
0810
0810
0000
ENDCHAR

STARTCHAR cns4_2B6B
ENCODING 11115
SWIDTH 854 0
DWIDTH 16 0
BBX 16 18 0 -2
BITMAP
0000
0000
07FC
4004
2008
2432
0D26
0CAA
14B2
1422
2472
64AA
2526
2522
27FE
2402
0000
0000
ENDCHAR

STARTCHAR cns4_2B6C
ENCODING 11116
SWIDTH 854 0
DWIDTH 16 0
BBX 16 18 0 -2
BITMAP
0000
0201
0289
0249
7FE9
0209
3A09
2A09
2A49
2A89
3989
2909
0509
1AA1
64A1
0861
3027
0000
ENDCHAR

STARTCHAR cns4_2B6D
ENCODING 11117
SWIDTH 854 0
DWIDTH 16 0
BBX 16 18 0 -2
BITMAP
0000
0001
7FF1
0909
0909
0909
79E9
4929
4029
4029
79E9
4929
0909
0901
0901
7FF1
0007
0000
ENDCHAR

STARTCHAR cns4_2B6E
ENCODING 11118
SWIDTH 854 0
DWIDTH 16 0
BBX 16 18 0 -2
BITMAP
0000
1102
1102
7FD2
1112
1112
1F12
1112
1112
1F12
1112
1112
7FD2
0002
1202
2182
40CE
0000
ENDCHAR

STARTCHAR cns4_2B6F
ENCODING 11119
SWIDTH 854 0
DWIDTH 16 0
BBX 16 18 0 -2
BITMAP
0000
0800
0B7E
7C12
0B12
7C62
0982
7F1E
0900
1FF8
0108
0108
7FFF
0280
0460
0C18
3007
0000
ENDCHAR

STARTCHAR cns4_2B70
ENCODING 11120
SWIDTH 854 0
DWIDTH 16 0
BBX 16 18 0 -2
BITMAP
0000
0402
3FC2
2452
2452
3FD2
2452
2452
3FD2
2A52
0A12
1212
7FD2
0202
0202
0202
020E
0000
ENDCHAR

STARTCHAR cns4_2B71
ENCODING 11121
SWIDTH 854 0
DWIDTH 16 0
BBX 16 18 0 -2
BITMAP
0000
3FC2
2042
2052
3FD2
2052
2A92
2A92
2A92
2F92
2212
2212
3252
3242
5FC2
5042
400E
0000
ENDCHAR

STARTCHAR cns4_2B72
ENCODING 11122
SWIDTH 854 0
DWIDTH 16 0
BBX 16 18 0 -2
BITMAP
0000
0402
0482
3512
0E12
1592
6452
0C12
0012
0412
6492
1512
0E12
1582
6442
0402
1C0E
0000
ENDCHAR

STARTCHAR cns4_2B73
ENCODING 11123
SWIDTH 854 0
DWIDTH 16 0
BBX 16 18 0 -2
BITMAP
0000
0402
0402
1412
1792
1412
1412
7FD2
0012
0412
0412
2412
2792
2402
2402
2782
780E
0000
ENDCHAR

STARTCHAR cns4_2B74
ENCODING 11124
SWIDTH 854 0
DWIDTH 16 0
BBX 16 18 0 -2
BITMAP
0000
0408
0408
3FC8
0408
3FDF
1209
1249
2BC9
4809
1F09
1109
2909
4A09
0609
0911
30D7
0000
ENDCHAR

STARTCHAR cns4_2B75
ENCODING 11125
SWIDTH 854 0
DWIDTH 16 0
BBX 16 18 0 -2
BITMAP
0000
0008
7FC8
0408
0408
7FDF
5549
5549
5549
5549
6EC9
6EC9
4449
4449
4452
4452
4594
0000
ENDCHAR

STARTCHAR cns4_2B76
ENCODING 11126
SWIDTH 854 0
DWIDTH 16 0
BBX 16 18 0 -2
BITMAP
0000
1000
1000
1FFE
1002
17E2
1422
27E2
2422
47E2
0242
0422
0FF2
0202
03E4
0024
00E8
0000
ENDCHAR

STARTCHAR cns4_2B77
ENCODING 11127
SWIDTH 854 0
DWIDTH 16 0
BBX 16 18 0 -2
BITMAP
0000
3FFE
2000
2EB8
2888
2888
2FF8
2888
2888
2FF8
2948
2140
2220
2418
2806
3FFF
2000
0000
ENDCHAR

STARTCHAR cns4_2B78
ENCODING 11128
SWIDTH 854 0
DWIDTH 16 0
BBX 16 18 0 -2
BITMAP
0000
3FFF
2200
2200
27FC
2524
2944
2248
2488
2930
2FF8
2808
2FF8
2808
2FF8
2808
3FFF
0000
ENDCHAR

STARTCHAR cns4_2B79
ENCODING 11129
SWIDTH 854 0
DWIDTH 16 0
BBX 16 18 0 -2
BITMAP
0000
0080
00FC
4080
5FFC
5084
5144
5224
5C9C
5084
5144
5634
5804
5FFC
4000
7FFF
4000
0000
ENDCHAR

STARTCHAR cns4_2B7A
ENCODING 11130
SWIDTH 854 0
DWIDTH 16 0
BBX 16 18 0 -2
BITMAP
0000
3FFE
2000
23F8
2208
23F8
2208
23F8
2000
27FC
2010
2FFE
2010
2210
2110
4010
40F0
0000
ENDCHAR

STARTCHAR cns4_2B7B
ENCODING 11131
SWIDTH 854 0
DWIDTH 16 0
BBX 16 18 0 -2
BITMAP
0000
3FFE
2000
23F0
2210
23F0
2A10
2BF0
2800
2FF8
2888
2088
3FFF
2120
4218
4404
1804
0000
ENDCHAR

STARTCHAR cns4_2B7C
ENCODING 11132
SWIDTH 854 0
DWIDTH 16 0
BBX 16 18 0 -2
BITMAP
0000
3FFF
2000
2E38
2808
2808
2E38
2808
2808
2FF8
2928
2120
2120
2220
4224
4424
583C
0000
ENDCHAR

STARTCHAR cns4_2B7D
ENCODING 11133
SWIDTH 854 0
DWIDTH 16 0
BBX 16 18 0 -2
BITMAP
0000
0020
0020
7BFE
4800
4904
4888
4888
4FFF
4820
7820
4BFE
4020
0020
0020
0020
0020
0000
ENDCHAR

STARTCHAR cns4_2B7E
ENCODING 11134
SWIDTH 854 0
DWIDTH 16 0
BBX 16 18 0 -2
BITMAP
0000
0020
0024
7822
4FFF
4820
4AA0
4AA4
4AA4
4FE4
7AA8
4A98
4290
04A9
0449
0985
0203
0000
ENDCHAR

STARTCHAR cns4_2C21
ENCODING 11297
SWIDTH 854 0
DWIDTH 16 0
BBX 16 18 0 -2
BITMAP
0000
000E
01F0
7820
4820
4820
4FFF
4860
4890
4B0C
4C03
79F8
4908
4108
0108
01F8
0108
0000
ENDCHAR

STARTCHAR cns4_2C22
ENCODING 11298
SWIDTH 854 0
DWIDTH 16 0
BBX 16 18 0 -2
BITMAP
0000
0020
0020
7BFE
4820
4820
49FC
4924
4924
49FC
7924
4870
40A8
00A8
0124
0223
0420
0000
ENDCHAR

STARTCHAR cns4_2C23
ENCODING 11299
SWIDTH 854 0
DWIDTH 16 0
BBX 16 18 0 -2
BITMAP
0000
0000
03FC
7040
5040
5040
57FE
5040
5442
5266
7158
5150
5248
0244
0443
0840
01C0
0000
ENDCHAR

STARTCHAR cns4_2C24
ENCODING 11300
SWIDTH 854 0
DWIDTH 16 0
BBX 16 18 0 -2
BITMAP
0000
0000
03FF
7892
4892
4924
4924
4A48
4924
4922
4892
7BFC
4820
4020
0020
0FFF
0000
0000
ENDCHAR

STARTCHAR cns4_2C25
ENCODING 11301
SWIDTH 854 0
DWIDTH 16 0
BBX 16 18 0 -2
BITMAP
0000
0000
01FC
7904
49FC
4904
4904
49FC
4904
4820
7820
4BFE
4820
0020
0020
0FFF
0000
0000
ENDCHAR

STARTCHAR cns4_2C26
ENCODING 11302
SWIDTH 854 0
DWIDTH 16 0
BBX 16 18 0 -2
BITMAP
0000
0100
0100
717F
5204
5204
52F4
5694
5694
5A94
72F4
5294
0204
0204
0204
0204
021C
0000
ENDCHAR

STARTCHAR cns4_2C27
ENCODING 11303
SWIDTH 854 0
DWIDTH 16 0
BBX 16 18 0 -2
BITMAP
0000
0820
0820
0A7E
0C42
38A4
0818
3E18
0824
08C3
7F7C
0844
0844
0844
0844
087C
0844
0000
ENDCHAR

STARTCHAR cns4_2C28
ENCODING 11304
SWIDTH 854 0
DWIDTH 16 0
BBX 16 18 0 -2
BITMAP
0000
0020
0040
79FC
4904
49FC
4904
4904
49FC
4820
7820
4BFE
4820
0020
0020
0020
0020
0000
ENDCHAR

STARTCHAR cns4_2C29
ENCODING 11305
SWIDTH 854 0
DWIDTH 16 0
BBX 16 18 0 -2
BITMAP
0000
008C
7884
4902
4E01
49FC
4904
4904
4904
49FC
7954
4850
4891
0091
0111
021F
0400
0000
ENDCHAR

STARTCHAR cns4_2C2A
ENCODING 11306
SWIDTH 854 0
DWIDTH 16 0
BBX 16 18 0 -2
BITMAP
0000
200C
11F0
0500
4900
29FE
1110
3110
6210
2210
2410
1FF8
1008
1008
1FF8
1008
0000
0000
ENDCHAR

STARTCHAR cns4_2C2B
ENCODING 11307
SWIDTH 854 0
DWIDTH 16 0
BBX 16 18 0 -2
BITMAP
0000
0100
3FFE
0000
1FF8
1108
7FFF
1108
1FF8
1008
0030
1FF8
1008
1008
1008
1FF8
1008
0000
ENDCHAR

STARTCHAR cns4_2C2C
ENCODING 11308
SWIDTH 854 0
DWIDTH 16 0
BBX 16 18 0 -2
BITMAP
0000
0000
03F8
7048
57FF
5088
5088
57F8
5100
5200
73FC
5504
5904
0104
0104
01FC
0104
0000
ENDCHAR

STARTCHAR cns4_2C2D
ENCODING 11309
SWIDTH 854 0
DWIDTH 16 0
BBX 16 18 0 -2
BITMAP
0000
0000
03FE
7800
4800
49FC
4904
4904
4904
49FC
7904
4800
4108
0090
0090
07FF
0000
0000
ENDCHAR

STARTCHAR cns4_2C2E
ENCODING 11310
SWIDTH 854 0
DWIDTH 16 0
BBX 16 18 0 -2
BITMAP
0000
0000
03FF
7890
4890
4890
4BFE
4A92
4A92
4A92
7A92
4BFE
0292
0090
0090
0FFF
0000
0000
ENDCHAR

STARTCHAR cns4_2C2F
ENCODING 11311
SWIDTH 854 0
DWIDTH 16 0
BBX 16 18 0 -2
BITMAP
0000
0020
1220
13FF
1201
1491
1090
795E
1640
1040
13F8
1048
1C88
6089
0109
0109
020F
0000
ENDCHAR

STARTCHAR cns4_2C30
ENCODING 11312
SWIDTH 854 0
DWIDTH 16 0
BBX 16 18 0 -2
BITMAP
0000
1020
1020
13FE
1020
1220
7FFF
1201
12FA
1008
1010
13FF
1C20
6020
0020
0020
00E0
0000
ENDCHAR

STARTCHAR cns4_2C31
ENCODING 11313
SWIDTH 854 0
DWIDTH 16 0
BBX 16 18 0 -2
BITMAP
0000
0080
1080
11FF
1200
1000
1DFC
7144
1124
1124
17FF
1144
1D24
6124
01FC
0108
0030
0000
ENDCHAR

STARTCHAR cns4_2C32
ENCODING 11314
SWIDTH 854 0
DWIDTH 16 0
BBX 16 18 0 -2
BITMAP
0000
0240
0240
7E7F
0240
0241
7E7F
0000
7FFF
4082
4084
0080
1FFC
0080
0080
7FFF
0000
0000
ENDCHAR

STARTCHAR cns4_2C33
ENCODING 11315
SWIDTH 854 0
DWIDTH 16 0
BBX 16 18 0 -2
BITMAP
0000
1040
107E
1082
10C4
1128
7E94
1064
1184
13FF
1004
1084
1C44
6044
0004
0004
001C
0000
ENDCHAR

STARTCHAR cns4_2C34
ENCODING 11316
SWIDTH 854 0
DWIDTH 16 0
BBX 16 18 0 -2
BITMAP
0000
0810
0810
0810
3E7E
0810
0810
7EFF
1428
1428
1428
1428
1428
1448
2449
2489
470F
0000
ENDCHAR

STARTCHAR cns4_2C35
ENCODING 11317
SWIDTH 854 0
DWIDTH 16 0
BBX 16 18 0 -2
BITMAP
0000
1020
1020
3E20
2220
55FF
0921
1422
2838
5E30
1250
2250
5451
0491
0891
111F
2200
0000
ENDCHAR

STARTCHAR cns4_2C36
ENCODING 11318
SWIDTH 854 0
DWIDTH 16 0
BBX 16 18 0 -2
BITMAP
0000
0100
0100
7FFF
0220
0410
188C
6493
0490
1FFC
1084
1084
16A4
1494
1894
1084
109C
0000
ENDCHAR

STARTCHAR cns4_2C37
ENCODING 11319
SWIDTH 854 0
DWIDTH 16 0
BBX 16 18 0 -2
BITMAP
0000
0100
0100
7FFF
0220
0490
188C
6083
0890
0890
14A8
22C6
1FFC
0080
0080
7FFF
0000
0000
ENDCHAR

STARTCHAR cns4_2C38
ENCODING 11320
SWIDTH 854 0
DWIDTH 16 0
BBX 16 18 0 -2
BITMAP
0000
0200
0220
0410
0FF8
0108
7FFF
0220
0510
1918
6FF6
0913
0FF0
0910
0FF2
0102
01FE
0000
ENDCHAR

STARTCHAR cns4_2C39
ENCODING 11321
SWIDTH 854 0
DWIDTH 16 0
BBX 16 18 0 -2
BITMAP
0000
1000
10B8
1108
2104
7A03
2DFC
2904
4904
49FC
5154
5050
7091
1091
2911
421F
0400
0000
ENDCHAR

STARTCHAR cns4_2C3A
ENCODING 11322
SWIDTH 854 0
DWIDTH 16 0
BBX 16 18 0 -2
BITMAP
0000
1020
1020
11FE
2020
7920
2BFF
2A01
4DFA
4810
5020
53FE
3020
2820
2820
4020
00E0
0000
ENDCHAR

STARTCHAR cns4_2C3B
ENCODING 11323
SWIDTH 854 0
DWIDTH 16 0
BBX 16 18 0 -2
BITMAP
0000
1000
13FE
1000
1000
7DFC
2504
2504
4504
49FC
4904
4800
7088
1888
2450
43FF
0000
0000
ENDCHAR

STARTCHAR cns4_2C3C
ENCODING 11324
SWIDTH 854 0
DWIDTH 16 0
BBX 16 18 0 -2
BITMAP
0000
21FC
2004
2068
7C10
25FE
2522
4522
45FE
4922
4922
69FE
1122
1922
2522
4122
012E
0000
ENDCHAR

STARTCHAR cns4_2C3D
ENCODING 11325
SWIDTH 854 0
DWIDTH 16 0
BBX 16 18 0 -2
BITMAP
0000
1000
11FC
1104
7DFC
2504
25FC
2504
2800
29FC
4820
77FF
1020
2820
2420
4020
0020
0000
ENDCHAR

STARTCHAR cns4_2C3E
ENCODING 11326
SWIDTH 854 0
DWIDTH 16 0
BBX 16 18 0 -2
BITMAP
0000
200E
23F0
2122
7C94
2894
48FC
4804
4808
4810
4BFF
7020
1020
2820
2420
4020
00E0
0000
ENDCHAR

STARTCHAR cns4_2C3F
ENCODING 11327
SWIDTH 854 0
DWIDTH 16 0
BBX 16 18 0 -2
BITMAP
0000
1020
1020
1024
2124
7D24
2924
29AE
4A6A
4A31
4820
51FE
7020
1020
2820
43FF
0000
0000
ENDCHAR

STARTCHAR cns4_2C40
ENCODING 11328
SWIDTH 854 0
DWIDTH 16 0
BBX 16 18 0 -2
BITMAP
0000
081C
08E0
7F80
08FE
0E90
7890
0910
3910
0200
7FFF
0420
0820
1E40
11C0
0338
7C0C
0000
ENDCHAR

STARTCHAR cns4_2C41
ENCODING 11329
SWIDTH 854 0
DWIDTH 16 0
BBX 16 18 0 -2
BITMAP
0000
0100
7906
0938
1120
27E0
213F
2124
3924
61E4
2724
2124
2124
2144
2144
2184
6704
0000
ENDCHAR

STARTCHAR cns4_2C42
ENCODING 11330
SWIDTH 854 0
DWIDTH 16 0
BBX 16 18 0 -2
BITMAP
0000
0100
4102
7FFF
4086
4084
1FF8
1008
1FF8
1008
1FF8
1108
1100
108C
1070
1F18
7007
0000
ENDCHAR

STARTCHAR cns4_2C43
ENCODING 11331
SWIDTH 854 0
DWIDTH 16 0
BBX 16 18 0 -2
BITMAP
0000
0180
4100
7FFF
4003
0422
3FFC
0420
1FF8
0420
7FFE
0000
0420
0410
080C
1006
6002
0000
ENDCHAR

STARTCHAR cns4_2C44
ENCODING 11332
SWIDTH 854 0
DWIDTH 16 0
BBX 16 18 0 -2
BITMAP
0000
0300
4080
7FFF
4101
0102
3FFC
0100
2104
118C
1950
0720
0D10
3118
4106
0100
0700
0000
ENDCHAR

STARTCHAR cns4_2C45
ENCODING 11333
SWIDTH 854 0
DWIDTH 16 0
BBX 16 18 0 -2
BITMAP
0000
0100
4100
7FFE
4002
5FF8
0200
1FF0
0210
0210
7FFE
0000
1FF0
1010
1010
1FF0
1010
0000
ENDCHAR

STARTCHAR cns4_2C46
ENCODING 11334
SWIDTH 854 0
DWIDTH 16 0
BBX 16 18 0 -2
BITMAP
0000
4080
7FFF
4102
1FE0
010C
0130
7FFF
0180
3FF0
0410
1860
6080
3FFE
0080
0080
0780
0000
ENDCHAR

STARTCHAR cns4_2C47
ENCODING 11335
SWIDTH 854 0
DWIDTH 16 0
BBX 16 18 0 -2
BITMAP
0000
0100
2100
3FFF
4001
5FF8
1008
1FF8
1000
1FFC
1004
17C4
1444
27C4
2444
4004
0018
0000
ENDCHAR

STARTCHAR cns4_2C48
ENCODING 11336
SWIDTH 854 0
DWIDTH 16 0
BBX 16 18 0 -2
BITMAP
0000
0100
2100
3FFF
4002
4FF4
0810
0FF0
0810
7FFF
0480
0490
0490
0490
0892
0892
109E
0000
ENDCHAR

STARTCHAR cns4_2C49
ENCODING 11337
SWIDTH 854 0
DWIDTH 16 0
BBX 16 18 0 -2
BITMAP
0000
0100
4102
7FFF
4002
4884
0900
13FE
1A40
3440
507E
1040
107E
1040
1040
1040
1040
0000
ENDCHAR

STARTCHAR cns4_2C4A
ENCODING 11338
SWIDTH 854 0
DWIDTH 16 0
BBX 16 18 0 -2
BITMAP
0000
0080
7FFF
4002
4184
02C0
0460
1818
67E7
0080
7FFF
0080
08A0
0890
308C
4084
0380
0000
ENDCHAR

STARTCHAR cns4_2C4B
ENCODING 11339
SWIDTH 854 0
DWIDTH 16 0
BBX 16 18 0 -2
BITMAP
0000
0080
0880
0898
1084
2382
4002
1FF8
1008
1FF8
1008
1FF8
1108
0930
110C
6104
0300
0000
ENDCHAR

STARTCHAR cns4_2C4C
ENCODING 11340
SWIDTH 854 0
DWIDTH 16 0
BBX 16 18 0 -2
BITMAP
0000
0080
0880
0A98
128C
2402
5FF9
1008
1FF8
1008
1FF8
1448
0442
0842
0842
107E
6000
0000
ENDCHAR

STARTCHAR cns4_2C4D
ENCODING 11341
SWIDTH 854 0
DWIDTH 16 0
BBX 16 18 0 -2
BITMAP
0000
1000
100C
11F2
7E92
1494
1464
1420
15FE
1444
1484
2568
2438
24CC
2703
4400
47FF
0000
ENDCHAR

STARTCHAR cns4_2C4E
ENCODING 11342
SWIDTH 854 0
DWIDTH 16 0
BBX 16 18 0 -2
BITMAP
0000
3FFE
2002
3FFE
2090
2088
3FFE
2080
2080
28CC
24B0
21A0
2290
2C88
4086
4080
0380
0000
ENDCHAR

STARTCHAR cns4_2C4F
ENCODING 11343
SWIDTH 854 0
DWIDTH 16 0
BBX 16 18 0 -2
BITMAP
0000
3FFE
2002
3FFE
2100
2108
2204
2DFE
2222
243F
3900
21F8
2308
4490
5860
4198
0606
0000
ENDCHAR

STARTCHAR cns4_2C50
ENCODING 11344
SWIDTH 854 0
DWIDTH 16 0
BBX 16 18 0 -2
BITMAP
0000
3FFE
2002
2002
3FFE
2200
24FE
2802
3244
2228
25FF
2C11
3412
2410
2410
4410
4470
0000
ENDCHAR

STARTCHAR cns4_2C51
ENCODING 11345
SWIDTH 854 0
DWIDTH 16 0
BBX 16 18 0 -2
BITMAP
0000
1010
1110
11FF
5501
5512
5490
54FF
5510
5510
5410
57FF
7C10
4410
0010
0010
0010
0000
ENDCHAR

STARTCHAR cns4_2C52
ENCODING 11346
SWIDTH 854 0
DWIDTH 16 0
BBX 16 18 0 -2
BITMAP
0000
0010
1090
10FF
1101
5402
54FC
5400
5400
55FF
5448
5448
5448
7C89
4509
060F
0800
0000
ENDCHAR

STARTCHAR cns4_2C53
ENCODING 11347
SWIDTH 854 0
DWIDTH 16 0
BBX 16 18 0 -2
BITMAP
0000
0020
1024
1022
13FF
5420
5420
5522
54B2
5474
5428
5468
54A4
7F22
4423
0020
00E0
0000
ENDCHAR

STARTCHAR cns4_2C54
ENCODING 11348
SWIDTH 854 0
DWIDTH 16 0
BBX 16 18 0 -2
BITMAP
0000
0100
2104
3FFC
0000
7FFC
0100
3FF8
0100
7FFF
0420
0420
7FFF
0420
0820
0820
3020
0000
ENDCHAR

STARTCHAR cns4_2C55
ENCODING 11349
SWIDTH 854 0
DWIDTH 16 0
BBX 16 18 0 -2
BITMAP
0000
0140
1123
1122
1104
13E5
5559
5542
5544
5549
5551
5542
5544
7D49
4651
027F
0400
0000
ENDCHAR

STARTCHAR cns4_2C56
ENCODING 11350
SWIDTH 854 0
DWIDTH 16 0
BBX 16 18 0 -2
BITMAP
0000
0000
11FF
1000
1092
5492
5524
5526
5493
5449
5400
55FF
5410
7C10
4410
03FF
0000
0000
ENDCHAR

STARTCHAR cns4_2C57
ENCODING 11351
SWIDTH 854 0
DWIDTH 16 0
BBX 16 18 0 -2
BITMAP
0000
0088
1088
13FF
1088
5488
5420
5420
55FF
5500
5500
5500
5500
7D00
4500
00FF
0000
0000
ENDCHAR

STARTCHAR cns4_2C58
ENCODING 11352
SWIDTH 854 0
DWIDTH 16 0
BBX 16 18 0 -2
BITMAP
0000
00FE
1082
10FE
5482
5482
54FE
5400
55FF
5410
5410
57FF
7C10
4410
0010
0010
0010
0000
ENDCHAR

STARTCHAR cns4_2C59
ENCODING 11353
SWIDTH 854 0
DWIDTH 16 0
BBX 16 18 0 -2
BITMAP
0000
1001
11F1
1115
5515
5515
55F5
5485
5485
54F5
5495
5515
7D15
4525
0221
0221
04C7
0000
ENDCHAR

STARTCHAR cns4_2C5A
ENCODING 11354
SWIDTH 854 0
DWIDTH 16 0
BBX 16 18 0 -2
BITMAP
0000
0006
1018
13E2
1524
5694
5690
5440
5440
57FF
5488
5508
55C8
7C30
4428
00C6
0700
0000
ENDCHAR

STARTCHAR cns4_2C5B
ENCODING 11355
SWIDTH 854 0
DWIDTH 16 0
BBX 16 18 0 -2
BITMAP
0000
1020
1020
10A0
54A4
54A4
5524
55AA
5569
5631
5420
55FE
7C20
4420
0020
07FF
0000
0000
ENDCHAR

STARTCHAR cns4_2C5C
ENCODING 11356
SWIDTH 854 0
DWIDTH 16 0
BBX 16 18 0 -2
BITMAP
0000
0010
1090
1090
10FE
5510
5510
5410
57FF
5400
54FE
5482
5482
7C82
4482
00FE
0082
0000
ENDCHAR

STARTCHAR cns4_2C5D
ENCODING 11357
SWIDTH 854 0
DWIDTH 16 0
BBX 16 18 0 -2
BITMAP
0000
1001
1031
11C5
5445
5445
55F5
5445
54C5
54E5
5555
5545
7E45
4441
0041
0041
0047
0000
ENDCHAR

STARTCHAR cns4_2C5E
ENCODING 11358
SWIDTH 854 0
DWIDTH 16 0
BBX 16 18 0 -2
BITMAP
0000
0060
1070
1050
1088
54F4
5503
5578
5408
5410
55FC
5504
5504
7D04
45FC
0104
0100
0000
ENDCHAR

STARTCHAR cns4_2C5F
ENCODING 11359
SWIDTH 854 0
DWIDTH 16 0
BBX 16 18 0 -2
BITMAP
0000
1048
1048
1084
5502
5400
55FC
5504
5504
55FC
5554
5450
5491
7C91
4511
021F
0400
0000
ENDCHAR

STARTCHAR cns4_2C60
ENCODING 11360
SWIDTH 854 0
DWIDTH 16 0
BBX 16 18 0 -2
BITMAP
0000
0080
2084
2084
3FFC
0000
1F24
0424
0424
7FE4
0424
0E24
1524
24A4
44A4
0404
041C
0000
ENDCHAR

STARTCHAR cns4_2C61
ENCODING 11361
SWIDTH 854 0
DWIDTH 16 0
BBX 16 18 0 -2
BITMAP
0000
2000
100C
01F0
4500
29FE
1110
1110
6110
2210
2210
0490
1084
1084
1084
1FFC
1004
0000
ENDCHAR

STARTCHAR cns4_2C62
ENCODING 11362
SWIDTH 854 0
DWIDTH 16 0
BBX 16 18 0 -2
BITMAP
0000
0880
1080
1FFC
2080
4080
3FFF
0000
1FF8
1008
1FF8
0080
2084
2084
2084
3FFC
2004
0000
ENDCHAR

STARTCHAR cns4_2C63
ENCODING 11363
SWIDTH 854 0
DWIDTH 16 0
BBX 16 18 0 -2
BITMAP
0000
0100
2108
2108
3FF8
2048
78A0
4930
4A18
4DF6
4800
4BF8
4808
7810
4810
4820
0020
0000
ENDCHAR

STARTCHAR cns4_2C64
ENCODING 11364
SWIDTH 854 0
DWIDTH 16 0
BBX 16 18 0 -2
BITMAP
0000
0000
7EFC
4884
4884
4884
5E84
52FC
5284
5280
5280
5E80
4880
4882
7F82
007E
0000
0000
ENDCHAR

STARTCHAR cns4_2C65
ENCODING 11365
SWIDTH 854 0
DWIDTH 16 0
BBX 16 18 0 -2
BITMAP
0000
3FE0
0020
00C6
3EA8
0490
0B8C
3003
7FFC
0000
3FF8
2108
3FF8
2008
2002
2002
1FFC
0000
ENDCHAR

STARTCHAR cns4_2C66
ENCODING 11366
SWIDTH 854 0
DWIDTH 16 0
BBX 16 18 0 -2
BITMAP
0000
1000
17FE
1128
7D28
55E8
5528
5528
5528
55E8
5528
5528
5DE8
1329
1029
102F
1020
0000
ENDCHAR

ENDFONT
